<svg xmlns="http://www.w3.org/2000/svg" xmlns:xlink="http://www.w3.org/1999/xlink" width="625" height="127" viewBox="0 0 625 127">
  <defs>
    <filter id="長方形_23668" x="0" y="0" width="625" height="127" filterUnits="userSpaceOnUse">
      <feOffset dx="5" dy="7" input="SourceAlpha"/>
      <feGaussianBlur result="blur"/>
      <feFlood flood-color="#1a6c63"/>
      <feComposite operator="in" in2="blur"/>
      <feComposite in="SourceGraphic"/>
    </filter>
    <filter id="パス_5073" x="133.424" y="45.736" width="351.824" height="32.208" filterUnits="userSpaceOnUse">
      <feOffset dx="2" dy="2" input="SourceAlpha"/>
      <feGaussianBlur result="blur-2"/>
      <feFlood flood-opacity="0.161"/>
      <feComposite operator="in" in2="blur-2"/>
      <feComposite in="SourceGraphic"/>
    </filter>
    <filter id="楕円形_28" x="526" y="37" width="53" height="53" filterUnits="userSpaceOnUse">
      <feOffset dy="3" input="SourceAlpha"/>
      <feGaussianBlur stdDeviation="3" result="blur-3"/>
      <feFlood flood-opacity="0.161"/>
      <feComposite operator="in" in2="blur-3"/>
      <feComposite in="SourceGraphic"/>
    </filter>
  </defs>
  <g id="グループ_10800" data-name="グループ 10800" transform="translate(1307 -5381.877)">
    <g id="グループ_10798" data-name="グループ 10798">
      <g id="グループ_10797" data-name="グループ 10797" transform="translate(0 260)">
        <g transform="matrix(1, 0, 0, 1, -1307, 5121.88)" filter="url(#長方形_23668)">
          <rect id="長方形_23668-2" data-name="長方形 23668" width="620" height="120" rx="60" transform="translate(0)" fill="#039e8e"/>
        </g>
        <g transform="matrix(1, 0, 0, 1, -1307, 5121.88)" filter="url(#パス_5073)">
          <path id="パス_5073-2" data-name="パス 5073" d="M-168.448-21.28h3.712V-22.4h6.848v1.12h3.744V-22.4h6.752v-3.008h-6.752v-1.664h-3.744v1.664h-6.848v-1.664h-3.712v1.664h-6.72V-22.4h6.72Zm4.64,14.08c-.1.608-.192,1.152-.32,1.664h-3.936a16.528,16.528,0,0,0,2.5-2.144h8.576a17.838,17.838,0,0,0,2.24,2.144h-5.7A13.883,13.883,0,0,0-160.16-7.2Zm-4.672-8.064h14.4v1.28h-14.4Zm0-3.328h14.4v1.248h-14.4ZM-146.944-7.68v-2.944h-16.384c.224-.384.416-.768.608-1.152h12.48V-20.8h-21.888v9.024h5.472a12.005,12.005,0,0,1-.768,1.152h-8.16V-7.68h4.992a21.757,21.757,0,0,1-5.984,2.688A8.483,8.483,0,0,1-174.4-2.3a32.619,32.619,0,0,0,3.68-1.6v1.088h5.12c-1.248,1.312-3.456,2.24-7.392,2.848a10.618,10.618,0,0,1,1.824,2.912c5.792-1.152,8.48-2.976,9.824-5.76h5.472a4.253,4.253,0,0,1-.672,2.3,1.4,1.4,0,0,1-1.024.288c-.544,0-1.792-.032-3.072-.16a7.041,7.041,0,0,1,.928,2.976,36.055,36.055,0,0,0,3.84-.032,3.8,3.8,0,0,0,2.336-.928c.7-.736,1.088-2.272,1.376-5.376a20.169,20.169,0,0,0,3.872,1.792,14.929,14.929,0,0,1,2.432-3.04,21.528,21.528,0,0,1-6.5-2.688Zm14.368-5.376h6.048v1.376h-6.048Zm6.048-6.336h-6.048V-20.7h6.048Zm0,3.84h-6.048V-16.9h6.048Zm15.456,11.04v-3.04h-12.576V-8.8H-111.9v-2.88H-122.88v-1.376h8.512v-2.5h-8.512V-16.9h8.48v-2.5h-8.48V-20.7h10.048v-2.944H-122.4c.576-.9,1.184-1.92,1.728-2.944l-4.288-.512a29.15,29.15,0,0,1-1.408,3.456h-4.544a32.481,32.481,0,0,0,1.728-2.752l-3.936-.736a25.71,25.71,0,0,1-7.584,8.7,11.963,11.963,0,0,1,2.688,2.56c.64-.512,1.248-1.024,1.824-1.568V-8.8h8.8v1.248h-12.416v3.04h9.536A38.744,38.744,0,0,1-140.864-.576a20.6,20.6,0,0,1,2.432,3.136,35.838,35.838,0,0,0,11.04-5.28V2.752h3.744v-5.6A35.423,35.423,0,0,0-112.672,2.4,15.264,15.264,0,0,1-110.3-.64a37.717,37.717,0,0,1-10.24-3.872Zm23.424-6.432v-6.88h7.232v6.88Zm-11.232,0v-6.88h7.2v6.88Zm11.232-10.624V-27.1H-91.68v5.536h-11.04V-5.44h3.84V-7.2h7.2V2.784h4.032V-7.2h7.232v1.6h4V-21.568Zm47.552,10.3c0-6.976-4.992-12.48-12.928-12.48-8.288,0-14.688,6.3-14.688,13.7,0,5.408,2.944,9.312,6.5,9.312,3.488,0,6.24-3.968,8.16-10.432a64.715,64.715,0,0,0,1.92-8.672c4.32.736,6.72,4.032,6.72,8.448,0,4.672-3.2,7.616-7.3,8.576a24.612,24.612,0,0,1-2.976.512l2.4,3.808C-44.224.256-40.1-4.512-40.1-11.264Zm-23.52.8a10.073,10.073,0,0,1,8.128-9.28A48.032,48.032,0,0,1-57.184-12c-1.312,4.32-2.56,6.336-3.9,6.336C-62.336-5.664-63.616-7.232-63.616-10.464Zm41.216.928c-3.808,2.208-7.936,4.512-10.592,5.824l2.368,3.52c2.784-1.6,6.336-3.808,9.5-5.856Zm-.448-2.432a30.371,30.371,0,0,0-4.992-5.6l-2.912,2.048a31.222,31.222,0,0,1,4.8,5.792Zm14.784-6.016a39.864,39.864,0,0,1-5.024,5.824,32.719,32.719,0,0,1-2.976-6.112v-.32H-3.712v-3.68H-7.264l1.472-1.664a39.441,39.441,0,0,0-5.952-3.328l-2.208,2.4a44.18,44.18,0,0,1,4.416,2.592h-6.528v-4.8h-3.872v4.8H-32v3.68h12.064V-1.92c0,.576-.224.768-.832.768-.64,0-2.656.032-4.608-.064a15.791,15.791,0,0,1,1.312,4c2.848.032,4.9-.1,6.24-.768,1.344-.608,1.76-1.664,1.76-3.9v-8.576A26.489,26.489,0,0,0-5.536.608,15.286,15.286,0,0,1-2.72-2.784a23.141,23.141,0,0,1-8.288-6.528,73.73,73.73,0,0,0,6.3-6.336Zm23.328-8.384C15.04-22.144,15.488-7.616,2.72-.544A13.336,13.336,0,0,1,5.92,2.5c6.752-4.128,10.112-10.3,11.84-16.064C19.552-7.68,23.136-1.088,30.368,2.5A12.508,12.508,0,0,1,33.312-.736C21.376-6.336,19.776-20.128,19.52-24.544c.032-.672.064-1.312.1-1.824ZM52.928-4.16c0-1.216,1.216-1.984,3.04-1.984a9.879,9.879,0,0,1,2.56.352v.576c0,1.888-.672,2.912-2.624,2.912C54.208-2.3,52.928-2.848,52.928-4.16Zm9.5-20.9H57.856a13.588,13.588,0,0,1,.224,2.112c0,.672.032,1.984.032,3.552-.736.032-1.5.032-2.24.032a53.32,53.32,0,0,1-5.6-.288v3.808c1.888.128,3.712.192,5.6.192.736,0,1.5,0,2.272-.032.032,2.272.16,4.608.224,6.592a14.236,14.236,0,0,0-2.08-.128c-4.352,0-7.1,2.24-7.1,5.472,0,3.36,2.752,5.216,7.168,5.216,4.32,0,6.048-2.176,6.24-5.248A33.565,33.565,0,0,1,66.5-.544L68.7-3.9A20.943,20.943,0,0,0,62.5-8.032c-.128-2.176-.288-4.736-.352-7.84,1.76-.128,3.424-.32,4.96-.544v-4a43.844,43.844,0,0,1-4.96.736c.032-1.408.064-2.592.1-3.3A20.038,20.038,0,0,1,62.432-25.056ZM46.816-24.7,42.4-25.088a30.524,30.524,0,0,1-.32,3.136A101.341,101.341,0,0,0,40.768-8.608a37.585,37.585,0,0,0,1.28,10.24l3.616-.288C45.632.9,45.6.352,45.6.032a8.93,8.93,0,0,1,.16-1.5c.384-1.728,1.408-4.992,2.3-7.616l-1.952-1.6c-.48,1.088-1.024,2.176-1.44,3.3a15.126,15.126,0,0,1-.128-2.08A85.421,85.421,0,0,1,46.08-21.856,20.777,20.777,0,0,1,46.816-24.7Zm33.76,1.44v4.224c2.592.224,5.376.352,8.736.352,3.04,0,7.008-.192,9.248-.384v-4.256c-2.464.256-6.112.448-9.28.448A83.945,83.945,0,0,1,80.576-23.264ZM83.264-9.7l-4.192-.384a20.7,20.7,0,0,0-.64,4.608c0,4.384,3.68,6.848,11.008,6.848a49.311,49.311,0,0,0,11.1-1.088l-.032-4.512A43.938,43.938,0,0,1,89.28-2.944c-4.608,0-6.56-1.472-6.56-3.52A11.791,11.791,0,0,1,83.264-9.7ZM123.936-25.5l-4.544-.192a14.511,14.511,0,0,1-.16,3.232c-.064.384-.128.832-.192,1.312a45.736,45.736,0,0,1-6.272-.608v3.968c1.632.16,3.52.256,5.536.288a51.207,51.207,0,0,1-3.648,10.752l3.776,1.344a11.826,11.826,0,0,1,.9-1.408c1.92-2.432,5.184-3.744,8.864-3.744,3.136,0,4.768,1.6,4.768,3.52,0,4.7-7.072,5.568-14.08,4.416L120,1.5c10.336,1.12,17.28-1.472,17.28-8.672,0-4.1-3.424-6.848-8.608-6.848A15.593,15.593,0,0,0,120.736-12c.48-1.568.992-3.616,1.44-5.568,4.288-.224,9.376-.832,12.7-1.376l-.064-3.808a78.353,78.353,0,0,1-11.84,1.5c.064-.352.128-.7.192-.992C123.392-23.3,123.584-24.384,123.936-25.5Zm32.032-.256-1.024,3.84c2.5.64,9.632,2.144,12.864,2.56l.96-3.9A97.944,97.944,0,0,1,155.968-25.76Zm.192,6.432-4.288-.608a118.054,118.054,0,0,1-1.6,13.376l3.68.928a7.753,7.753,0,0,1,1.184-1.856,11.392,11.392,0,0,1,8.9-3.776c2.784,0,4.768,1.536,4.768,3.616,0,4.064-5.088,6.4-14.688,5.088l1.216,4.192c13.312,1.12,17.92-3.36,17.92-9.184,0-3.872-3.264-7.328-8.864-7.328a15.664,15.664,0,0,0-9.44,3.04C155.168-13.664,155.744-17.568,156.16-19.328Z" transform="translate(310 73)" fill="#fff"/>
        </g>
        <g transform="matrix(1, 0, 0, 1, -1307, 5121.88)" filter="url(#楕円形_28)">
          <circle id="楕円形_28-2" data-name="楕円形 28" cx="17.5" cy="17.5" r="17.5" transform="translate(535 43)" fill="#fff"/>
        </g>
        <g id="コンポーネント_2_5" data-name="コンポーネント 2 – 5" transform="translate(-755 5177.877)">
          <path id="パス_12" data-name="パス 12" d="M-2151,7685l5,4.583-5,4.583" transform="translate(2151 -7685)" fill="none" stroke="#1a6c63" stroke-linecap="round" stroke-linejoin="round" stroke-width="3"/>
        </g>
      </g>
    </g>
  </g>
</svg>
