<svg xmlns="http://www.w3.org/2000/svg" xmlns:xlink="http://www.w3.org/1999/xlink" width="468" height="95.754" viewBox="0 0 468 95.754">
  <defs>
    <filter id="合体_9" x="0" y="0" width="468" height="95.754" filterUnits="userSpaceOnUse">
      <feOffset dy="3" input="SourceAlpha"/>
      <feGaussianBlur stdDeviation="3" result="blur"/>
      <feFlood flood-opacity="0.161"/>
      <feComposite operator="in" in2="blur"/>
      <feComposite in="SourceGraphic"/>
    </filter>
  </defs>
  <g id="グループ_10799" data-name="グループ 10799" transform="translate(1231 -5079)">
    <g transform="matrix(1, 0, 0, 1, -1231, 5079)" filter="url(#合体_9)">
      <path id="合体_9-2" data-name="合体 9" d="M604.3,126.923H428a30,30,0,0,1-30-30V96a30,30,0,0,1,30-30H818a30,30,0,0,1,30,30v.923a30,30,0,0,1-30,30H641.7L623,143.753Z" transform="translate(-389 -60)" fill="#ef9f00"/>
    </g>
    <path id="パス_5072" data-name="パス 5072" d="M-134.1-2.664a17.141,17.141,0,0,1-.936,2l.486.108H-138.1l.684-.2a7.328,7.328,0,0,0-.864-1.908Zm-5.256-3.294h6.138v1.6h-6.138Zm6.732,3.294H-131V-7.65h-10.422v4.986h1.962l-.936.234a8.612,8.612,0,0,1,.828,1.872h-4.356V1.206h15.48V-.558h-4.518c.306-.522.666-1.224,1.044-1.962ZM-129.69-13a15.781,15.781,0,0,1-2.016,1.854c-.288-.288-.576-.594-.846-.918.792-.54,1.692-1.224,2.466-1.872l-1.62-1.152a15.064,15.064,0,0,1-1.8,1.71,11.66,11.66,0,0,1-.954-1.818l-1.836.576a17.383,17.383,0,0,0,2.466,4.158h-4.626a12.117,12.117,0,0,0,2.034-3.51l-1.386-.72-.36.09h-4.716v1.728h3.69a11.33,11.33,0,0,1-1.35,1.782,10.866,10.866,0,0,0-2.034-1.458l-1.17,1.17a12.54,12.54,0,0,1,1.926,1.512,12.541,12.541,0,0,1-3.042,1.854,7.606,7.606,0,0,1,1.278,1.566,15.824,15.824,0,0,0,4.068-2.844v.612h6.624v-.738A12.8,12.8,0,0,0-129.042-6.7a7.652,7.652,0,0,1,1.422-1.782,12.728,12.728,0,0,1-2.826-1.566,28.08,28.08,0,0,0,2.322-1.836Zm7.4,2.214a17.01,17.01,0,0,0,1.746-2.466,16.735,16.735,0,0,1,2.052,2.466Zm4.68,8.874-2.16.378V-5.886h2.232v-1.8h-2.232V-9h1.854v-1.782h-.162l1.134-1.35a17.888,17.888,0,0,0-3.006-3.1h-1.764a11.5,11.5,0,0,1-3.114,4.356,5.861,5.861,0,0,1,1.278,1.386c.108-.108.234-.216.342-.324V-9h1.584v1.314h-2.448v1.8h2.448v4.7c-.99.162-1.89.306-2.646.414l.4,1.944c1.818-.342,4.194-.846,6.426-1.314l-.054-.522L-116.91.36c1.026-.7,2.178-1.53,3.24-2.34l-.648-1.62c-1.17.774-2.358,1.53-3.258,2.052Zm7.794-2c.63-.594,1.44-1.44,2.16-2.268L-109.332-7.2a15.027,15.027,0,0,1-1.62,2.16,11.675,11.675,0,0,1-.738-1.926V-7.56h3.888V-9.378h-1.332v-5.274h-7.38v1.764h5.4v.972h-5v1.62h5v.918h-6.264V-7.56h3.708V-.5c0,.18-.054.234-.252.234-.18,0-.72.018-1.224-.018a7.309,7.309,0,0,1,.5,1.854,4.734,4.734,0,0,0,2.268-.342c.558-.288.684-.792.684-1.692V-2.826A9.062,9.062,0,0,0-108.738.648a7.95,7.95,0,0,1,1.368-1.764,8.3,8.3,0,0,1-3.294-3.348Zm-14.076-.954a16.38,16.38,0,0,1,.558,3.15l1.44-.4a20.559,20.559,0,0,0-.63-3.1Zm5.616,2.79c.27-.738.558-1.89.882-2.9l-1.548-.378a22.071,22.071,0,0,1-.63,2.916Zm.99-3.96a10.293,10.293,0,0,1,1.764,2.358l1.494-.99a8.791,8.791,0,0,0-1.854-2.268Zm22.554-2.286v-1.872a18.13,18.13,0,0,0,1.044-1.656h5.6v-2.2H-103.7v2.2h7.182a18.881,18.881,0,0,1-7.758,7.074A12.86,12.86,0,0,1-102.8-2.826a21.5,21.5,0,0,0,5.724-4.428V1.53h2.34V-7.794a42.04,42.04,0,0,1,5.508,4.878l1.818-1.638A46.762,46.762,0,0,0-93.4-9.432Zm16.974,4.5h4.392a5.8,5.8,0,0,1-1.638,1.674c-1.1-.288-2.232-.558-3.348-.792Zm-3.024-6.228h1.89V-8.37h-1.89Zm3.906-2.718h2.034v1.026h-2.034Zm6.21,2.718V-8.37h-2.16v-1.674Zm-6.21,1.674v-1.674h2.034V-8.37Zm9.36,4.554V-5.544h-9.09c.252-.4.486-.774.72-1.152h7.362v-5.04h-4.3v-1.026h4.878v-1.854H-83.628v1.854h4.734v1.026H-82.8V-6.7h4.464c-.234.378-.468.756-.72,1.152h-4.9v1.728h3.744c-.54.774-1.062,1.476-1.512,2.052l2.07.648.2-.27c.594.126,1.17.27,1.746.414a28.421,28.421,0,0,1-5.922.72,6.063,6.063,0,0,1,.81,1.836c3.492-.27,6.156-.738,8.172-1.728,2.034.594,3.852,1.224,5.22,1.782l1.314-1.746c-1.224-.432-2.79-.918-4.536-1.4a7.917,7.917,0,0,0,1.674-2.3Zm11.016-.81h1.836l.486-6.156.09-2.682h-2.988l.09,2.682Zm.918,4.788A1.532,1.532,0,0,0-54-1.422a1.536,1.536,0,0,0-1.584-1.6,1.536,1.536,0,0,0-1.584,1.6A1.522,1.522,0,0,0-55.584.162ZM-31.41-8.406h-5.544v-.918h5.544Zm0,2.3h-5.544V-7h5.544Zm0,2.34h-5.544V-4.68h5.544Zm-7.56-7.056v8.55h9.684v-8.55h-5.2c.072-.306.126-.648.2-.99h6.858V-13.77h-6.534c.09-.486.144-.972.216-1.458l-2.52-.072c-.018.468-.036.99-.072,1.53H-43.38v1.962h6.84c-.036.342-.09.684-.144.99Zm11.718,9.594H-40.428V-10.26h-2.124V1.584h2.124V.774h13.176Zm16.29-10.512a17.506,17.506,0,0,1-.684,2.268h-1.89l.072-.018a9.4,9.4,0,0,0-.54-2.25Zm-.054,7.182A5.506,5.506,0,0,1-12.06-2.448c-.774-.288-1.53-.558-2.232-.774.216-.432.45-.882.666-1.332Zm4.068-3.1V-9.468H-9.72c.27-.648.576-1.44.864-2.268H-7.38v-1.8h-4.014v-1.71h-2.178v1.71h-4.014v1.8h2l-.36.072a12.147,12.147,0,0,1,.522,2.2h-2.7V-7.65h3.654q-.243.621-.54,1.3H-17.82l-.144-1.152-1.368.36V-9.882h1.386v-1.962h-1.386v-3.384h-2.052v3.384h-2.088v1.962h2.088v3.24c-.918.216-1.764.414-2.448.558l.45,2.07,2-.54v3.69c0,.27-.09.342-.306.342-.234.018-.972.018-1.674-.018a7.777,7.777,0,0,1,.594,2.088,5.317,5.317,0,0,0,2.682-.432c.576-.324.756-.9.756-1.962V-5.13c.45-.126.9-.27,1.35-.4v.972h2.16c-.45.972-.918,1.908-1.332,2.628l1.854.594.18-.324c.432.144.882.324,1.332.5a14.433,14.433,0,0,1-4.77,1.026A5.671,5.671,0,0,1-17.766,1.6,14.4,14.4,0,0,0-11.682-.234a21.743,21.743,0,0,1,3.168,1.8l1.35-1.6a20.737,20.737,0,0,0-3.024-1.62,7.953,7.953,0,0,0,1.278-2.9h1.944v-1.8h-5.8c.216-.432.414-.882.594-1.3ZM3.618-15.318a19.847,19.847,0,0,1-7.362,6.75A9.019,9.019,0,0,1-2.394-6.84a22.3,22.3,0,0,0,7.2-6.372A24.094,24.094,0,0,0,12.15-6.858a11.673,11.673,0,0,1,1.44-1.926,19.138,19.138,0,0,1-7.776-6.534ZM6.12-4.464h4.824v-1.89H6.12v-3.852H3.87V-.864H1.314V-7.11H-.792V-.864H-2.754V1.08H12.564V-.864H6.12Zm21.15-6.1c-.2.486-.414,1.008-.63,1.44H23.274l.306-.054a9.67,9.67,0,0,0-.612-1.386Zm5.814,8.028V-4.3h-7v-.792h5.4V-6.642h-5.4v-.81h6.246V-9.126H28.8c.27-.432.558-.918.846-1.44H33.03v-1.746H30.69c.414-.63.9-1.44,1.4-2.268l-2.25-.54a14.5,14.5,0,0,1-1.134,2.61l.648.2h-1.6v-2.934H25.74v2.934H24.408v-2.934h-2v2.934H20.772l.882-.324a13.62,13.62,0,0,0-1.368-2.538l-1.836.63a16.135,16.135,0,0,1,1.116,2.232H17.154v1.746h3.762l-.216.036a8.089,8.089,0,0,1,.612,1.4h-3.42v1.674h6.084v.81H18.792v1.548h5.184V-4.3H17.1v1.764h5.166A18.911,18.911,0,0,1,16.578-.432,9.984,9.984,0,0,1,17.946,1.35a17.075,17.075,0,0,0,6.03-2.916V1.566h2.106v-3.24A15.365,15.365,0,0,0,32.13,1.368,10.069,10.069,0,0,1,33.57-.576a16.081,16.081,0,0,1-5.706-1.962Zm3.8-2.826,2.2,2.25c.306-.468.72-1.116,1.134-1.71.774-1.026,2.052-2.808,2.772-3.708.522-.666.864-.756,1.494-.054.846.954,2.2,2.664,3.312,4,1.134,1.332,2.664,3.078,3.96,4.3L53.6-2.448c-1.71-1.53-3.24-3.15-4.392-4.41-1.062-1.152-2.5-3.006-3.726-4.194-1.314-1.278-2.484-1.152-3.744.27-1.116,1.3-2.5,3.15-3.33,4.014A12.046,12.046,0,0,1,36.882-5.364Zm23.67-5.76h13v-2.034h-6.5v-2.07H64.818v2.07H58.41v4.536c0,2.592-.126,6.372-1.6,8.946A9.942,9.942,0,0,1,58.662,1.53c1.62-2.808,1.89-7.254,1.89-10.152ZM70-8.46a22.671,22.671,0,0,0-4.356-2.61l-1.422,1.4a20.765,20.765,0,0,1,4.23,2.808ZM62.136,0a16.576,16.576,0,0,0,1.332-5.886L61.542-6.3A14.9,14.9,0,0,1,60.228-.846ZM66.8-.684c-.5,0-.576-.09-.576-.738V-7.686H64.1V-1.4c0,2,.45,2.628,2.358,2.628h2c1.674,0,2.214-.864,2.412-3.942a5.634,5.634,0,0,1-1.89-.864c-.072,2.484-.18,2.9-.72,2.9ZM69.7-6.03a21.4,21.4,0,0,1,2.2,6.012L74-.882A21.445,21.445,0,0,0,71.6-6.768ZM81.5-11.97h2.088v-.63h3.852v.63H89.55v-.63h3.8v-1.692h-3.8v-.936H87.444v.936H83.592v-.936H81.5v.936h-3.78V-12.6H81.5Zm2.61,7.92c-.054.342-.108.648-.18.936H81.72a9.3,9.3,0,0,0,1.4-1.206h4.824a10.034,10.034,0,0,0,1.26,1.206H86a7.81,7.81,0,0,0,.162-.936ZM81.486-8.586h8.1v.72h-8.1Zm0-1.872h8.1v.7h-8.1ZM93.6-4.32V-5.976H84.384c.126-.216.234-.432.342-.648h7.02V-11.7H79.434v5.076h3.078a6.752,6.752,0,0,1-.432.648H77.49V-4.32H80.3a12.238,12.238,0,0,1-3.366,1.512A4.772,4.772,0,0,1,78.156-1.3a18.349,18.349,0,0,0,2.07-.9v.612h2.88c-.7.738-1.944,1.26-4.158,1.6a5.973,5.973,0,0,1,1.026,1.638c3.258-.648,4.77-1.674,5.526-3.24h3.078a2.392,2.392,0,0,1-.378,1.3.789.789,0,0,1-.576.162c-.306,0-1.008-.018-1.728-.09a3.961,3.961,0,0,1,.522,1.674,20.281,20.281,0,0,0,2.16-.018A2.137,2.137,0,0,0,89.892.918c.4-.414.612-1.278.774-3.024A11.345,11.345,0,0,0,92.844-1.1a8.4,8.4,0,0,1,1.368-1.71A12.109,12.109,0,0,1,90.558-4.32ZM103.626.252c3.528,0,5.958-2.646,5.958-6.966s-2.43-6.858-5.958-6.858-5.958,2.52-5.958,6.858C97.668-2.394,100.1.252,103.626.252Zm0-2.3c-1.98,0-3.24-1.818-3.24-4.662,0-2.862,1.26-4.572,3.24-4.572s3.24,1.71,3.24,4.572C106.866-3.87,105.606-2.052,103.626-2.052ZM114.354,0h2.664V-3.744l1.746-2.25L122.22,0h2.916l-4.788-8.082,4.068-5.256h-2.934l-4.41,5.8h-.054v-5.8h-2.664Zm20.952-4.626h1.836l.486-6.156.09-2.682H134.73l.09,2.682Zm.918,4.788a1.532,1.532,0,0,0,1.584-1.584,1.536,1.536,0,0,0-1.584-1.6,1.536,1.536,0,0,0-1.584,1.6A1.522,1.522,0,0,0,136.224.162Z" transform="translate(-997 5122)" fill="#fff"/>
  </g>
</svg>
