<svg xmlns="http://www.w3.org/2000/svg" xmlns:xlink="http://www.w3.org/1999/xlink" width="366.673" height="303" viewBox="0 0 366.673 303">
  <defs>
    <clipPath id="clip-path">
      <circle id="楕円形_8" data-name="楕円形 8" cx="56" cy="56" r="56" transform="translate(0 0)" fill="#fff" stroke="#ef9f00" stroke-width="5"/>
    </clipPath>
    <clipPath id="clip-path-2">
      <rect id="長方形_23609" data-name="長方形 23609" width="74.724" height="107.291" fill="none"/>
    </clipPath>
    <filter id="パス_5072" x="265.057" y="119.803" width="36.234" height="25.344" filterUnits="userSpaceOnUse">
      <feOffset input="SourceAlpha"/>
      <feGaussianBlur result="blur"/>
      <feFlood flood-opacity="0.161"/>
      <feComposite operator="in" in2="blur"/>
      <feComposite in="SourceGraphic"/>
    </filter>
    <filter id="パス_5073" x="303.497" y="127.365" width="38.08" height="17.4" filterUnits="userSpaceOnUse">
      <feOffset input="SourceAlpha"/>
      <feGaussianBlur result="blur-2"/>
      <feFlood flood-opacity="0.161"/>
      <feComposite operator="in" in2="blur-2"/>
      <feComposite in="SourceGraphic"/>
    </filter>
  </defs>
  <g id="グループ_8045" data-name="グループ 8045" transform="translate(-520 -2274)">
    <rect id="長方形_23928" data-name="長方形 23928" width="360" height="303" transform="translate(520 2274)" fill="#f4f2ed"/>
    <path id="パス_5076" data-name="パス 5076" d="M4.86-15.048A19.234,19.234,0,0,1,.468-8.154,9.907,9.907,0,0,1,1.4-6.462a19.221,19.221,0,0,0,1.674-2V1.386H4.662V-10.89a32.433,32.433,0,0,0,1.764-3.654ZM8.478-12.8h6.066v2.9H8.478Zm8.676,7.866V-6.444h-4.86V-8.406h3.924v-5.868H6.912v5.868H10.62v1.962H5.652v1.512H9.738A13.2,13.2,0,0,1,5.076-.648,7.381,7.381,0,0,1,6.228.684,14.646,14.646,0,0,0,10.62-3.672V1.44h1.674v-5.2A15.451,15.451,0,0,0,16.47.72,7.481,7.481,0,0,1,17.64-.612a13.379,13.379,0,0,1-4.446-4.32Zm16.182-1.53H26.3V-8.028h7.038ZM26.3-3.492V-5.058h7.038v1.566Zm10.746-7.794v-1.566H28.1c.234-.612.432-1.242.63-1.854l-1.71-.4a19.445,19.445,0,0,1-.756,2.25H21.33v1.566h4.248a14.923,14.923,0,0,1-4.734,5.652,9.3,9.3,0,0,1,1.1,1.3,14.149,14.149,0,0,0,2.7-2.484V1.422H26.3v-3.51h7.038V-.54c0,.27-.09.36-.4.36-.306.018-1.386.018-2.448-.036a6.288,6.288,0,0,1,.522,1.62,9.284,9.284,0,0,0,3.132-.27c.648-.252.828-.756.828-1.656V-9.486H26.5c.324-.576.648-1.188.936-1.8ZM47.718-8.73c2.142-.5,3.33-1.26,4.014-2.358A5.33,5.33,0,0,0,55.026-8.73ZM53.64-6.66H45.2V-7.668H53.64Zm0,2.034H45.2V-5.652H53.64Zm0,2.07H45.2V-3.6H53.64ZM50.8-12.636c-.414,1.476-1.44,2.34-4.338,2.808a4.347,4.347,0,0,1,.738,1.1H43.578v7.236H55.314V-8.64c.414.108.882.216,1.386.306A4.693,4.693,0,0,1,57.546-9.7c-3.654-.486-4.662-1.638-5.058-2.934h2.484a8.631,8.631,0,0,1-.9,1.224L55.386-11a11.376,11.376,0,0,0,1.746-2.61L56.016-13.9l-.252.054H49.986a9.591,9.591,0,0,0,.558-1.026L49.032-15.1a7.5,7.5,0,0,1-2.664,3.15,4.865,4.865,0,0,1,1.26.81,8.615,8.615,0,0,0,1.53-1.494Zm-4.3-.792a22.2,22.2,0,0,0-3.762-1.332l-.738,1.134a24.875,24.875,0,0,1,3.762,1.476Zm-.27,1.98c-1.854.486-3.762.99-5.076,1.26l.666,1.476c1.332-.414,3.006-.9,4.572-1.422Zm.288,9.99A19.68,19.68,0,0,1,41.274.234a11.761,11.761,0,0,1,1.26,1.242A23.845,23.845,0,0,0,48.042-.756Zm4.1.882A36.382,36.382,0,0,1,55.44,1.458L57.366.666a56.86,56.86,0,0,0-5.382-2.088Zm19.44-4.59a15.008,15.008,0,0,0,2.574-1.8,13.546,13.546,0,0,0,2.664,1.8Zm.27,4.428V-3.744h4.446V-.738ZM67.788-6.516c-.342-.414-1.746-2.142-2.232-2.664v-.612H67.1l-.126.108a8.77,8.77,0,0,1,1.3,1.116,15.808,15.808,0,0,0,1.584-1.674A13.787,13.787,0,0,0,71.5-8.064a14.157,14.157,0,0,1-4.428,2.538Zm6.66-5.238A11.4,11.4,0,0,1,72.594-9.09a10.772,10.772,0,0,1-1.8-2.412l.162-.252Zm1.062-1.512-.306.072h-3.42a15.911,15.911,0,0,0,.684-1.494l-1.6-.432a13.227,13.227,0,0,1-3.114,4.752v-.972h-2.2V-15.1H63.99v3.762H61.452v1.548h2.376a19.01,19.01,0,0,1-2.79,6.462,7.009,7.009,0,0,1,.81,1.494A17.491,17.491,0,0,0,63.99-6.372V1.4h1.566V-7.29c.432.648.9,1.368,1.17,1.872l-.108.036a6.149,6.149,0,0,1,.954,1.35c.414-.144.81-.306,1.206-.486v5.94h1.548V.72h4.446v.648h1.62v-6.03c.2.09.4.162.594.234a7.3,7.3,0,0,1,1.044-1.4,12.383,12.383,0,0,1-4.284-2.214,12.983,12.983,0,0,0,2.808-4.734Zm14.13,3.69a1.472,1.472,0,0,0,1.512-1.494,1.487,1.487,0,0,0-1.512-1.512,1.487,1.487,0,0,0-1.512,1.512A1.472,1.472,0,0,0,89.64-9.576Zm0,8.712A1.468,1.468,0,0,0,91.152-2.34,1.476,1.476,0,0,0,89.64-3.852,1.476,1.476,0,0,0,88.128-2.34,1.468,1.468,0,0,0,89.64-.864ZM112.068-5.2v1.566h-2.286V-5.2Zm3.942,1.566H113.6V-5.2h2.412ZM113.6-.738v-1.62h2.412v1.62Zm-3.816-1.62h2.286v1.62h-2.286Zm-1.548-3.348c-.5-.45-1.512-1.368-2.052-1.8a17.559,17.559,0,0,0,1.962-3.726l-.936-.612-.288.054H105.8V-15.1h-1.656v3.312h-2.3v1.512h4.248a14.241,14.241,0,0,1-4.9,5.526,7.384,7.384,0,0,1,.81,1.548,15.115,15.115,0,0,0,2.142-1.836V1.4H105.8V-6.048c.594.63,1.278,1.422,1.638,1.89l.792-1.1V1.4h1.548V.612h6.228v.756h1.6V-6.588h-9.378Zm7.038-3.168h-4.626v-1.674h4.626Zm-6.12-2.988v4.284h7.668v-4.284Zm-1.008-2.43v1.422H117.7v-1.422Zm20.9,9.162c-.378-.378-1.764-1.692-2.556-2.376a17.344,17.344,0,0,0,2.016-3.726l-.936-.612-.288.054h-1.17V-15.1H124.47v3.312H122v1.512h4.428a14.382,14.382,0,0,1-5.076,5.526,7.859,7.859,0,0,1,.81,1.548,15.749,15.749,0,0,0,2.3-1.926V1.422h1.638V-5.94a24.274,24.274,0,0,1,1.89,2.2Zm5.634,4.59V-7.146h3.186v-1.6h-3.186v-6.084h-1.692V-.54h-2V-10.926H129.33V-.54h-1.692V1.08h10.656V-.54Zm13.158-12.636v1.17h-3.456v-1.17Zm-3.456,3.51v-1.242h3.456v1.242ZM149.4-8.5v-5.886h-6.678v15.8h1.656V-8.5Zm2.988-1.152v-1.26h3.564v1.26Zm3.564-3.528v1.17h-3.564v-1.17Zm1.656-1.206h-6.822V-8.46h5.166V-.468c0,.234-.072.324-.288.324-.2,0-.774,0-1.368-.018a3.927,3.927,0,0,1,.432-.486A5.579,5.579,0,0,1,151-2.934h3.69V-4.158h-3.978V-5.364h3.726V-6.588h-1.872c.27-.4.576-.846.846-1.3l-1.512-.45a14.232,14.232,0,0,1-.756,1.746H149a6.224,6.224,0,0,0-.918-1.728l-1.278.4a6.748,6.748,0,0,1,.7,1.332h-1.692v1.224h3.4v1.206h-3.69v1.224h3.438c-.4.882-1.368,1.8-3.672,2.412a5.654,5.654,0,0,1,.99,1.116,6.586,6.586,0,0,0,3.852-2.52,6.306,6.306,0,0,0,3.672,2.5,5.147,5.147,0,0,1,.342-.54A7.9,7.9,0,0,1,154.53,1.4a5.522,5.522,0,0,0,2.394-.288c.54-.27.684-.738.684-1.584Zm8.064-.63a19.954,19.954,0,0,1-4.086,6.984,10.4,10.4,0,0,1,.9,1.71,19.675,19.675,0,0,0,1.62-2.07v9.81h1.62V-11.124a28.536,28.536,0,0,0,1.494-3.42Zm3.2,11.448a12.986,12.986,0,0,1-2.412,3.42,9.072,9.072,0,0,1,1.26.846,16.574,16.574,0,0,0,2.682-3.8Zm9.99-.792a17.535,17.535,0,0,0-2.772-4.1l-1.35.594c.4.486.81,1.026,1.188,1.584-1.386.054-2.772.09-4.1.126a52.037,52.037,0,0,0,4.41-4.752l-1.548-.7a33.42,33.42,0,0,1-2.9,3.51,14.914,14.914,0,0,0-1.44-1.17c.792-.864,1.728-2.052,2.556-3.1l-.108-.054a39.978,39.978,0,0,0,4.878-.936l-1.134-1.332a56.066,56.066,0,0,1-9.36,1.458,5.289,5.289,0,0,1,.45,1.332c1.008-.072,2.07-.162,3.15-.27-.468.72-1.008,1.512-1.512,2.142-.378-.234-.756-.468-1.1-.666l-.972,1.08a19.953,19.953,0,0,1,3.492,2.646q-.459.459-.918.864c-1.206.036-2.286.054-3.2.072l.252,1.6c1.368-.054,3.006-.126,4.788-.2V1.4h1.674V-4.7l3.528-.162a8.985,8.985,0,0,1,.594,1.17ZM174.582-2.97a15.839,15.839,0,0,1,2.43,3.6l1.44-.756a18.1,18.1,0,0,0-2.52-3.492Zm23.346-3.348a6.663,6.663,0,0,0-7.056-6.786,7.8,7.8,0,0,0-8.046,7.488c0,3.006,1.638,4.986,3.42,4.986s3.276-2.034,4.356-5.706a35.842,35.842,0,0,0,1.08-5.058,4.786,4.786,0,0,1,4.356,5.022,5.177,5.177,0,0,1-4.356,5.112,11.125,11.125,0,0,1-1.6.252L191.142.684C195.516.054,197.928-2.538,197.928-6.318ZM184.644-5.8a6.017,6.017,0,0,1,5.13-5.562,28.656,28.656,0,0,1-.99,4.644c-.828,2.772-1.674,3.942-2.484,3.942C185.526-2.772,184.644-3.726,184.644-5.8ZM209-8.73c2.142-.5,3.33-1.26,4.014-2.358a5.33,5.33,0,0,0,3.294,2.358Zm5.922,2.07h-8.442V-7.668h8.442Zm0,2.034h-8.442V-5.652h8.442Zm0,2.07h-8.442V-3.6h8.442Zm-2.844-10.08c-.414,1.476-1.44,2.34-4.338,2.808a4.347,4.347,0,0,1,.738,1.1h-3.618v7.236h11.736V-8.64c.414.108.882.216,1.386.306a4.693,4.693,0,0,1,.846-1.368c-3.654-.486-4.662-1.638-5.058-2.934h2.484a8.63,8.63,0,0,1-.9,1.224l1.314.414a11.375,11.375,0,0,0,1.746-2.61L217.3-13.9l-.252.054h-5.778a9.591,9.591,0,0,0,.558-1.026l-1.512-.234a7.5,7.5,0,0,1-2.664,3.15,4.865,4.865,0,0,1,1.26.81,8.614,8.614,0,0,0,1.53-1.494Zm-4.3-.792a22.2,22.2,0,0,0-3.762-1.332l-.738,1.134a24.875,24.875,0,0,1,3.762,1.476Zm-.27,1.98c-1.854.486-3.762.99-5.076,1.26l.666,1.476c1.332-.414,3.006-.9,4.572-1.422Zm.288,9.99A19.68,19.68,0,0,1,202.554.234a11.761,11.761,0,0,1,1.26,1.242,23.845,23.845,0,0,0,5.508-2.232Zm4.1.882a36.381,36.381,0,0,1,4.824,2.034l1.926-.792a56.861,56.861,0,0,0-5.382-2.088Zm19.44-4.59a15.008,15.008,0,0,0,2.574-1.8,13.546,13.546,0,0,0,2.664,1.8Zm.27,4.428V-3.744h4.446V-.738Zm-2.538-5.778c-.342-.414-1.746-2.142-2.232-2.664v-.612h1.548l-.126.108a8.77,8.77,0,0,1,1.3,1.116,15.809,15.809,0,0,0,1.584-1.674,13.787,13.787,0,0,0,1.638,2.178,14.157,14.157,0,0,1-4.428,2.538Zm6.66-5.238a11.4,11.4,0,0,1-1.854,2.664,10.772,10.772,0,0,1-1.8-2.412l.162-.252Zm1.062-1.512-.306.072h-3.42a15.917,15.917,0,0,0,.684-1.494l-1.6-.432a13.227,13.227,0,0,1-3.114,4.752v-.972h-2.2V-15.1H225.27v3.762h-2.538v1.548h2.376a19.01,19.01,0,0,1-2.79,6.462,7.009,7.009,0,0,1,.81,1.494,17.49,17.49,0,0,0,2.142-4.536V1.4h1.566V-7.29c.432.648.9,1.368,1.17,1.872l-.108.036a6.149,6.149,0,0,1,.954,1.35c.414-.144.81-.306,1.206-.486v5.94h1.548V.72h4.446v.648h1.62v-6.03c.2.09.4.162.594.234a7.3,7.3,0,0,1,1.044-1.4,12.383,12.383,0,0,1-4.284-2.214,12.983,12.983,0,0,0,2.808-4.734Zm13.41-1.116-1.98-.2A14.69,14.69,0,0,1,247.7-11.5c-.63.054-1.26.072-1.854.072-.72,0-1.584-.036-2.286-.108l.126,1.674c.72.036,1.476.054,2.16.054.432,0,.864-.018,1.314-.036a27.032,27.032,0,0,1-3.78,6.57l1.728.882a32.2,32.2,0,0,0,3.906-7.65,24.161,24.161,0,0,0,3.222-.648l-.054-1.656a17.21,17.21,0,0,1-2.646.612C249.8-12.744,250.056-13.752,250.2-14.382Zm-.972,12.474c0-.738.81-1.278,2-1.278a6.267,6.267,0,0,1,1.674.234c.018.234.018.45.018.612,0,.972-.45,1.728-1.818,1.728C249.876-.612,249.228-1.134,249.228-1.908Zm5.2-6.894h-1.764c.036,1.188.126,2.88.18,4.3a10.32,10.32,0,0,0-1.53-.126c-2.232,0-3.762,1.188-3.762,2.88,0,1.872,1.692,2.772,3.78,2.772,2.376,0,3.294-1.242,3.294-2.772v-.5a14.048,14.048,0,0,1,2.7,2.016l.954-1.53a11.73,11.73,0,0,0-3.726-2.268c-.054-1.026-.108-2.07-.126-2.664C254.412-7.416,254.394-8.046,254.43-8.8Zm3.384.684,1.026-1.494a31.866,31.866,0,0,0-4.32-2.412l-.918,1.386A22.889,22.889,0,0,1,257.814-8.118Zm10.638-6.012-2.3-.018a10.416,10.416,0,0,1,.2,2.088c0,1.728-.18,6.372-.18,8.928,0,2.988,1.836,4.158,4.572,4.158a9.141,9.141,0,0,0,7.65-4.032L277.11-4.572a7.376,7.376,0,0,1-6.336,3.708c-1.566,0-2.736-.648-2.736-2.556,0-2.484.126-6.642.216-8.64A16.412,16.412,0,0,1,268.452-14.13Z" transform="translate(560 2506)" fill="#333"/>
    <g id="グループ_8036" data-name="グループ 8036" transform="translate(-223 -30)">
      <g id="長方形_23558" data-name="長方形 23558" transform="translate(835.805 2325.49)" fill="#fff" stroke="#039e8e" stroke-width="4">
        <rect width="174.24" height="38.01" rx="19.005" stroke="none"/>
        <rect x="2" y="2" width="170.24" height="34.01" rx="17.005" fill="none"/>
      </g>
      <path id="パス_5075" data-name="パス 5075" d="M-57.195-4.755v-2H-43.6v2Zm18.825-3.96,1.185-.57q.495.855,1.095,2.13V-9.63h-2.28Zm0,2.835,2.28-.225V-6.93l-1.23.585q-.495-1.05-1.05-2.07Zm1.77,1.425V-.3h.165q.255,0,.3-.09A2.191,2.191,0,0,0-36.09-1V-4.5Zm6.135,1.92a7.774,7.774,0,0,0,1.5-1.92h-3.3A9.635,9.635,0,0,0-30.465-2.535ZM-29.01-1.5A12.576,12.576,0,0,0-26.355-.27l-.66,1.56A13.846,13.846,0,0,1-30.48-.315,15.428,15.428,0,0,1-33.945,1.29L-34.53.12q-.06.84-.382,1.058a2.543,2.543,0,0,1-1.283.217q-.33,0-1.38-.075L-37.62-.3H-38V-4.32l-.375.045A21.584,21.584,0,0,1-38.663-.81,8.219,8.219,0,0,1-39.45,1.5L-40.875.36a7.483,7.483,0,0,0,.615-1.815,18.041,18.041,0,0,0,.24-2.67l-.75.075-.015-1.605.78-.075v-5.4h1.56q.03-.255.09-.757t.075-.623l1.905.12q-.075.765-.15,1.26H-34.5v3.8a3.1,3.1,0,0,0,.84-1.335,7.628,7.628,0,0,0,.24-2.175v-1h4.92v3.48a.371.371,0,0,0,.038.218.411.411,0,0,0,.233.038q.27,0,.345-.15A10.537,10.537,0,0,0-27.72-9.9l1.425.21q-.03.555-.045.848t-.06.66q-.045.368-.068.533a1.4,1.4,0,0,1-.127.39,1.827,1.827,0,0,1-.158.293.975.975,0,0,1-.232.18.794.794,0,0,1-.3.128l-.413.053a4.037,4.037,0,0,1-.5.037h-.645a2.579,2.579,0,0,1-1.185-.173.808.808,0,0,1-.27-.727v-2.79h-1.44v.255a5,5,0,0,1-1.47,3.96h6.2v1.59A9.657,9.657,0,0,1-29.01-1.5Zm-4.77-2.955v-1.59h.375L-34.5-7.185v.93l.465-.045L-34.02-4.7l-.48.045v3.6q0,.135-.007.367t-.008.338a12.134,12.134,0,0,0,2.55-1.1A10.827,10.827,0,0,1-33.84-3.525l1.275-.93Zm12.225.06v2.82h1.95v-2.82Zm0-1.605h1.95V-8.745h-1.95Zm9.75,7.245q-1.635,0-3.3-.09L-15.2-.57q1.365.09,2.49.09.24,0,.367-.48a16.748,16.748,0,0,0,.247-2.355q.12-1.875.21-5.685h-3.255A18.864,18.864,0,0,1-16.41-6.69l1.35-.81a27.719,27.719,0,0,1,2.325,3.885l-1.56.81a27.618,27.618,0,0,0-2.25-3.69,9.332,9.332,0,0,1-.675.87l-.555-.555V.03h-3.78V1.125H-23.43V-10.4h1.65q.375-1.08.615-2.07l1.89.225A17.519,17.519,0,0,1-19.8-10.4h2.025v2.43a14.42,14.42,0,0,0,1.92-4.515l1.875.21q-.24.945-.465,1.575H-9.93Q-9.96-8.49-10-6.9t-.1,2.88q-.068,1.29-.128,2.115a12.541,12.541,0,0,1-.18,1.448,6.83,6.83,0,0,1-.233.938,1.281,1.281,0,0,1-.308.5.8.8,0,0,1-.375.225A2.45,2.45,0,0,1-11.805,1.245ZM6.45-8.145A19.438,19.438,0,0,0,3.87-8.4v4.815a20.129,20.129,0,0,1,2.88,2.25L5.565-.015Q4.665-.795,3.78-1.5A2.616,2.616,0,0,1,2.715.285,4.162,4.162,0,0,1,.36.855,4.006,4.006,0,0,1-2.243.09,2.547,2.547,0,0,1-3.18-2a2.511,2.511,0,0,1,.923-2.048A4.022,4.022,0,0,1,.36-4.8a4.993,4.993,0,0,1,1.6.285v-5.64a32.914,32.914,0,0,1,4.71.3ZM-6.5-8.445v-1.71H-3.93q.33-1.275.525-2.115l1.8.24q-.18.87-.45,1.875H.45v1.71H-2.505A69,69,0,0,1-5.1-.93l-1.74-.585q1.38-3.4,2.43-6.93ZM1.965-2.73a3.6,3.6,0,0,0-1.6-.45,2.024,2.024,0,0,0-1.238.315A1.034,1.034,0,0,0-1.29-2a1.084,1.084,0,0,0,.435.915A1.972,1.972,0,0,0,.36-.75a1.678,1.678,0,0,0,1.26-.375A2.158,2.158,0,0,0,1.965-2.55ZM14.7-6.27h1.02v-.945H14.7Zm0,1.245v.99h1.02v-.99Zm.045,2.4v.9h2.25v.87q.09-.015.27-.03t.27-.03q.645-2.9,1.05-5.28h-1.44v3.57ZM11.88-6.27H12.9v-.945H11.88Zm0,2.235H12.9v-.99H11.88ZM17.4-9.9v-1.7h5.745v1.7Zm3.225,5.415L22.32-4.92A60.825,60.825,0,0,1,23.775.99l-1.74.42q-.045-.225-.142-.668T21.765.12Q18.9.675,16.635.9L16.59-.18H14.745V1.455h-1.89V-.18H10.05V-1.725h2.805v-.9H10.35v-6h2.505v-.9H10.05V-11.07h2.805V-12.2h1.89v1.125h2.25v1.545h-2.25v.9h2.4v.72h6.45V-6.2H20.4Q19.9-3.27,19.44-1.17q.645-.09,1.965-.3Q20.955-3.3,20.625-4.485Zm7.845-.96h.855v-1.68H28.47Zm.855,2.955V-4.02H28.47v1.74Q28.755-2.34,29.325-2.49ZM31.86-8.07q-.225-.9-.435-1.635H30.87V-8.07Zm2.1,0q.255-.825.435-1.635H33.12q.045.165.4,1.635Zm2.55,0q-.015-.255-.022-.81T36.48-9.7h-.51q-.165.84-.39,1.635ZM33.1-2.13v.93h1.4v-.93Zm0-1.41h1.4v-.885H33.1Zm-3.78-6.615H28.47v1.6h.855ZM39.15-.8q.21,0,.42-2.265l1.305.66Q40.665,1.3,39.33,1.305q-1.23,0-1.86-1.74a14.2,14.2,0,0,1-2.07,1.68L34.62.225H33.1V.93h-1.71V-5.895H36.12v4.53q.555-.54.885-.93a35.9,35.9,0,0,1-.42-4.275H30.87v8H29.325V-.78q-1.4.345-2.79.585l-.165-1.65q.135-.015.6-.12v-8.19H26.5v-1.65H31.35v.555h1.38v-1.155h1.95v1.155h1.77v-1.08H38.2v1.125l1.08-.525a24.279,24.279,0,0,1,1.26,2.805l-1.335.6Q38.775-9.39,38.2-10.59q.03,1.7.06,2.52H40.65v1.5H38.325q.03.915.12,2.04.48-.96.795-1.755l1.44.75a19.2,19.2,0,0,1-1.92,3.6Q38.985-.795,39.15-.8ZM50.205-4.7a11.152,11.152,0,0,0,.45-2.4H49.14q-.18.63-.45,1.335Q49.665-5.1,50.205-4.7ZM46.1-7.98v3.42a13.307,13.307,0,0,0,1.77-5.52H46.59Q46.425-9.165,46.1-7.98Zm-.945-4.275,1.725.1q-.015.15-.045.42h5.9v.48h1.65v9.5H52.68V-10.08H49.74q-.1.81-.225,1.485h2.8v1.5a11.485,11.485,0,0,1-1.3,5.01A8.844,8.844,0,0,1,47.955,1.35L46.77-.075A8.926,8.926,0,0,0,49.545-3.12Q48.93-3.6,48-4.23a9.426,9.426,0,0,1-.735,1.185L46.1-4.3v5.7H44.25V-4.68a9.153,9.153,0,0,1-.63,1.035l-.57-2.25A17.159,17.159,0,0,0,45.15-12.255ZM55.17-12h1.875V-1.155q0,.735-.03,1.118a3.99,3.99,0,0,1-.112.7.634.634,0,0,1-.293.428,1.694,1.694,0,0,1-.495.165,4.757,4.757,0,0,1-.81.053q-.54,0-2.01-.075L53.205-.5Q54.48-.42,54.72-.42q.33,0,.39-.09a1.665,1.665,0,0,0,.06-.615Z" transform="translate(923 2350)" fill="#039e8e"/>
    </g>
    <g id="グループ_8038" data-name="グループ 8038" transform="translate(149 252)">
      <g id="楕円形_19" data-name="楕円形 19" transform="translate(495 2102)" fill="#fff" stroke="#fff" stroke-width="5">
        <circle cx="56" cy="56" r="56" stroke="none"/>
        <circle cx="56" cy="56" r="53.5" fill="none"/>
      </g>
      <g id="マスクグループ_9" data-name="マスクグループ 9" transform="translate(495 2102)" clip-path="url(#clip-path)">
        <g id="グループ_7440" data-name="グループ 7440" transform="translate(18.538 13.978)">
          <g id="グループ_7439" data-name="グループ 7439" clip-path="url(#clip-path-2)">
            <path id="パス_1521" data-name="パス 1521" d="M3.027,317.725c.1-.377.216-.826.357-1.364.779-2.968,2.267-8.641,3.564-12.983s2.4-7.35,4.319-10.145a28.791,28.791,0,0,1,6.652-6.77,6.87,6.87,0,0,1,4.261-1.576,9.041,9.041,0,0,1,2.659.585c1.005.31,2.338.678,4.245,1.094s4.387.879,6.564,1.14a31.8,31.8,0,0,0,6.206.176A57.85,57.85,0,0,0,48.479,287a44.839,44.839,0,0,0,4.886-1.2c1.219-.38,2.023-.712,2.646-.886a2.475,2.475,0,0,1,1.979.214,40.036,40.036,0,0,1,3.864,2.2,17.175,17.175,0,0,1,4.809,3.952,38.614,38.614,0,0,1,4.088,7.413,61.626,61.626,0,0,1,3.641,9.168,78.325,78.325,0,0,1,1.848,9.2l.1.657Z" transform="translate(-2.237 -210.434)" fill="#ffcc10" fill-rule="evenodd"/>
            <path id="パス_1522" data-name="パス 1522" d="M50.985,68.055a58.593,58.593,0,0,1-6.175-.743,41.164,41.164,0,0,1-6.768-2.065c-2.383-.918-4.932-2.037-6.771-4.417s-2.968-6.02-3.754-9.445a48.306,48.306,0,0,1-1.3-9.878A49.026,49.026,0,0,1,26.94,32.2a34.825,34.825,0,0,1,2.594-8.392,88.778,88.778,0,0,1,5.282-10.369,15.324,15.324,0,0,1,4.733-5.062,69.13,69.13,0,0,1,6.894-4.457,17.253,17.253,0,0,1,7.019-2.34,24.657,24.657,0,0,1,8.441.782,20.5,20.5,0,0,1,6.9,3.474,36.364,36.364,0,0,1,6.107,5.708,35.493,35.493,0,0,1,4.671,7.172,44.141,44.141,0,0,1,3.2,8.684A66.372,66.372,0,0,1,84.554,38.1a45.636,45.636,0,0,1-.321,12.173,26.911,26.911,0,0,1-4.6,11.169,15.777,15.777,0,0,1-9.209,5.883,53.548,53.548,0,0,1-12.518,1.137,67.145,67.145,0,0,1-6.922-.41" transform="translate(-19.364 -1.101)" fill="#e1e1e0" fill-rule="evenodd"/>
            <path id="パス_1523" data-name="パス 1523" d="M74.734,87.946a25.146,25.146,0,0,1,5.657,4.511c2.082,2.08,3.993,4.413,5.544,5.568A7.9,7.9,0,0,0,89.653,99.4a3.6,3.6,0,0,1,2.267,1.585,6.887,6.887,0,0,1,.925,3.115,6.363,6.363,0,0,1-.53,3.189,6.2,6.2,0,0,1-2.045,2.4,14.012,14.012,0,0,1-2.422,1.136,6.1,6.1,0,0,0-1.959,1.371,6.577,6.577,0,0,0-1.457,2.317,20.65,20.65,0,0,1-1.024,3.129,14.471,14.471,0,0,1-2.856,3.638,18.119,18.119,0,0,1-3.636,2.676,23.8,23.8,0,0,1-3.276,1.5c-.83.309-1.271.425-1.53.734s-.334.81-.24,1.987.359,3.029.557,4.481a10.6,10.6,0,0,0,.756,3.32,4.733,4.733,0,0,0,1.749,1.769,4.533,4.533,0,0,0,1.734.649,17.131,17.131,0,0,0,2.519.178c1.153.023,2.717.023,3.76.023a4.824,4.824,0,0,1,1.7.112c.137.112-.112.335-.888.689a26.241,26.241,0,0,1-3.788,1.3,60.96,60.96,0,0,1-5.991,1.261,33.621,33.621,0,0,1-7.05.508,54.642,54.642,0,0,1-7.843-1.038c-2.211-.441-3.627-.837-4.9-1.2s-2.415-.7-3.123-.887-.988-.229-.467-.316,1.843-.219,3.1-.319a34.408,34.408,0,0,0,3.5-.364,5.685,5.685,0,0,0,2.709-1.152,5.81,5.81,0,0,0,1.617-2.572,15.681,15.681,0,0,0,.659-3.235c.116-1.018.162-1.878.221-2.735a4.3,4.3,0,0,0-.178-2.231c-.307-.518-.99-.7-2.463-1.267a27.423,27.423,0,0,1-5.473-2.741,14.072,14.072,0,0,1-3.911-4.2,35.793,35.793,0,0,1-2.147-4.195,10.414,10.414,0,0,0-1.132-2.078,6.964,6.964,0,0,0-1.6-1.332,14.939,14.939,0,0,1-3.1-2.648,6.457,6.457,0,0,1-1.247-3.152,5.023,5.023,0,0,1,.069-2.09,3.835,3.835,0,0,1,.763-1.506,2.5,2.5,0,0,1,1.161-.735c.427-.136.884-.191,1.342-.289a5.266,5.266,0,0,0,1.677-.675,15.626,15.626,0,0,1,3.062-1.578,16.621,16.621,0,0,1,4.578-.553c1.87-.056,4.153-.081,5.841-.168a13.812,13.812,0,0,0,3.713-.549A8.951,8.951,0,0,0,65.824,95.3a26.077,26.077,0,0,0,2.445-2.067c.913-.856,1.977-1.92,2.727-2.731a18.041,18.041,0,0,0,1.6-1.959c.416-.588.811-1.2,2.135-.6" transform="translate(-30.345 -64.799)" fill="#fff" fill-rule="evenodd"/>
            <path id="パス_1524" data-name="パス 1524" d="M106.863,197.992a.7.7,0,0,1,1.226.687,18.627,18.627,0,0,1-7.283,7.2,22.074,22.074,0,0,1-20.758,0,18.626,18.626,0,0,1-7.284-7.2.7.7,0,0,1,1.226-.687,17.22,17.22,0,0,0,6.734,6.653,20.692,20.692,0,0,0,19.406,0,17.218,17.218,0,0,0,6.734-6.653" transform="translate(-53.698 -146.029)" fill="#070203"/>
            <path id="パス_1525" data-name="パス 1525" d="M115.511,285.376a.7.7,0,0,1,.467,1.325,42.76,42.76,0,0,1-7.2,1.854,46.317,46.317,0,0,1-15.158,0,42.762,42.762,0,0,1-7.2-1.854.7.7,0,0,1,.467-1.325,41.35,41.35,0,0,0,6.964,1.794,45.121,45.121,0,0,0,14.7,0,41.344,41.344,0,0,0,6.964-1.794" transform="translate(-63.508 -210.832)" fill="#070203"/>
            <path id="パス_1526" data-name="パス 1526" d="M109.384,293.9a.527.527,0,0,1,.433.961q-.449.2-.991.433h0q-.539.228-1,.413a.528.528,0,1,1-.388-.981q.531-.21.979-.4h0q.443-.188.968-.426m-4.221,1.655a.525.525,0,0,1,.33,1,44.049,44.049,0,0,1-6.915,1.69,45.3,45.3,0,0,1-16.587-.427,44.062,44.062,0,0,1-8.955-2.956.527.527,0,1,1,.433-.961,42.974,42.974,0,0,0,8.741,2.886,44.4,44.4,0,0,0,16.2.419,42.989,42.989,0,0,0,6.75-1.649" transform="translate(-53.736 -217.123)" fill="#070203"/>
            <path id="パス_1527" data-name="パス 1527" d="M141.316,54.608a.7.7,0,1,1,1.292.544,44.854,44.854,0,0,1-4.969,9.556,43.939,43.939,0,0,1-7.72,7.407.7.7,0,1,1-.885-1.088,42.938,42.938,0,0,0,7.484-7.16,43.817,43.817,0,0,0,4.8-9.259" transform="translate(-95.15 -40.032)" fill="#070203"/>
            <path id="パス_1528" data-name="パス 1528" d="M84.183,63.753a.7.7,0,0,1,1.171.78c-2.489,3.734-4.978,7.467-8.18,10.19s-7.031,4.357-10.86,5.992a.7.7,0,1,1-.55-1.292c3.73-1.593,7.461-3.186,10.5-5.772s5.479-6.242,7.916-9.9" transform="translate(-48.277 -46.875)" fill="#070203"/>
            <path id="パス_1529" data-name="パス 1529" d="M42.094,132.982a.7.7,0,0,1,.14,1.4l-.055,0a3.1,3.1,0,0,0-2.081.6,2.765,2.765,0,0,0-.61,1.194,4.858,4.858,0,0,0-.13,1.725,6.4,6.4,0,0,0,.531,1.938A6.935,6.935,0,0,0,41,141.592a11.883,11.883,0,0,0,3.34,2.367.7.7,0,0,1-.676,1.231,12.963,12.963,0,0,1-3.72-2.669,8.375,8.375,0,0,1-1.338-2.113,7.824,7.824,0,0,1-.647-2.367,6.272,6.272,0,0,1,.168-2.225,3.56,3.56,0,0,1,3.963-2.834" transform="translate(-28.027 -98.257)" fill="#070203"/>
            <path id="パス_1530" data-name="パス 1530" d="M219.562,132.915a.7.7,0,0,1,.14-1.4,3.559,3.559,0,0,1,3.963,2.834,6.253,6.253,0,0,1,.168,2.225,7.818,7.818,0,0,1-.646,2.367,8.364,8.364,0,0,1-1.338,2.113,12.973,12.973,0,0,1-3.719,2.669.7.7,0,0,1-.676-1.231,11.9,11.9,0,0,0,3.34-2.367,6.935,6.935,0,0,0,1.113-1.75,6.411,6.411,0,0,0,.531-1.938,4.852,4.852,0,0,0-.13-1.725,2.764,2.764,0,0,0-.61-1.194,3.1,3.1,0,0,0-2.081-.6l-.054,0" transform="translate(-160.405 -97.175)" fill="#070203"/>
            <path id="パス_1531" data-name="パス 1531" d="M95.147,1.759a.7.7,0,0,1-.4,1.343h0a40.261,40.261,0,0,0-9.133-1.691,23.919,23.919,0,0,0-4.716.341,22.329,22.329,0,0,0-4.451,1.224,20,20,0,0,0-3.54,1.855,27.262,27.262,0,0,0-2.614,1.96,32.542,32.542,0,0,0-3.016,2.869.7.7,0,1,1-1.017-.968,33.784,33.784,0,0,1,3.131-2.978,28.6,28.6,0,0,1,2.746-2.058,21.419,21.419,0,0,1,3.793-1.982A23.761,23.761,0,0,1,80.662.368,25.31,25.31,0,0,1,85.654.01a41.229,41.229,0,0,1,9.451,1.735h0Z" transform="translate(-48.817 0)" fill="#070203"/>
            <path id="パス_1532" data-name="パス 1532" d="M30.339,46.984a.7.7,0,1,1,1.242.654,100.975,100.975,0,0,0-5.189,10.8,44.346,44.346,0,0,0-1.7,5.425A42.653,42.653,0,0,0,23.5,74.879a42.066,42.066,0,0,0,.485,5.494,37.389,37.389,0,0,0,1.255,5.449,25.507,25.507,0,0,0,1.875,4.515,21,21,0,0,0,2.239,3.305,19.657,19.657,0,0,0,2.767,2.769A8.224,8.224,0,0,0,35.335,98.1h0a.7.7,0,1,1-.34,1.364v0l-.033-.009a9.463,9.463,0,0,1-3.719-1.95,21.124,21.124,0,0,1-2.97-2.972,22.424,22.424,0,0,1-2.387-3.525A26.921,26.921,0,0,1,23.9,86.241a38.759,38.759,0,0,1-1.3-5.653,43.5,43.5,0,0,1-.5-5.681,43.85,43.85,0,0,1,1.232-11.378,45.724,45.724,0,0,1,1.748-5.6,102.125,102.125,0,0,1,5.26-10.949" transform="translate(-16.321 -34.439)" fill="#070203"/>
            <path id="パス_1533" data-name="パス 1533" d="M186.859,15.168a.7.7,0,0,1,.86-1.107l.019.015h0c3.145,2.542,6.291,5.085,9.027,9.341a42.394,42.394,0,0,1,3.646,7.286,54.769,54.769,0,0,1,2.566,8.471,50.8,50.8,0,0,1,1.042,7.732,53.166,53.166,0,0,1-.138,7.915,44.713,44.713,0,0,1-1.064,6.551,28.848,28.848,0,0,1-1.887,5.45,33.659,33.659,0,0,1-5.583,7.891.7.7,0,0,1-.475.239.727.727,0,0,1-.075,0,.7.7,0,0,1-.678-.62c0-.021,0-.042,0-.063a.7.7,0,0,1,.172-.482,32.583,32.583,0,0,0,5.374-7.567,27.461,27.461,0,0,0,1.794-5.186,43.243,43.243,0,0,0,1.031-6.342,51.756,51.756,0,0,0,.133-7.712,49.433,49.433,0,0,0-1.014-7.517,53.371,53.371,0,0,0-2.5-8.251,40.952,40.952,0,0,0-3.52-7.039c-2.614-4.068-5.669-6.537-8.724-9.006Z" transform="translate(-137.875 -10.286)" fill="#070203"/>
            <path id="パス_1534" data-name="パス 1534" d="M203.914,199.37a.7.7,0,1,1,1.358.363v0a22.067,22.067,0,0,1-1.759,4.882,21.555,21.555,0,0,1-1.589,2.485c-.563.775-1.22,1.608-1.877,2.44a.7.7,0,0,1-1.1-.868c.617-.781,1.234-1.563,1.839-2.4a20.322,20.322,0,0,0,1.49-2.32,21.025,21.025,0,0,0,1.638-4.585Z" transform="translate(-146.889 -146.928)" fill="#070203"/>
            <path id="パス_1535" data-name="パス 1535" d="M56.056,196.332a.7.7,0,0,1,1.341-.4l.012.039h0a21.032,21.032,0,0,0,1.638,4.587,20.313,20.313,0,0,0,1.49,2.32c.6.833,1.222,1.615,1.839,2.4a.7.7,0,0,1-1.1.868c-.657-.832-1.314-1.664-1.877-2.44a21.514,21.514,0,0,1-1.589-2.485,22.047,22.047,0,0,1-1.759-4.884Z" transform="translate(-41.401 -144.416)" fill="#070203"/>
            <path id="パス_1536" data-name="パス 1536" d="M139.21,171.616a.528.528,0,1,1,1.055,0v2.23a.528.528,0,1,1-1.055,0Z" transform="translate(-102.861 -126.415)" fill="#070203"/>
            <path id="パス_1537" data-name="パス 1537" d="M174.584,138.009a.527.527,0,1,1-.668.816,2.979,2.979,0,0,0-.8-.48,2.206,2.206,0,0,0-1.612,0,2.971,2.971,0,0,0-.8.48.527.527,0,1,1-.668-.816,4.015,4.015,0,0,1,1.089-.646,3.216,3.216,0,0,1,2.37,0,4.012,4.012,0,0,1,1.089.646" transform="translate(-125.495 -101.329)" fill="#070203"/>
            <path id="パス_1538" data-name="パス 1538" d="M94.459,138.826a.527.527,0,0,1-.668-.816,4,4,0,0,1,1.089-.646,3.215,3.215,0,0,1,2.37,0,4,4,0,0,1,1.089.646.527.527,0,0,1-.668.816,2.969,2.969,0,0,0-.8-.481,2.21,2.21,0,0,0-1.612,0,2.965,2.965,0,0,0-.8.481" transform="translate(-69.158 -101.33)" fill="#070203"/>
            <path id="パス_1539" data-name="パス 1539" d="M96.716,146.542c1.265,0,2.29,1.354,2.29,3.024s-1.025,3.024-2.29,3.024-2.291-1.354-2.291-3.024,1.026-3.024,2.291-3.024" transform="translate(-69.77 -108.279)" fill="#070203" fill-rule="evenodd"/>
            <path id="パス_1540" data-name="パス 1540" d="M172.661,146.542c1.265,0,2.29,1.354,2.29,3.024s-1.025,3.024-2.29,3.024-2.291-1.354-2.291-3.024,1.026-3.024,2.291-3.024" transform="translate(-125.885 -108.279)" fill="#070203" fill-rule="evenodd"/>
            <path id="パス_1541" data-name="パス 1541" d="M105.664,242.5a.7.7,0,1,1,1.4.06c-.05,1.124-.1,2.247-.2,3.312a15.542,15.542,0,0,1-.521,2.967c-.007.021-.014.041-.021.061a7.529,7.529,0,0,1-.957,2.015,5.514,5.514,0,0,1-1.5,1.512,3.662,3.662,0,0,1-1.39.558,6.253,6.253,0,0,1-1.178.079.7.7,0,1,1,0-1.407,5.439,5.439,0,0,0,.931-.051,2.289,2.289,0,0,0,.869-.354,4.1,4.1,0,0,0,1.1-1.127,6.122,6.122,0,0,0,.777-1.635c0-.019.009-.037.014-.056a14.119,14.119,0,0,0,.472-2.692c.1-1.02.147-2.13.2-3.241" transform="translate(-74.33 -178.685)" fill="#070203"/>
            <path id="パス_1542" data-name="パス 1542" d="M157.454,242.561a.7.7,0,1,1,1.4-.06c.049,1.11.1,2.221.2,3.241a14.19,14.19,0,0,0,.469,2.692,6.15,6.15,0,0,0,.793,1.69,4.1,4.1,0,0,0,1.105,1.127,2.284,2.284,0,0,0,.868.355,5.445,5.445,0,0,0,.931.051.7.7,0,1,1,0,1.407,6.252,6.252,0,0,1-1.178-.079,3.664,3.664,0,0,1-1.391-.558,5.521,5.521,0,0,1-1.5-1.511,7.554,7.554,0,0,1-.975-2.075,15.523,15.523,0,0,1-.524-2.967c-.1-1.065-.151-2.189-.2-3.312" transform="translate(-116.341 -178.685)" fill="#070203"/>
            <path id="パス_1543" data-name="パス 1543" d="M19.13,281.829a.7.7,0,0,1,.656,1.238v0a32.013,32.013,0,0,0-7.734,5.461,23.075,23.075,0,0,0-3.324,4.433,38.191,38.191,0,0,0-2.923,6.385c-.911,2.522-1.749,5.449-2.55,8.578-.611,2.386-1.214,4.949-1.815,7.551H0c.615-2.665,1.237-5.317,1.9-7.9.812-3.17,1.662-6.138,2.588-8.7a39.61,39.61,0,0,1,3.034-6.621,24.472,24.472,0,0,1,3.527-4.7,33.1,33.1,0,0,1,8.053-5.708v0Z" transform="translate(0 -208.186)" fill="#070203"/>
            <path id="パス_1544" data-name="パス 1544" d="M209.387,283.068a.7.7,0,0,1,.656-1.238l.03.016v0a33.085,33.085,0,0,1,8.052,5.708,24.472,24.472,0,0,1,3.527,4.7,39.614,39.614,0,0,1,3.033,6.621c.926,2.566,1.776,5.535,2.588,8.7.661,2.581,1.284,5.232,1.9,7.9h-1.441c-.6-2.6-1.2-5.165-1.815-7.551-.8-3.129-1.639-6.056-2.55-8.578a38.2,38.2,0,0,0-2.923-6.385,23.074,23.074,0,0,0-3.324-4.433,32,32,0,0,0-7.734-5.461Z" transform="translate(-154.449 -208.187)" fill="#070203"/>
            <path id="パス_1545" data-name="パス 1545" d="M44.143,337.361a.7.7,0,0,1,1.3-.522l.521,1.288a.7.7,0,0,1-1.3.522Zm1.563,3.866a.7.7,0,1,1,1.3-.522l.835,2.065a10.637,10.637,0,0,1,.976,4.687c.067,1.957.011,5.074-.066,8.395h-1.4c.077-3.31.133-6.417.067-8.351a9.551,9.551,0,0,0-.876-4.207Z" transform="translate(-32.579 -248.561)" fill="#070203"/>
            <path id="パス_1546" data-name="パス 1546" d="M227.268,336.838a.7.7,0,1,1,1.3.522l-.521,1.288a.7.7,0,0,1-1.3-.522ZM225.7,340.7a.7.7,0,1,1,1.3.522l-.836,2.067a9.548,9.548,0,0,0-.876,4.208c-.066,1.935-.01,5.041.067,8.351h-1.4c-.077-3.321-.133-6.438-.066-8.4a10.64,10.64,0,0,1,.976-4.687Z" transform="translate(-165.411 -248.561)" fill="#070203"/>
            <path id="パス_1547" data-name="パス 1547" d="M129.748,199.438a.7.7,0,0,1,.995.989,6.917,6.917,0,0,1-2.432,1.55,8.517,8.517,0,0,1-5.965,0,6.921,6.921,0,0,1-2.432-1.55.7.7,0,0,1,1-.989,5.5,5.5,0,0,0,1.938,1.225,7.133,7.133,0,0,0,4.964,0,5.5,5.5,0,0,0,1.938-1.225" transform="translate(-88.452 -147.21)" fill="#070203"/>
          </g>
        </g>
      </g>
    </g>
    <path id="パス_5077" data-name="パス 5077" d="M9-10.62a1.36,1.36,0,0,0,1.35-1.35A1.36,1.36,0,0,0,9-13.32a1.36,1.36,0,0,0-1.35,1.35A1.36,1.36,0,0,0,9-10.62ZM9-7.362,3.06-13.3l-.522.522,5.94,5.94L2.52-.882l.522.522L9-6.318l5.94,5.94L15.462-.9,9.522-6.84l5.94-5.94L14.94-13.3ZM5.22-6.84A1.36,1.36,0,0,0,3.87-8.19,1.36,1.36,0,0,0,2.52-6.84,1.36,1.36,0,0,0,3.87-5.49,1.36,1.36,0,0,0,5.22-6.84Zm7.56,0a1.36,1.36,0,0,0,1.35,1.35,1.36,1.36,0,0,0,1.35-1.35,1.36,1.36,0,0,0-1.35-1.35A1.36,1.36,0,0,0,12.78-6.84ZM9-3.06A1.36,1.36,0,0,0,7.65-1.71,1.36,1.36,0,0,0,9-.36a1.36,1.36,0,0,0,1.35-1.35A1.36,1.36,0,0,0,9-3.06ZM29.088-13.41a20.834,20.834,0,0,0,7.4,6.48,9.815,9.815,0,0,1,1.08-1.53A17.56,17.56,0,0,1,29.9-15.138H28.116a17.957,17.957,0,0,1-7.308,6.93,6.227,6.227,0,0,1,1.044,1.386A20.406,20.406,0,0,0,29.088-13.41Zm2.286,4.68V1.4H33.12V-8.73Zm-6.246.09v2.322A6.733,6.733,0,0,1,21.546.234a6.25,6.25,0,0,1,1.368,1.188c3.546-2.124,3.924-5.166,3.924-7.7V-8.64Zm21.24-5.868H41.886v1.314h4.482Zm.5,2.376H41.04V-10.8h5.832ZM45.036-3.51V-.918H43.074V-3.51Zm1.35-1.35H41.742V1.188h1.332V.4h3.312ZM41.778-5.976H46.4V-7.29H41.778Zm0-3.708v1.3H46.4v-1.3ZM53.46-12.87v.828l-1.026-.18a9.9,9.9,0,0,1-.522,1.314h-2.16c.18-.342.342-.684.5-1.026h.792v-.936ZM51.93-9.108H49.77v-.7h2.16Zm0,1.638H49.77v-.72h2.16Zm0,1.656H49.77V-6.57h2.16Zm-3.636,1.1H57.33v-1.1H53.388V-6.57H56.5v-.9H53.388v-.72H56.5v-.918H53.388v-.7H56.9v-1.1H53.406c.18-.306.36-.666.54-1.026H54.99v-.936h2.376v-1.206H54.99V-15.12H53.46v1.044H51.048V-15.12H49.554v1.044H47.106v1.206h2.448v.738l-.648-.162A9.416,9.416,0,0,1,46.4-8.82a6.731,6.731,0,0,1,1.1.882,8.952,8.952,0,0,0,.792-.846ZM54.45-2.808a8.1,8.1,0,0,1-2.124,1.476A7.392,7.392,0,0,1,50.2-2.808Zm1.368-1.3-.27.054H47.376v1.242h2.286l-.954.378A8.7,8.7,0,0,0,50.724-.684,20.8,20.8,0,0,1,46.512.18,4.855,4.855,0,0,1,47.2,1.458,22.328,22.328,0,0,0,52.272.144,17.15,17.15,0,0,0,56.736,1.4,5.563,5.563,0,0,1,57.69.09,21.371,21.371,0,0,1,53.928-.7,8.025,8.025,0,0,0,56.79-3.6Zm21.15-2.214A6.663,6.663,0,0,0,69.912-13.1a7.8,7.8,0,0,0-8.046,7.488c0,3.006,1.638,4.986,3.42,4.986s3.276-2.034,4.356-5.706a35.842,35.842,0,0,0,1.08-5.058,4.786,4.786,0,0,1,4.356,5.022A5.177,5.177,0,0,1,70.722-1.26a11.125,11.125,0,0,1-1.6.252L70.182.684C74.556.054,76.968-2.538,76.968-6.318ZM63.684-5.8a6.017,6.017,0,0,1,5.13-5.562,28.657,28.657,0,0,1-.99,4.644C67-3.942,66.15-2.772,65.34-2.772,64.566-2.772,63.684-3.726,63.684-5.8ZM88.038-8.73c2.142-.5,3.33-1.26,4.014-2.358A5.33,5.33,0,0,0,95.346-8.73ZM93.96-6.66H85.518V-7.668H93.96Zm0,2.034H85.518V-5.652H93.96Zm0,2.07H85.518V-3.6H93.96Zm-2.844-10.08c-.414,1.476-1.44,2.34-4.338,2.808a4.347,4.347,0,0,1,.738,1.1H83.9v7.236H95.634V-8.64c.414.108.882.216,1.386.306A4.693,4.693,0,0,1,97.866-9.7c-3.654-.486-4.662-1.638-5.058-2.934h2.484a8.631,8.631,0,0,1-.9,1.224L95.706-11a11.375,11.375,0,0,0,1.746-2.61L96.336-13.9l-.252.054H90.306a9.591,9.591,0,0,0,.558-1.026L89.352-15.1a7.5,7.5,0,0,1-2.664,3.15,4.865,4.865,0,0,1,1.26.81,8.614,8.614,0,0,0,1.53-1.494Zm-4.3-.792a22.2,22.2,0,0,0-3.762-1.332l-.738,1.134a24.875,24.875,0,0,1,3.762,1.476Zm-.27,1.98c-1.854.486-3.762.99-5.076,1.26l.666,1.476c1.332-.414,3.006-.9,4.572-1.422Zm.288,9.99A19.68,19.68,0,0,1,81.594.234a11.76,11.76,0,0,1,1.26,1.242A23.845,23.845,0,0,0,88.362-.756Zm4.1.882A36.381,36.381,0,0,1,95.76,1.458L97.686.666A56.86,56.86,0,0,0,92.3-1.422Zm19.44-4.59a15.008,15.008,0,0,0,2.574-1.8,13.546,13.546,0,0,0,2.664,1.8Zm.27,4.428V-3.744h4.446V-.738Zm-2.538-5.778c-.342-.414-1.746-2.142-2.232-2.664v-.612h1.548l-.126.108a8.77,8.77,0,0,1,1.3,1.116,15.807,15.807,0,0,0,1.584-1.674,13.788,13.788,0,0,0,1.638,2.178,14.157,14.157,0,0,1-4.428,2.538Zm6.66-5.238a11.4,11.4,0,0,1-1.854,2.664,10.772,10.772,0,0,1-1.8-2.412l.162-.252Zm1.062-1.512-.306.072H112.1a15.913,15.913,0,0,0,.684-1.494l-1.6-.432a13.227,13.227,0,0,1-3.114,4.752v-.972h-2.2V-15.1H104.31v3.762h-2.538v1.548h2.376a19.01,19.01,0,0,1-2.79,6.462,7.009,7.009,0,0,1,.81,1.494,17.491,17.491,0,0,0,2.142-4.536V1.4h1.566V-7.29c.432.648.9,1.368,1.17,1.872l-.108.036a6.149,6.149,0,0,1,.954,1.35c.414-.144.81-.306,1.206-.486v5.94h1.548V.72h4.446v.648h1.62v-6.03c.2.09.4.162.594.234a7.3,7.3,0,0,1,1.044-1.4,12.383,12.383,0,0,1-4.284-2.214,12.983,12.983,0,0,0,2.808-4.734Zm13.266.918.018,1.836a45.875,45.875,0,0,0,7.542,0v-1.836A33.17,33.17,0,0,1,129.1-12.348Zm1.026,7.488L128.5-5A9.117,9.117,0,0,0,128.2-2.79c0,1.746,1.4,2.808,4.464,2.808a24.7,24.7,0,0,0,4.554-.36l-.036-1.926a19.329,19.329,0,0,1-4.482.486c-2.178,0-2.808-.666-2.808-1.476A6.253,6.253,0,0,1,130.122-4.86Zm-4.158-8.784-2-.18a13.084,13.084,0,0,1-.162,1.494,51.944,51.944,0,0,0-.774,7.182A22.873,22.873,0,0,0,123.7.666l1.638-.108c-.018-.216-.036-.486-.036-.666a3.519,3.519,0,0,1,.09-.828c.18-.9.81-2.826,1.278-4.194l-.9-.72c-.288.666-.648,1.548-.954,2.286A17.761,17.761,0,0,1,124.7-5.49a43.168,43.168,0,0,1,.882-6.786A12.909,12.909,0,0,1,125.964-13.644ZM147.4-10.3a24.1,24.1,0,0,1-.99,4.176c-.864-1.044-1.764-2.088-2.628-2.988l-1.17.954a46.778,46.778,0,0,1,3.078,3.744,10.475,10.475,0,0,1-4,4.392,9.279,9.279,0,0,1,1.134,1.3,12.175,12.175,0,0,0,3.888-4.23,18.183,18.183,0,0,1,1.4,2.43l1.35-1.134a22,22,0,0,0-1.926-3.006,24.4,24.4,0,0,0,1.494-5.418Zm10.944-.666h-2.034V-15.1h-1.656v4.14H150.5V-12.24h-3.474v-2.844H145.4v2.844h-3.276v1.548h7.812v1.35h4.716V-.756c0,.306-.126.4-.432.4-.306.018-1.278.018-2.358-.018a7.737,7.737,0,0,1,.54,1.782,8.5,8.5,0,0,0,3.1-.342c.576-.306.81-.792.81-1.818V-9.342h2.034ZM153.306-3.8a13.535,13.535,0,0,0-1.962-3.87l-1.368.648a14.986,14.986,0,0,1,1.89,3.942ZM167.652-14.13l-2.3-.018a10.416,10.416,0,0,1,.2,2.088c0,1.728-.18,6.372-.18,8.928,0,2.988,1.836,4.158,4.572,4.158a9.141,9.141,0,0,0,7.65-4.032L176.31-4.572a7.376,7.376,0,0,1-6.336,3.708c-1.566,0-2.736-.648-2.736-2.556,0-2.484.126-6.642.216-8.64A16.421,16.421,0,0,1,167.652-14.13Zm14.67,1.98.2,1.98c2-.432,6.192-.864,8.01-1.062a7.248,7.248,0,0,0-3.06,5.85c0,3.978,3.69,5.868,7.218,6.03l.666-1.908c-2.988-.126-6.048-1.224-6.048-4.5a5.968,5.968,0,0,1,4-5.418,16.056,16.056,0,0,1,3.492-.27v-1.818c-1.242.054-3.042.162-4.968.324-3.312.27-6.516.576-7.83.7C183.654-12.2,183.024-12.168,182.322-12.15Zm35.226,5.832a6.663,6.663,0,0,0-7.056-6.786,7.8,7.8,0,0,0-8.046,7.488c0,3.006,1.638,4.986,3.42,4.986s3.276-2.034,4.356-5.706a35.842,35.842,0,0,0,1.08-5.058,4.786,4.786,0,0,1,4.356,5.022A5.177,5.177,0,0,1,211.3-1.26a11.125,11.125,0,0,1-1.6.252L210.762.684C215.136.054,217.548-2.538,217.548-6.318ZM204.264-5.8a6.017,6.017,0,0,1,5.13-5.562,28.656,28.656,0,0,1-.99,4.644c-.828,2.772-1.674,3.942-2.484,3.942C205.146-2.772,204.264-3.726,204.264-5.8ZM238.338-5.9H231.12V-8.46h6.192v-1.6H231.12v-2.646a37.22,37.22,0,0,0,5.526-1.008L235.4-15.084a63.422,63.422,0,0,1-12.132,1.476,5,5,0,0,1,.4,1.458c1.818-.072,3.78-.2,5.706-.36v2.448h-6.012v1.6h6.012V-5.9h-7.236v1.638h7.236v3.51c0,.378-.144.5-.54.5-.414.018-1.854.018-3.294-.036a7.254,7.254,0,0,1,.7,1.656,12.627,12.627,0,0,0,3.816-.288c.756-.252,1.062-.72,1.062-1.818V-4.266h7.218Zm17.172-8.622a26.954,26.954,0,0,1-2.16,4.464l1.476.54a38.9,38.9,0,0,0,2.5-4.41Zm-8.19,4.212a15.852,15.852,0,0,0-2.286-4.05l-1.512.612a16.007,16.007,0,0,1,2.2,4.14Zm3.96-4.788h-1.818v6.246h-5.634v1.674h11.466v2.2H244.44v1.6h10.854v2.376H243.468V.666h11.826v.756h1.782V-8.856h-5.8Zm18.54.72-1.98-.2a14.69,14.69,0,0,1-.522,3.078c-.63.054-1.26.072-1.854.072-.72,0-1.584-.036-2.286-.108l.126,1.674c.72.036,1.476.054,2.16.054.432,0,.864-.018,1.314-.036A27.032,27.032,0,0,1,263-3.276l1.728.882a32.206,32.206,0,0,0,3.906-7.65,24.161,24.161,0,0,0,3.222-.648l-.054-1.656a17.211,17.211,0,0,1-2.646.612C269.424-12.744,269.676-13.752,269.82-14.382Zm-.972,12.474c0-.738.81-1.278,2-1.278a6.267,6.267,0,0,1,1.674.234c.018.234.018.45.018.612,0,.972-.45,1.728-1.818,1.728C269.5-.612,268.848-1.134,268.848-1.908Zm5.2-6.894h-1.764c.036,1.188.126,2.88.18,4.3a10.32,10.32,0,0,0-1.53-.126c-2.232,0-3.762,1.188-3.762,2.88,0,1.872,1.692,2.772,3.78,2.772,2.376,0,3.294-1.242,3.294-2.772v-.5a14.048,14.048,0,0,1,2.7,2.016l.954-1.53a11.729,11.729,0,0,0-3.726-2.268c-.054-1.026-.108-2.07-.126-2.664C274.032-7.416,274.014-8.046,274.05-8.8Zm3.384.684,1.026-1.494a31.866,31.866,0,0,0-4.32-2.412l-.918,1.386A22.889,22.889,0,0,1,277.434-8.118Zm10.638-6.012-2.3-.018a10.416,10.416,0,0,1,.2,2.088c0,1.728-.18,6.372-.18,8.928,0,2.988,1.836,4.158,4.572,4.158a9.141,9.141,0,0,0,7.65-4.032L296.73-4.572a7.376,7.376,0,0,1-6.336,3.708c-1.566,0-2.736-.648-2.736-2.556,0-2.484.126-6.642.216-8.64A16.412,16.412,0,0,1,288.072-14.13Z" transform="translate(550 2547)" fill="#039e8e"/>
    <g id="グループ_8043" data-name="グループ 8043" transform="translate(-10.209 -2.327)">
      <path id="パス_4314" data-name="パス 4314" d="M63.1,0A59.9,59.9,0,0,0,16,96.905a27.684,27.684,0,0,1-14.822,6.768,1.315,1.315,0,0,0-.431,2.487c7.513,3.163,15.379,4.46,25.243.755A59.9,59.9,0,1,0,63.1,0" transform="translate(766.209 2343.764) rotate(-3)" fill="#fff" stroke="#333" stroke-width="3"/>
      <g id="グループ_8039" data-name="グループ 8039" transform="translate(794.078 2368.318)">
        <g id="グループ_8028" data-name="グループ 8028" transform="translate(0 14.695)">
          <g transform="matrix(1, 0, 0, 1, -263.87, -106.69)" filter="url(#パス_5072)">
            <path id="パス_5072-2" data-name="パス 5072" d="M1.419,0H17.787V-4.092h-5.28c-1.155,0-2.772.132-3.993.264,4.455-4.356,8.118-9.108,8.118-13.53,0-4.554-3.069-7.524-7.689-7.524-3.333,0-5.511,1.287-7.755,3.7l2.64,2.64c1.254-1.353,2.706-2.508,4.488-2.508,2.343,0,3.663,1.485,3.663,3.96,0,3.762-3.927,8.349-10.56,14.289ZM29.172.462c4.983,0,8.25-4.356,8.25-12.771s-3.267-12.573-8.25-12.573-8.283,4.125-8.283,12.573C20.889-3.894,24.189.462,29.172.462Zm0-3.8c-2.112,0-3.7-2.112-3.7-8.976,0-6.831,1.584-8.811,3.7-8.811s3.663,1.98,3.663,8.811C32.835-5.445,31.284-3.333,29.172-3.333Z" transform="translate(263.87 144.69)" fill="#039e8e"/>
          </g>
          <g transform="matrix(1, 0, 0, 1, -263.87, -106.69)" filter="url(#パス_5073)">
            <path id="パス_5073-2" data-name="パス 5073" d="M18.8-13.24v-2.34H1.22v2.34H5.88C5.74-8.42,5.58-3.1.44-.22A7.117,7.117,0,0,1,2.16,1.7C5.88-.54,7.32-4,7.94-7.7H14.6c-.22,4.28-.54,6.24-1.06,6.74a1.286,1.286,0,0,1-.94.26c-.6,0-1.96,0-3.34-.12a5.716,5.716,0,0,1,.84,2.34,24.448,24.448,0,0,0,3.48-.02,2.9,2.9,0,0,0,2.14-1c.78-.88,1.12-3.3,1.42-9.44.04-.3.06-1.06.06-1.06H8.22c.1-1.08.14-2.18.18-3.24ZM31.12-8.28v-5.04h5v5.04Zm-7.08-5.04h4.72v5.04H24.04Zm14.48-2.36H21.64V1.72h2.4V-5.92H36.12v4.84c0,.34-.14.46-.52.48-.4,0-1.7.02-2.84-.06a9.721,9.721,0,0,1,.86,2.38,9.24,9.24,0,0,0,3.78-.44C38.24.9,38.52.24,38.52-1.06Z" transform="translate(303.06 143.05)" fill="#333"/>
          </g>
        </g>
        <path id="パス_5074" data-name="パス 5074" d="M4.575-4.905c.06-.63.09-1.26.105-1.83H10.7v1.83ZM10.7-10.26v1.83H4.68v-1.83ZM12.585-12H2.835v4.935c0,2.28-.21,5.145-2.475,7.08a7.045,7.045,0,0,1,1.38,1.29A8.069,8.069,0,0,0,4.275-3.18H10.7V-1c0,.315-.12.435-.48.435-.33,0-1.59.015-2.64-.045a7.657,7.657,0,0,1,.75,1.875A9.074,9.074,0,0,0,11.64.915c.69-.3.945-.81.945-1.89Zm17.13.24-.3.06H23.3v1.755H28.89A17.564,17.564,0,0,1,27.15-4.74a19.281,19.281,0,0,1-1.665-5.085l-1.71.3A22.846,22.846,0,0,0,26.01-3,9.6,9.6,0,0,1,22.77-.285v-12.33H21.03V-4.23l-1.14.27v-7.005H18.225V-3.57c-.375.075-.72.15-1.035.21l.405,1.83c1.02-.27,2.235-.585,3.435-.93V1.29h1.74V-.24a6.779,6.779,0,0,1,1.185,1.515,11.951,11.951,0,0,0,3.165-2.6,10.025,10.025,0,0,0,3.09,2.61A6.45,6.45,0,0,1,31.485-.27,8.708,8.708,0,0,1,28.29-2.925a20.613,20.613,0,0,0,2.64-8.49Z" transform="translate(21.375 17)" fill="#039e8e"/>
      </g>
    </g>
  </g>
</svg>
