<svg xmlns="http://www.w3.org/2000/svg" xmlns:xlink="http://www.w3.org/1999/xlink" width="374.724" height="303" viewBox="0 0 374.724 303">
  <defs>
    <clipPath id="clip-path">
      <circle id="楕円形_48" data-name="楕円形 48" cx="56" cy="56" r="56" transform="translate(0)" fill="#fff" stroke="#ef9f00" stroke-width="5"/>
    </clipPath>
    <clipPath id="clip-path-2">
      <rect id="長方形_23940" data-name="長方形 23940" width="81.322" height="108.91" fill="none"/>
    </clipPath>
    <filter id="パス_5082" x="263.544" y="118.558" width="73.36" height="26.576" filterUnits="userSpaceOnUse">
      <feOffset input="SourceAlpha"/>
      <feGaussianBlur result="blur"/>
      <feFlood flood-opacity="0.161"/>
      <feComposite operator="in" in2="blur"/>
      <feComposite in="SourceGraphic"/>
    </filter>
    <filter id="パス_5083" x="342.666" y="127.149" width="16.036" height="16.53" filterUnits="userSpaceOnUse">
      <feOffset input="SourceAlpha"/>
      <feGaussianBlur result="blur-2"/>
      <feFlood flood-opacity="0.161"/>
      <feComposite operator="in" in2="blur-2"/>
      <feComposite in="SourceGraphic"/>
    </filter>
  </defs>
  <g id="グループ_10798" data-name="グループ 10798" transform="translate(866.148 -3234.5)">
    <g id="長方形_23931" data-name="長方形 23931" transform="translate(-866.148 3234.5)" fill="#fef36b" stroke="#ef9f00" stroke-width="5">
      <rect width="360" height="303" stroke="none"/>
      <rect x="2.5" y="2.5" width="355" height="298" fill="none"/>
    </g>
    <path id="パス_5080" data-name="パス 5080" d="M4.86-15.048A19.234,19.234,0,0,1,.468-8.154,9.907,9.907,0,0,1,1.4-6.462a19.221,19.221,0,0,0,1.674-2V1.386H4.662V-10.89a32.433,32.433,0,0,0,1.764-3.654ZM8.478-12.8h6.066v2.9H8.478Zm8.676,7.866V-6.444h-4.86V-8.406h3.924v-5.868H6.912v5.868H10.62v1.962H5.652v1.512H9.738A13.2,13.2,0,0,1,5.076-.648,7.381,7.381,0,0,1,6.228.684,14.646,14.646,0,0,0,10.62-3.672V1.44h1.674v-5.2A15.451,15.451,0,0,0,16.47.72,7.481,7.481,0,0,1,17.64-.612a13.379,13.379,0,0,1-4.446-4.32Zm16.182-1.53H26.3V-8.028h7.038ZM26.3-3.492V-5.058h7.038v1.566Zm10.746-7.794v-1.566H28.1c.234-.612.432-1.242.63-1.854l-1.71-.4a19.445,19.445,0,0,1-.756,2.25H21.33v1.566h4.248a14.923,14.923,0,0,1-4.734,5.652,9.3,9.3,0,0,1,1.1,1.3,14.149,14.149,0,0,0,2.7-2.484V1.422H26.3v-3.51h7.038V-.54c0,.27-.09.36-.4.36-.306.018-1.386.018-2.448-.036a6.288,6.288,0,0,1,.522,1.62,9.284,9.284,0,0,0,3.132-.27c.648-.252.828-.756.828-1.656V-9.486H26.5c.324-.576.648-1.188.936-1.8ZM47.718-8.73c2.142-.5,3.33-1.26,4.014-2.358A5.33,5.33,0,0,0,55.026-8.73ZM53.64-6.66H45.2V-7.668H53.64Zm0,2.034H45.2V-5.652H53.64Zm0,2.07H45.2V-3.6H53.64ZM50.8-12.636c-.414,1.476-1.44,2.34-4.338,2.808a4.347,4.347,0,0,1,.738,1.1H43.578v7.236H55.314V-8.64c.414.108.882.216,1.386.306A4.693,4.693,0,0,1,57.546-9.7c-3.654-.486-4.662-1.638-5.058-2.934h2.484a8.631,8.631,0,0,1-.9,1.224L55.386-11a11.376,11.376,0,0,0,1.746-2.61L56.016-13.9l-.252.054H49.986a9.591,9.591,0,0,0,.558-1.026L49.032-15.1a7.5,7.5,0,0,1-2.664,3.15,4.865,4.865,0,0,1,1.26.81,8.615,8.615,0,0,0,1.53-1.494Zm-4.3-.792a22.2,22.2,0,0,0-3.762-1.332l-.738,1.134a24.875,24.875,0,0,1,3.762,1.476Zm-.27,1.98c-1.854.486-3.762.99-5.076,1.26l.666,1.476c1.332-.414,3.006-.9,4.572-1.422Zm.288,9.99A19.68,19.68,0,0,1,41.274.234a11.761,11.761,0,0,1,1.26,1.242A23.845,23.845,0,0,0,48.042-.756Zm4.1.882A36.382,36.382,0,0,1,55.44,1.458L57.366.666a56.86,56.86,0,0,0-5.382-2.088Zm19.44-4.59a15.008,15.008,0,0,0,2.574-1.8,13.546,13.546,0,0,0,2.664,1.8Zm.27,4.428V-3.744h4.446V-.738ZM67.788-6.516c-.342-.414-1.746-2.142-2.232-2.664v-.612H67.1l-.126.108a8.77,8.77,0,0,1,1.3,1.116,15.808,15.808,0,0,0,1.584-1.674A13.787,13.787,0,0,0,71.5-8.064a14.157,14.157,0,0,1-4.428,2.538Zm6.66-5.238A11.4,11.4,0,0,1,72.594-9.09a10.772,10.772,0,0,1-1.8-2.412l.162-.252Zm1.062-1.512-.306.072h-3.42a15.911,15.911,0,0,0,.684-1.494l-1.6-.432a13.227,13.227,0,0,1-3.114,4.752v-.972h-2.2V-15.1H63.99v3.762H61.452v1.548h2.376a19.01,19.01,0,0,1-2.79,6.462,7.009,7.009,0,0,1,.81,1.494A17.491,17.491,0,0,0,63.99-6.372V1.4h1.566V-7.29c.432.648.9,1.368,1.17,1.872l-.108.036a6.149,6.149,0,0,1,.954,1.35c.414-.144.81-.306,1.206-.486v5.94h1.548V.72h4.446v.648h1.62v-6.03c.2.09.4.162.594.234a7.3,7.3,0,0,1,1.044-1.4,12.383,12.383,0,0,1-4.284-2.214,12.983,12.983,0,0,0,2.808-4.734Zm14.13,3.69a1.472,1.472,0,0,0,1.512-1.494,1.487,1.487,0,0,0-1.512-1.512,1.487,1.487,0,0,0-1.512,1.512A1.472,1.472,0,0,0,89.64-9.576Zm0,8.712A1.468,1.468,0,0,0,91.152-2.34,1.476,1.476,0,0,0,89.64-3.852,1.476,1.476,0,0,0,88.128-2.34,1.468,1.468,0,0,0,89.64-.864ZM112.068-5.2v1.566h-2.286V-5.2Zm3.942,1.566H113.6V-5.2h2.412ZM113.6-.738v-1.62h2.412v1.62Zm-3.816-1.62h2.286v1.62h-2.286Zm-1.548-3.348c-.5-.45-1.512-1.368-2.052-1.8a17.559,17.559,0,0,0,1.962-3.726l-.936-.612-.288.054H105.8V-15.1h-1.656v3.312h-2.3v1.512h4.248a14.241,14.241,0,0,1-4.9,5.526,7.384,7.384,0,0,1,.81,1.548,15.115,15.115,0,0,0,2.142-1.836V1.4H105.8V-6.048c.594.63,1.278,1.422,1.638,1.89l.792-1.1V1.4h1.548V.612h6.228v.756h1.6V-6.588h-9.378Zm7.038-3.168h-4.626v-1.674h4.626Zm-6.12-2.988v4.284h7.668v-4.284Zm-1.008-2.43v1.422H117.7v-1.422Zm20.9,9.162c-.378-.378-1.764-1.692-2.556-2.376a17.344,17.344,0,0,0,2.016-3.726l-.936-.612-.288.054h-1.17V-15.1H124.47v3.312H122v1.512h4.428a14.382,14.382,0,0,1-5.076,5.526,7.859,7.859,0,0,1,.81,1.548,15.749,15.749,0,0,0,2.3-1.926V1.422h1.638V-5.94a24.274,24.274,0,0,1,1.89,2.2Zm5.634,4.59V-7.146h3.186v-1.6h-3.186v-6.084h-1.692V-.54h-2V-10.926H129.33V-.54h-1.692V1.08h10.656V-.54Zm13.158-12.636v1.17h-3.456v-1.17Zm-3.456,3.51v-1.242h3.456v1.242ZM149.4-8.5v-5.886h-6.678v15.8h1.656V-8.5Zm2.988-1.152v-1.26h3.564v1.26Zm3.564-3.528v1.17h-3.564v-1.17Zm1.656-1.206h-6.822V-8.46h5.166V-.468c0,.234-.072.324-.288.324-.2,0-.774,0-1.368-.018a3.927,3.927,0,0,1,.432-.486A5.579,5.579,0,0,1,151-2.934h3.69V-4.158h-3.978V-5.364h3.726V-6.588h-1.872c.27-.4.576-.846.846-1.3l-1.512-.45a14.232,14.232,0,0,1-.756,1.746H149a6.224,6.224,0,0,0-.918-1.728l-1.278.4a6.748,6.748,0,0,1,.7,1.332h-1.692v1.224h3.4v1.206h-3.69v1.224h3.438c-.4.882-1.368,1.8-3.672,2.412a5.654,5.654,0,0,1,.99,1.116,6.586,6.586,0,0,0,3.852-2.52,6.306,6.306,0,0,0,3.672,2.5,5.147,5.147,0,0,1,.342-.54A7.9,7.9,0,0,1,154.53,1.4a5.522,5.522,0,0,0,2.394-.288c.54-.27.684-.738.684-1.584Zm8.064-.63a19.954,19.954,0,0,1-4.086,6.984,10.4,10.4,0,0,1,.9,1.71,19.675,19.675,0,0,0,1.62-2.07v9.81h1.62V-11.124a28.536,28.536,0,0,0,1.494-3.42Zm3.2,11.448a12.986,12.986,0,0,1-2.412,3.42,9.072,9.072,0,0,1,1.26.846,16.574,16.574,0,0,0,2.682-3.8Zm9.99-.792a17.535,17.535,0,0,0-2.772-4.1l-1.35.594c.4.486.81,1.026,1.188,1.584-1.386.054-2.772.09-4.1.126a52.037,52.037,0,0,0,4.41-4.752l-1.548-.7a33.42,33.42,0,0,1-2.9,3.51,14.914,14.914,0,0,0-1.44-1.17c.792-.864,1.728-2.052,2.556-3.1l-.108-.054a39.978,39.978,0,0,0,4.878-.936l-1.134-1.332a56.066,56.066,0,0,1-9.36,1.458,5.289,5.289,0,0,1,.45,1.332c1.008-.072,2.07-.162,3.15-.27-.468.72-1.008,1.512-1.512,2.142-.378-.234-.756-.468-1.1-.666l-.972,1.08a19.953,19.953,0,0,1,3.492,2.646q-.459.459-.918.864c-1.206.036-2.286.054-3.2.072l.252,1.6c1.368-.054,3.006-.126,4.788-.2V1.4h1.674V-4.7l3.528-.162a8.985,8.985,0,0,1,.594,1.17ZM174.582-2.97a15.839,15.839,0,0,1,2.43,3.6l1.44-.756a18.1,18.1,0,0,0-2.52-3.492Zm23.346-3.348a6.663,6.663,0,0,0-7.056-6.786,7.8,7.8,0,0,0-8.046,7.488c0,3.006,1.638,4.986,3.42,4.986s3.276-2.034,4.356-5.706a35.842,35.842,0,0,0,1.08-5.058,4.786,4.786,0,0,1,4.356,5.022,5.177,5.177,0,0,1-4.356,5.112,11.125,11.125,0,0,1-1.6.252L191.142.684C195.516.054,197.928-2.538,197.928-6.318ZM184.644-5.8a6.017,6.017,0,0,1,5.13-5.562,28.656,28.656,0,0,1-.99,4.644c-.828,2.772-1.674,3.942-2.484,3.942C185.526-2.772,184.644-3.726,184.644-5.8ZM209-8.73c2.142-.5,3.33-1.26,4.014-2.358a5.33,5.33,0,0,0,3.294,2.358Zm5.922,2.07h-8.442V-7.668h8.442Zm0,2.034h-8.442V-5.652h8.442Zm0,2.07h-8.442V-3.6h8.442Zm-2.844-10.08c-.414,1.476-1.44,2.34-4.338,2.808a4.347,4.347,0,0,1,.738,1.1h-3.618v7.236h11.736V-8.64c.414.108.882.216,1.386.306a4.693,4.693,0,0,1,.846-1.368c-3.654-.486-4.662-1.638-5.058-2.934h2.484a8.63,8.63,0,0,1-.9,1.224l1.314.414a11.375,11.375,0,0,0,1.746-2.61L217.3-13.9l-.252.054h-5.778a9.591,9.591,0,0,0,.558-1.026l-1.512-.234a7.5,7.5,0,0,1-2.664,3.15,4.865,4.865,0,0,1,1.26.81,8.614,8.614,0,0,0,1.53-1.494Zm-4.3-.792a22.2,22.2,0,0,0-3.762-1.332l-.738,1.134a24.875,24.875,0,0,1,3.762,1.476Zm-.27,1.98c-1.854.486-3.762.99-5.076,1.26l.666,1.476c1.332-.414,3.006-.9,4.572-1.422Zm.288,9.99A19.68,19.68,0,0,1,202.554.234a11.761,11.761,0,0,1,1.26,1.242,23.845,23.845,0,0,0,5.508-2.232Zm4.1.882a36.381,36.381,0,0,1,4.824,2.034l1.926-.792a56.861,56.861,0,0,0-5.382-2.088Zm19.44-4.59a15.008,15.008,0,0,0,2.574-1.8,13.546,13.546,0,0,0,2.664,1.8Zm.27,4.428V-3.744h4.446V-.738Zm-2.538-5.778c-.342-.414-1.746-2.142-2.232-2.664v-.612h1.548l-.126.108a8.77,8.77,0,0,1,1.3,1.116,15.809,15.809,0,0,0,1.584-1.674,13.787,13.787,0,0,0,1.638,2.178,14.157,14.157,0,0,1-4.428,2.538Zm6.66-5.238a11.4,11.4,0,0,1-1.854,2.664,10.772,10.772,0,0,1-1.8-2.412l.162-.252Zm1.062-1.512-.306.072h-3.42a15.917,15.917,0,0,0,.684-1.494l-1.6-.432a13.227,13.227,0,0,1-3.114,4.752v-.972h-2.2V-15.1H225.27v3.762h-2.538v1.548h2.376a19.01,19.01,0,0,1-2.79,6.462,7.009,7.009,0,0,1,.81,1.494,17.49,17.49,0,0,0,2.142-4.536V1.4h1.566V-7.29c.432.648.9,1.368,1.17,1.872l-.108.036a6.149,6.149,0,0,1,.954,1.35c.414-.144.81-.306,1.206-.486v5.94h1.548V.72h4.446v.648h1.62v-6.03c.2.09.4.162.594.234a7.3,7.3,0,0,1,1.044-1.4,12.383,12.383,0,0,1-4.284-2.214,12.983,12.983,0,0,0,2.808-4.734Zm13.41-1.116-1.98-.2A14.69,14.69,0,0,1,247.7-11.5c-.63.054-1.26.072-1.854.072-.72,0-1.584-.036-2.286-.108l.126,1.674c.72.036,1.476.054,2.16.054.432,0,.864-.018,1.314-.036a27.032,27.032,0,0,1-3.78,6.57l1.728.882a32.2,32.2,0,0,0,3.906-7.65,24.161,24.161,0,0,0,3.222-.648l-.054-1.656a17.21,17.21,0,0,1-2.646.612C249.8-12.744,250.056-13.752,250.2-14.382Zm-.972,12.474c0-.738.81-1.278,2-1.278a6.267,6.267,0,0,1,1.674.234c.018.234.018.45.018.612,0,.972-.45,1.728-1.818,1.728C249.876-.612,249.228-1.134,249.228-1.908Zm5.2-6.894h-1.764c.036,1.188.126,2.88.18,4.3a10.32,10.32,0,0,0-1.53-.126c-2.232,0-3.762,1.188-3.762,2.88,0,1.872,1.692,2.772,3.78,2.772,2.376,0,3.294-1.242,3.294-2.772v-.5a14.048,14.048,0,0,1,2.7,2.016l.954-1.53a11.73,11.73,0,0,0-3.726-2.268c-.054-1.026-.108-2.07-.126-2.664C254.412-7.416,254.394-8.046,254.43-8.8Zm3.384.684,1.026-1.494a31.866,31.866,0,0,0-4.32-2.412l-.918,1.386A22.889,22.889,0,0,1,257.814-8.118Zm10.638-6.012-2.3-.018a10.416,10.416,0,0,1,.2,2.088c0,1.728-.18,6.372-.18,8.928,0,2.988,1.836,4.158,4.572,4.158a9.141,9.141,0,0,0,7.65-4.032L277.11-4.572a7.376,7.376,0,0,1-6.336,3.708c-1.566,0-2.736-.648-2.736-2.556,0-2.484.126-6.642.216-8.64A16.412,16.412,0,0,1,268.452-14.13Z" transform="translate(-826.148 3466.5)" fill="#333"/>
    <path id="パス_1732" data-name="パス 1732" d="M22,0H198c12.15,0,22,8.954,22,20s-9.85,20-22,20H22C9.85,40,0,31.046,0,20S9.85,0,22,0Z" transform="translate(-796.148 3257.5)" fill="#ef9f00"/>
    <path id="パス_5081" data-name="パス 5081" d="M-67.36-.88v-1.5H-77.872V-4.016H-67.36V-5.392H-78.192v-1.76h5.44v-5.856h2.144v5.856h5.376v8.56H-67.36V.832H-78.272V-.88Zm-8.784-11.392a40.027,40.027,0,0,1,2.032,4.064l-1.9.656q-.944-2.1-2.032-4.048Zm10.832.512a29.293,29.293,0,0,1-2.032,4.224l-1.9-.688a28.966,28.966,0,0,0,1.968-4.144ZM-49.2-.848h2.912V1.008H-55.2V-.848h3.872V-8h-3.024V-9.808h3.024v-3.1H-49.2v3.1h2.688V-8H-49.2Zm-7.648-9.824h2.08V-8.8A14.047,14.047,0,0,1-56-6.464q1.536,1.536,2.544,2.688l-1.408,1.248q-.848-1.008-2.048-2.224v6.24h-2.08v-4.96A11.948,11.948,0,0,1-60.928-2.16l-.5-2.176a9.976,9.976,0,0,0,4.4-4.464H-60.96v-1.872h2.032v-2.336h2.08Zm26.256,5.344-1.648.784q-.624-1.264-1.36-2.544l1.648-.832Q-31.216-6.56-30.592-5.328ZM-28-5.84l-1.68.8q-.72-1.392-1.392-2.592l1.68-.848Q-28.816-7.44-28-5.84Zm-14.736-5.52q6.464,0,13.152-.32l.08,1.92a11.675,11.675,0,0,0-5.792,1.7,4.114,4.114,0,0,0-1.936,3.448,3.37,3.37,0,0,0,1.08,2.656,4.163,4.163,0,0,0,2.872.96,10.6,10.6,0,0,0,1.952-.192l.24,1.952a12.559,12.559,0,0,1-2.3.224A6.539,6.539,0,0,1-37.856-.464,4.964,4.964,0,0,1-39.52-4.4a5.084,5.084,0,0,1,.912-2.912,7.07,7.07,0,0,1,2.592-2.24v-.032q-3.5.144-6.72.144ZM-20.16-6.688h1.088V-7.7H-20.16Zm0,1.328V-4.3h1.088V-5.36Zm.048,2.56v.96h2.4v.928q.1-.016.288-.032t.288-.032q.688-3.088,1.12-5.632h-1.536V-2.8Zm-3.056-3.888h1.088V-7.7h-1.088Zm0,2.384h1.088V-5.36h-1.088Zm5.888-6.256v-1.808h6.128v1.808Zm3.44,5.776,1.808-.464a64.879,64.879,0,0,1,1.552,6.3l-1.856.448q-.048-.24-.152-.712t-.136-.664Q-15.68.72-18.1.96l-.048-1.152h-1.968V1.552h-2.016V-.192H-25.12V-1.84h2.992V-2.8H-24.8V-9.2h2.672v-.96H-25.12v-1.648h2.992v-1.2h2.016v1.2h2.4v1.648h-2.4v.96h2.56v.768h6.88v1.824H-14.08q-.528,3.12-1.024,5.36.688-.1,2.1-.32Q-13.488-3.52-13.84-4.784Zm8.368-1.024h.912V-7.6h-.912Zm.912,3.152V-4.288h-.912v1.856Q-5.168-2.5-4.56-2.656Zm2.7-5.952q-.24-.96-.464-1.744h-.592v1.744Zm2.24,0q.272-.88.464-1.744H-.512q.048.176.432,1.744Zm2.72,0q-.016-.272-.024-.864t-.008-.88H2.528q-.176.9-.416,1.744ZM-.528-2.272v.992H.96v-.992Zm0-1.5H.96V-4.72H-.528ZM-4.56-10.832h-.912V-9.12h.912ZM5.92-.848q.224,0,.448-2.416l1.392.7Q7.536,1.392,6.112,1.392,4.8,1.392,4.128-.464A15.15,15.15,0,0,1,1.92,1.328L1.088.24H-.528V.992H-2.352v-7.28h5.04v4.832q.592-.576.944-.992a38.294,38.294,0,0,1-.448-4.56h-6.1V1.52H-4.56V-.832q-1.488.368-2.976.624l-.176-1.76q.144-.016.64-.128v-8.736h-.5v-1.76H-2.4V-12H-.928v-1.232h2.08V-12H3.04v-1.152H4.912v1.2l1.152-.56A25.9,25.9,0,0,1,7.408-9.52l-1.424.64Q5.52-10.016,4.912-11.3q.032,1.808.064,2.688H7.52v1.6H5.04q.032.976.128,2.176Q5.68-5.856,6.016-6.7l1.536.8A20.474,20.474,0,0,1,5.5-2.064Q5.744-.848,5.92-.848Zm7.152-11.584,2.176.064Q15.04-8.624,15.04-5.28a9.416,9.416,0,0,0,.28,2.632,2.034,2.034,0,0,0,.808,1.216,3.021,3.021,0,0,0,1.52.312q3.04,0,4.864-4.608l1.9.736q-2.192,5.9-6.768,5.9-2.72,0-3.76-1.32T12.848-5.28Q12.848-8.7,13.072-12.432ZM42.048-6.208a54.114,54.114,0,0,0-6.464.368l-.128-1.792A56.591,56.591,0,0,1,42.048-8Zm.128,4.72L42.416.32A18.346,18.346,0,0,1,39.04.64a6.71,6.71,0,0,1-3.528-.808,2.383,2.383,0,0,1-1.32-2.072,3.362,3.362,0,0,1,1.6-2.48l1.456.928a5.777,5.777,0,0,0-.832.808.909.909,0,0,0-.208.536q0,.56.76.92a4.916,4.916,0,0,0,2.072.36A17.178,17.178,0,0,0,42.176-1.488ZM29.44-9.28v-1.808h2.544q.224-1.28.336-1.936l2.032.176q-.192,1.184-.3,1.76h5.584V-9.28H33.7A82.106,82.106,0,0,1,30.976.928L28.96.464A80.663,80.663,0,0,0,31.616-9.28Zm24.224.128V-8.4h4.56v-.752Zm0-1.2h4.56v-.72h-4.56Zm-2.016-2.336h8.7v5.552h-8.7ZM58.7,1.44q-.592,0-1.84-.08l-.1-1.68q.832.08,1.3.08a.513.513,0,0,0,.424-.168A1.729,1.729,0,0,0,58.7-1.16a14.054,14.054,0,0,0,.08-1.752V-3.12h-.208A12.545,12.545,0,0,1,56.688-.488a12.965,12.965,0,0,1-2.5,2.168L53.008.512a11.823,11.823,0,0,0,2.048-1.624,12.115,12.115,0,0,0,1.68-2.008H55.76a14.74,14.74,0,0,1-2.224,2.2A13.815,13.815,0,0,1,50.9.8L49.84-.416A13.47,13.47,0,0,0,53.7-3.12H52.528a10.8,10.8,0,0,1-1.1.656l.064.64a27.91,27.91,0,0,1-4.96,1.76l-.256-1.824q1.088-.224,1.456-.32V-7.36H46.336V-9.072h1.392v-3.68h2.048v3.68H51.2V-7.36H49.776v4.592q.112-.032.32-.1L50.472-3l.312-.1-.416-.528a10.183,10.183,0,0,0,2.3-1.488H50.9v-1.5h10.24v1.5h-6.3q-.176.192-.544.56h6.48v1.312A15.5,15.5,0,0,1,60.552-.24,2.386,2.386,0,0,1,59.928,1.1,1.893,1.893,0,0,1,58.7,1.44ZM68.048.688V1.44H65.92V-5.488H77.44V1.44H75.312V.688ZM76.16-8v1.072H67.2V-8q-.976.624-2.128,1.216L64.24-8.528a28.43,28.43,0,0,0,3.28-2.056,25.634,25.634,0,0,0,2.816-2.424h2.688a25.634,25.634,0,0,0,2.816,2.424,28.43,28.43,0,0,0,3.28,2.056l-.832,1.744Q77.136-7.376,76.16-8Zm-.944-.64a24.108,24.108,0,0,1-3.536-3.008A24.108,24.108,0,0,1,68.144-8.64Zm.1,7.68V-3.792H68.048V-.96Z" transform="translate(-686.148 3283.5)" fill="#fff"/>
    <rect id="長方形_23930" data-name="長方形 23930" width="319" height="31" transform="translate(-845.148 3485.5)" fill="#039e8e"/>
    <path id="パス_5079" data-name="パス 5079" d="M9-10.62a1.36,1.36,0,0,0,1.35-1.35A1.36,1.36,0,0,0,9-13.32a1.36,1.36,0,0,0-1.35,1.35A1.36,1.36,0,0,0,9-10.62ZM9-7.362,3.06-13.3l-.522.522,5.94,5.94L2.52-.882l.522.522L9-6.318l5.94,5.94L15.462-.9,9.522-6.84l5.94-5.94L14.94-13.3ZM5.22-6.84A1.36,1.36,0,0,0,3.87-8.19,1.36,1.36,0,0,0,2.52-6.84,1.36,1.36,0,0,0,3.87-5.49,1.36,1.36,0,0,0,5.22-6.84Zm7.56,0a1.36,1.36,0,0,0,1.35,1.35,1.36,1.36,0,0,0,1.35-1.35,1.36,1.36,0,0,0-1.35-1.35A1.36,1.36,0,0,0,12.78-6.84ZM9-3.06A1.36,1.36,0,0,0,7.65-1.71,1.36,1.36,0,0,0,9-.36a1.36,1.36,0,0,0,1.35-1.35A1.36,1.36,0,0,0,9-3.06ZM29.088-13.41a20.834,20.834,0,0,0,7.4,6.48,9.815,9.815,0,0,1,1.08-1.53A17.56,17.56,0,0,1,29.9-15.138H28.116a17.957,17.957,0,0,1-7.308,6.93,6.227,6.227,0,0,1,1.044,1.386A20.406,20.406,0,0,0,29.088-13.41Zm2.286,4.68V1.4H33.12V-8.73Zm-6.246.09v2.322A6.733,6.733,0,0,1,21.546.234a6.25,6.25,0,0,1,1.368,1.188c3.546-2.124,3.924-5.166,3.924-7.7V-8.64Zm21.24-5.868H41.886v1.314h4.482Zm.5,2.376H41.04V-10.8h5.832ZM45.036-3.51V-.918H43.074V-3.51Zm1.35-1.35H41.742V1.188h1.332V.4h3.312ZM41.778-5.976H46.4V-7.29H41.778Zm0-3.708v1.3H46.4v-1.3ZM53.46-12.87v.828l-1.026-.18a9.9,9.9,0,0,1-.522,1.314h-2.16c.18-.342.342-.684.5-1.026h.792v-.936ZM51.93-9.108H49.77v-.7h2.16Zm0,1.638H49.77v-.72h2.16Zm0,1.656H49.77V-6.57h2.16Zm-3.636,1.1H57.33v-1.1H53.388V-6.57H56.5v-.9H53.388v-.72H56.5v-.918H53.388v-.7H56.9v-1.1H53.406c.18-.306.36-.666.54-1.026H54.99v-.936h2.376v-1.206H54.99V-15.12H53.46v1.044H51.048V-15.12H49.554v1.044H47.106v1.206h2.448v.738l-.648-.162A9.416,9.416,0,0,1,46.4-8.82a6.731,6.731,0,0,1,1.1.882,8.952,8.952,0,0,0,.792-.846ZM54.45-2.808a8.1,8.1,0,0,1-2.124,1.476A7.392,7.392,0,0,1,50.2-2.808Zm1.368-1.3-.27.054H47.376v1.242h2.286l-.954.378A8.7,8.7,0,0,0,50.724-.684,20.8,20.8,0,0,1,46.512.18,4.855,4.855,0,0,1,47.2,1.458,22.328,22.328,0,0,0,52.272.144,17.15,17.15,0,0,0,56.736,1.4,5.563,5.563,0,0,1,57.69.09,21.371,21.371,0,0,1,53.928-.7,8.025,8.025,0,0,0,56.79-3.6Zm21.15-2.214A6.663,6.663,0,0,0,69.912-13.1a7.8,7.8,0,0,0-8.046,7.488c0,3.006,1.638,4.986,3.42,4.986s3.276-2.034,4.356-5.706a35.842,35.842,0,0,0,1.08-5.058,4.786,4.786,0,0,1,4.356,5.022A5.177,5.177,0,0,1,70.722-1.26a11.125,11.125,0,0,1-1.6.252L70.182.684C74.556.054,76.968-2.538,76.968-6.318ZM63.684-5.8a6.017,6.017,0,0,1,5.13-5.562,28.657,28.657,0,0,1-.99,4.644C67-3.942,66.15-2.772,65.34-2.772,64.566-2.772,63.684-3.726,63.684-5.8ZM88.038-8.73c2.142-.5,3.33-1.26,4.014-2.358A5.33,5.33,0,0,0,95.346-8.73ZM93.96-6.66H85.518V-7.668H93.96Zm0,2.034H85.518V-5.652H93.96Zm0,2.07H85.518V-3.6H93.96Zm-2.844-10.08c-.414,1.476-1.44,2.34-4.338,2.808a4.347,4.347,0,0,1,.738,1.1H83.9v7.236H95.634V-8.64c.414.108.882.216,1.386.306A4.693,4.693,0,0,1,97.866-9.7c-3.654-.486-4.662-1.638-5.058-2.934h2.484a8.631,8.631,0,0,1-.9,1.224L95.706-11a11.375,11.375,0,0,0,1.746-2.61L96.336-13.9l-.252.054H90.306a9.591,9.591,0,0,0,.558-1.026L89.352-15.1a7.5,7.5,0,0,1-2.664,3.15,4.865,4.865,0,0,1,1.26.81,8.614,8.614,0,0,0,1.53-1.494Zm-4.3-.792a22.2,22.2,0,0,0-3.762-1.332l-.738,1.134a24.875,24.875,0,0,1,3.762,1.476Zm-.27,1.98c-1.854.486-3.762.99-5.076,1.26l.666,1.476c1.332-.414,3.006-.9,4.572-1.422Zm.288,9.99A19.68,19.68,0,0,1,81.594.234a11.76,11.76,0,0,1,1.26,1.242A23.845,23.845,0,0,0,88.362-.756Zm4.1.882A36.381,36.381,0,0,1,95.76,1.458L97.686.666A56.86,56.86,0,0,0,92.3-1.422Zm19.44-4.59a15.008,15.008,0,0,0,2.574-1.8,13.546,13.546,0,0,0,2.664,1.8Zm.27,4.428V-3.744h4.446V-.738Zm-2.538-5.778c-.342-.414-1.746-2.142-2.232-2.664v-.612h1.548l-.126.108a8.77,8.77,0,0,1,1.3,1.116,15.807,15.807,0,0,0,1.584-1.674,13.788,13.788,0,0,0,1.638,2.178,14.157,14.157,0,0,1-4.428,2.538Zm6.66-5.238a11.4,11.4,0,0,1-1.854,2.664,10.772,10.772,0,0,1-1.8-2.412l.162-.252Zm1.062-1.512-.306.072H112.1a15.913,15.913,0,0,0,.684-1.494l-1.6-.432a13.227,13.227,0,0,1-3.114,4.752v-.972h-2.2V-15.1H104.31v3.762h-2.538v1.548h2.376a19.01,19.01,0,0,1-2.79,6.462,7.009,7.009,0,0,1,.81,1.494,17.491,17.491,0,0,0,2.142-4.536V1.4h1.566V-7.29c.432.648.9,1.368,1.17,1.872l-.108.036a6.149,6.149,0,0,1,.954,1.35c.414-.144.81-.306,1.206-.486v5.94h1.548V.72h4.446v.648h1.62v-6.03c.2.09.4.162.594.234a7.3,7.3,0,0,1,1.044-1.4,12.383,12.383,0,0,1-4.284-2.214,12.983,12.983,0,0,0,2.808-4.734Zm13.266.918.018,1.836a45.875,45.875,0,0,0,7.542,0v-1.836A33.17,33.17,0,0,1,129.1-12.348Zm1.026,7.488L128.5-5A9.117,9.117,0,0,0,128.2-2.79c0,1.746,1.4,2.808,4.464,2.808a24.7,24.7,0,0,0,4.554-.36l-.036-1.926a19.329,19.329,0,0,1-4.482.486c-2.178,0-2.808-.666-2.808-1.476A6.253,6.253,0,0,1,130.122-4.86Zm-4.158-8.784-2-.18a13.084,13.084,0,0,1-.162,1.494,51.944,51.944,0,0,0-.774,7.182A22.873,22.873,0,0,0,123.7.666l1.638-.108c-.018-.216-.036-.486-.036-.666a3.519,3.519,0,0,1,.09-.828c.18-.9.81-2.826,1.278-4.194l-.9-.72c-.288.666-.648,1.548-.954,2.286A17.761,17.761,0,0,1,124.7-5.49a43.168,43.168,0,0,1,.882-6.786A12.909,12.909,0,0,1,125.964-13.644ZM147.4-10.3a24.1,24.1,0,0,1-.99,4.176c-.864-1.044-1.764-2.088-2.628-2.988l-1.17.954a46.778,46.778,0,0,1,3.078,3.744,10.475,10.475,0,0,1-4,4.392,9.279,9.279,0,0,1,1.134,1.3,12.175,12.175,0,0,0,3.888-4.23,18.183,18.183,0,0,1,1.4,2.43l1.35-1.134a22,22,0,0,0-1.926-3.006,24.4,24.4,0,0,0,1.494-5.418Zm10.944-.666h-2.034V-15.1h-1.656v4.14H150.5V-12.24h-3.474v-2.844H145.4v2.844h-3.276v1.548h7.812v1.35h4.716V-.756c0,.306-.126.4-.432.4-.306.018-1.278.018-2.358-.018a7.737,7.737,0,0,1,.54,1.782,8.5,8.5,0,0,0,3.1-.342c.576-.306.81-.792.81-1.818V-9.342h2.034ZM153.306-3.8a13.535,13.535,0,0,0-1.962-3.87l-1.368.648a14.986,14.986,0,0,1,1.89,3.942ZM167.652-14.13l-2.3-.018a10.416,10.416,0,0,1,.2,2.088c0,1.728-.18,6.372-.18,8.928,0,2.988,1.836,4.158,4.572,4.158a9.141,9.141,0,0,0,7.65-4.032L176.31-4.572a7.376,7.376,0,0,1-6.336,3.708c-1.566,0-2.736-.648-2.736-2.556,0-2.484.126-6.642.216-8.64A16.421,16.421,0,0,1,167.652-14.13Zm14.67,1.98.2,1.98c2-.432,6.192-.864,8.01-1.062a7.248,7.248,0,0,0-3.06,5.85c0,3.978,3.69,5.868,7.218,6.03l.666-1.908c-2.988-.126-6.048-1.224-6.048-4.5a5.968,5.968,0,0,1,4-5.418,16.056,16.056,0,0,1,3.492-.27v-1.818c-1.242.054-3.042.162-4.968.324-3.312.27-6.516.576-7.83.7C183.654-12.2,183.024-12.168,182.322-12.15Z" transform="translate(-840.148 3507.5)" fill="#fff"/>
    <path id="パス_5078" data-name="パス 5078" d="M5.076-12.456v3.618H2.916v-3.618ZM2.916-3.564v-3.8h2.16v3.8Zm3.744-10.4H1.368V-.558H2.916V-2.07H6.66Zm1.3,10.314A13.351,13.351,0,0,1,10.134-.576l1.422-.864a13.256,13.256,0,0,0-2.25-2.988Zm9.342-4.5V-9.63H12.924v-1.98h3.708v-1.458H12.924V-15.12H11.25v2.052H7.65v1.458h3.6v1.98H6.966v1.476h6.606v1.8H7.02v1.476h6.552V-.486c0,.252-.09.324-.378.342-.27,0-1.26,0-2.268-.036a6.232,6.232,0,0,1,.54,1.566,8.851,8.851,0,0,0,2.952-.27c.594-.252.792-.7.792-1.566V-4.878h1.926V-6.354H15.21v-1.8Zm4.41,3.348A13.6,13.6,0,0,1,20.646-.594a7.035,7.035,0,0,1,1.278.63,16.666,16.666,0,0,0,1.206-4.59Zm3.78.252A19.252,19.252,0,0,1,26.55-1.26l1.278-.432A20.8,20.8,0,0,0,26.694-4.95Zm-.432-4.3c.252.45.5.954.738,1.458-.774.054-1.53.09-2.25.108,1.17-1.512,2.466-3.474,3.474-5.112l-1.386-.63c-.45.918-1.062,2.016-1.71,3.078a13.016,13.016,0,0,0-.864-.99c.648-.99,1.4-2.376,2.034-3.582L23.616-15.1a20.756,20.756,0,0,1-1.476,3.258c-.162-.144-.324-.288-.486-.414l-.81,1.1a16.979,16.979,0,0,1,2.232,2.52c-.342.5-.7.99-1.026,1.422l-1.26.036.144,1.476c.81-.054,1.728-.108,2.718-.162V1.44h1.494v-7.4l1.17-.072a7.03,7.03,0,0,1,.288.972l1.224-.54A13.955,13.955,0,0,0,26.19-9.324ZM34.65-4.374V-1.08H30.024V-4.374ZM28.476,1.4h1.548V.414H34.65v.918h1.6v-7.2H28.476ZM29.3-9.306v1.53h5.9v-1.53Zm1.962-5.6a17.464,17.464,0,0,1-4.662,5.6,8.935,8.935,0,0,1,.972,1.458,20.038,20.038,0,0,0,4.554-5.346,24.574,24.574,0,0,0,4.608,5.238A11.065,11.065,0,0,1,37.782-9.5a19.471,19.471,0,0,1-4.914-5.4ZM46.926.234c2.934,0,4.914-1.6,4.914-5.922v-7.578H49.824v7.722c0,2.988-1.224,3.96-2.9,3.96-1.656,0-2.844-.972-2.844-3.96v-7.722H41.994v7.578C41.994-1.368,43.992.234,46.926.234ZM57.42,0h2.088V-5.022h2c2.88,0,4.986-1.332,4.986-4.23,0-2.988-2.106-4.014-5.058-4.014H57.42Zm2.088-6.7v-4.878h1.728c2.106,0,3.2.576,3.2,2.322S63.432-6.7,61.308-6.7Zm18.648-7.65L76.3-14.4a9.521,9.521,0,0,1-.054.954c-.036.36-.09.756-.126,1.206h-.99A25.369,25.369,0,0,1,72-12.474l.054,1.674c.774.036,2.178.126,3.024.126h.882c-.072.774-.144,1.62-.18,2.448C73.278-7.056,71.3-4.662,71.3-2.34A2.167,2.167,0,0,0,73.566.072,6.2,6.2,0,0,0,76.5-.792c.09.324.18.612.27.882L78.408-.4c-.144-.45-.306-.918-.432-1.422a14.207,14.207,0,0,0,3.906-5.67,2.975,2.975,0,0,1,2.286,2.844c0,2.07-1.764,3.78-5.112,4.158l.972,1.494C84.312.342,85.914-2,85.914-4.572a4.538,4.538,0,0,0-3.546-4.32c.126-.324.27-.774.378-1.008l-1.764-.432a9.475,9.475,0,0,1-.216,1.17,4.887,4.887,0,0,0-.522-.018,11.666,11.666,0,0,0-2.88.4c.054-.666.108-1.332.162-1.944a54.687,54.687,0,0,0,6.444-.666l-.018-1.674a32.9,32.9,0,0,1-6.228.774c.072-.432.144-.846.216-1.188A7.575,7.575,0,0,1,78.156-14.346ZM77.31-6.8v-.432a8.389,8.389,0,0,1,2.862-.5H80.3a11.743,11.743,0,0,1-2.718,4.1A19.075,19.075,0,0,1,77.31-6.8Zm-4.32,4.14c0-1.3,1.134-2.88,2.736-3.852a23.428,23.428,0,0,0,.4,4.068,4.2,4.2,0,0,1-2.178.792C73.3-1.656,72.99-2,72.99-2.664ZM95.9-14.31l-1.962-.09a15.633,15.633,0,0,1-.144,1.71,47.5,47.5,0,0,0-.522,5.8,22.626,22.626,0,0,0,.2,2.916L95.238-4.1a8.336,8.336,0,0,1-.072-2.07c.162-2.376,2.16-5.616,4.356-5.616,1.71,0,2.664,1.836,2.664,4.644,0,4.464-2.952,5.922-6.894,6.534l1.08,1.638c4.59-.846,7.722-3.15,7.722-8.172,0-3.87-1.818-6.282-4.266-6.282-2.178,0-3.906,1.926-4.7,3.564A34.838,34.838,0,0,1,95.9-14.31Z" transform="translate(-637.148 3507.84)" fill="#fef36b"/>
    <g id="グループ_8074" data-name="グループ 8074" transform="translate(-1195.148 405)">
      <g id="楕円形_47" data-name="楕円形 47" transform="translate(453 2913)" fill="#ef9f00" stroke="#ef9f00" stroke-width="5">
        <circle cx="56" cy="56" r="56" stroke="none"/>
        <circle cx="56" cy="56" r="53.5" fill="none"/>
      </g>
      <g id="マスクグループ_31" data-name="マスクグループ 31" transform="translate(453 2913)" clip-path="url(#clip-path)">
        <g id="グループ_8062" data-name="グループ 8062" transform="translate(15.448 12.359)">
          <g id="グループ_8061" data-name="グループ 8061" clip-path="url(#clip-path-2)">
            <path id="パス_4316" data-name="パス 4316" d="M63.283,72.153a33.06,33.06,0,0,1,9.6-9.274c4.162-2.418,8.947-3.14,11.863-3.564s3.963-.548,5.545-.274a11.378,11.378,0,0,1,5.857,2.9,32.708,32.708,0,0,1,5.62,7.464,10.832,10.832,0,0,1,1.7,4.782c.079,1.217-.109,2.357-.1,2.855s.23.359.883.455a10.056,10.056,0,0,1,2.479.787,2.263,2.263,0,0,1,1.371,1.585,7.609,7.609,0,0,1,.115,3.379,7.9,7.9,0,0,1-1.532,3.294,6.992,6.992,0,0,1-2.185,1.814,6.133,6.133,0,0,1-1.807.657,10.75,10.75,0,0,1-1.122.118c-.212.025-.231.075-.411.907s-.524,2.445-.866,3.7a12.265,12.265,0,0,1-1.218,3.078,15.421,15.421,0,0,1-2.146,2.825,21.973,21.973,0,0,1-3,2.648,20.7,20.7,0,0,1-2.8,1.7c-.72.362-1.127.507-1.314.65s-.154.285-.149.913-.021,1.744-.062,2.675a21,21,0,0,0,0,2.95,26.633,26.633,0,0,0,.66,4.24,3.008,3.008,0,0,0,1.318,2.093,6.191,6.191,0,0,0,2.592.626c1.1.087,2.442.087,3.623.175a15.708,15.708,0,0,1,2.907.458c.7.2,1.09.414.884.794s-1,.922-2.994,1.717a45.521,45.521,0,0,1-8.548,2.433,45.061,45.061,0,0,1-10.365.523,47.936,47.936,0,0,1-9.39-1.477A26.547,26.547,0,0,1,64.44,120.5c-1.132-.644-1.34-1.034-1.383-1.271s.077-.32.981-.48,2.593-.4,3.9-.524,2.246-.147,3.028-.228a4.952,4.952,0,0,0,1.879-.486,2.329,2.329,0,0,0,.991-1.115,7.528,7.528,0,0,0,.5-2.2c.153-1.162.327-2.919.4-4.09A13.947,13.947,0,0,0,74.7,107.5c-.084-.85-.221-1.965-.337-2.573s-.208-.707-.651-.91a15.654,15.654,0,0,1-2.09-1.043,13.5,13.5,0,0,1-2.8-2.427,27.531,27.531,0,0,1-2.96-3.951,18.226,18.226,0,0,1-1.683-3.578,20.511,20.511,0,0,1-.657-2.366c-.1-.476-.109-.569-.411-.7s-.9-.3-1.6-.583a10.557,10.557,0,0,1-2.206-1.2,7.945,7.945,0,0,1-1.816-1.841,9.6,9.6,0,0,1-1.062-2.044,4.1,4.1,0,0,1-.343-1.769,7.5,7.5,0,0,1,.455-2.181,3.018,3.018,0,0,1,.972-1.418,4.149,4.149,0,0,1,1.35-.566c.453-.131.866-.255,1.192-.371s.562-.223.813-.965a14.854,14.854,0,0,1,2.419-4.861" transform="translate(-41.527 -43.612)" fill="#fff" fill-rule="evenodd"/>
            <path id="パス_4317" data-name="パス 4317" d="M104.164,33.269c-.507-1.2-1.254-3.421-2.094-5.453a32.925,32.925,0,0,0-2.644-5.21,8.385,8.385,0,0,0-3-2.945,29.757,29.757,0,0,0-4.007-1.808,4.13,4.13,0,0,0-2.49-.265,52.2,52.2,0,0,0-7.842.888A26.992,26.992,0,0,0,73.235,22a30.474,30.474,0,0,0-7.176,6.247A15.268,15.268,0,0,0,63.305,33.2c-.34,1.056-.3,1.365-.669,1.529a6.415,6.415,0,0,1-1.707.215c-.558.033-.9.08-1.28-.453a9.822,9.822,0,0,1-1.186-3.664,32.055,32.055,0,0,1-.435-8.094,22.99,22.99,0,0,1,2.843-9.641A27.2,27.2,0,0,1,68.2,5.035a23.566,23.566,0,0,1,8.678-3.974A39.044,39.044,0,0,1,85.626,0,7.251,7.251,0,0,1,89.72.895a18.355,18.355,0,0,1,2.018,1.638,2.3,2.3,0,0,0,2.023.54,6.559,6.559,0,0,1,4.374.333c1.856.925,4.049,3.243,5.594,5.087a22.474,22.474,0,0,1,3.44,5.315,30.761,30.761,0,0,1,2.559,7.665,21.015,21.015,0,0,1-.152,7.564,26,26,0,0,1-1.5,4.784c-.352.866-.352.866-.71.9s-1.074.094-1.5.113a1.268,1.268,0,0,1-.741-.1c-.2-.1-.464-.263-.972-1.459" transform="translate(-42.903 0)" fill="#070203" fill-rule="evenodd"/>
            <path id="パス_4318" data-name="パス 4318" d="M111.487,247.091a.7.7,0,0,1,1.407.028,54.418,54.418,0,0,1-.354,6.222,8.525,8.525,0,0,1-.595,2.213,3.41,3.41,0,0,1-1.182,1.482,3.8,3.8,0,0,1-1.674.571,13.236,13.236,0,0,1-1.7.074.707.707,0,0,1,0-1.413,12.8,12.8,0,0,0,1.525-.057,2.444,2.444,0,0,0,1.062-.345,2.046,2.046,0,0,0,.685-.891,7.193,7.193,0,0,0,.484-1.843,52.978,52.978,0,0,0,.343-6.04" transform="translate(-78.998 -182.46)" fill="#070203"/>
            <path id="パス_4319" data-name="パス 4319" d="M182.633,247.118a.7.7,0,1,1,1.408-.027,52.925,52.925,0,0,0,.343,6.04,7.193,7.193,0,0,0,.484,1.843,2.044,2.044,0,0,0,.685.891,2.44,2.44,0,0,0,1.061.345,12.678,12.678,0,0,0,1.525.058.706.706,0,1,1,0,1.413,13.228,13.228,0,0,1-1.7-.074,3.8,3.8,0,0,1-1.674-.571,3.412,3.412,0,0,1-1.183-1.482,8.537,8.537,0,0,1-.595-2.213,54.6,54.6,0,0,1-.354-6.222" transform="translate(-135.239 -182.459)" fill="#070203"/>
            <path id="パス_4320" data-name="パス 4320" d="M123.079,199.914a.705.705,0,1,1,1.231.69,19.774,19.774,0,0,1-7.42,7.465,20.938,20.938,0,0,1-20.628,0,19.777,19.777,0,0,1-7.42-7.465.706.706,0,0,1,1.231-.69,18.361,18.361,0,0,0,6.89,6.93,19.535,19.535,0,0,0,19.226,0,18.358,18.358,0,0,0,6.891-6.93" transform="translate(-65.72 -147.769)" fill="#070203"/>
            <path id="パス_4321" data-name="パス 4321" d="M192.241,123.786a.706.706,0,1,1-.243,1.391c-.258-.045-.528-.08-.809-.1s-.564-.035-.862-.035-.586.012-.862.035-.551.058-.809.1a.706.706,0,1,1-.243-1.391c.3-.053.613-.093.936-.12s.647-.04.978-.04.658.014.977.04.636.067.935.12" transform="translate(-139.088 -91.545)" fill="#070203"/>
            <path id="パス_4322" data-name="パス 4322" d="M110.19,125.176a.706.706,0,0,1-.243-1.391c.3-.053.613-.093.936-.12s.646-.04.978-.04.658.014.977.04.635.067.936.12a.706.706,0,0,1-.243,1.391c-.257-.045-.528-.08-.809-.1s-.564-.035-.862-.035-.586.012-.862.035-.551.058-.809.1" transform="translate(-80.983 -91.544)" fill="#070203"/>
            <path id="パス_4323" data-name="パス 4323" d="M74.445,128.889a.7.7,0,0,1,1.4-.182c.231,1.763.462,3.525.7,5.226.224,1.628.441,3.121.645,4.344a45.718,45.718,0,0,0,1.073,4.924l0,.01a.705.705,0,0,1-1.369.342v0a47.032,47.032,0,0,1-1.1-5.043c-.2-1.208-.421-2.721-.65-4.387-.219-1.593-.458-3.412-.7-5.232" transform="translate(-55.122 -94.853)" fill="#070203"/>
            <path id="パス_4324" data-name="パス 4324" d="M227.719,127.227a.7.7,0,0,1,1.4.182c-.238,1.82-.477,3.639-.7,5.232-.229,1.666-.449,3.18-.65,4.388a46.927,46.927,0,0,1-1.1,5.042v0a.706.706,0,0,1-1.369-.342l0-.01a45.738,45.738,0,0,0,1.073-4.924c.2-1.223.421-2.716.645-4.343.234-1.7.465-3.464.7-5.226" transform="translate(-166.82 -93.757)" fill="#070203"/>
            <path id="パス_4325" data-name="パス 4325" d="M57.832,131.789a.705.705,0,0,1,.141,1.4l-.055,0a3.109,3.109,0,0,0-2.09.6,2.775,2.775,0,0,0-.612,1.2,4.876,4.876,0,0,0-.131,1.732,6.436,6.436,0,0,0,.533,1.947,6.958,6.958,0,0,0,1.117,1.757,11.935,11.935,0,0,0,3.354,2.377.705.705,0,0,1-.679,1.236,13.014,13.014,0,0,1-3.735-2.68,8.4,8.4,0,0,1-1.343-2.122,7.858,7.858,0,0,1-.649-2.377,6.291,6.291,0,0,1,.169-2.234,3.575,3.575,0,0,1,3.979-2.845" transform="translate(-39.728 -97.587)" fill="#070203"/>
            <path id="パス_4326" data-name="パス 4326" d="M237.132,131.713a.705.705,0,0,1,.14-1.4,3.575,3.575,0,0,1,3.979,2.845,6.286,6.286,0,0,1,.169,2.234,7.844,7.844,0,0,1-.649,2.377,8.4,8.4,0,0,1-1.343,2.122,13.012,13.012,0,0,1-3.734,2.68.705.705,0,1,1-.679-1.236,11.943,11.943,0,0,0,3.354-2.377,6.969,6.969,0,0,0,1.116-1.757,6.449,6.449,0,0,0,.534-1.947,4.882,4.882,0,0,0-.131-1.732,2.772,2.772,0,0,0-.612-1.2,3.107,3.107,0,0,0-2.089-.6l-.055,0" transform="translate(-173.756 -96.492)" fill="#070203"/>
            <path id="パス_4327" data-name="パス 4327" d="M155.969,156.238a.53.53,0,1,1,1.06,0v6.022a.53.53,0,1,1-1.06,0Z" transform="translate(-115.495 -115.301)" fill="#070203"/>
            <path id="パス_4328" data-name="パス 4328" d="M146.348,200.287a.7.7,0,1,1,1,.993,6.951,6.951,0,0,1-2.442,1.556,8.552,8.552,0,0,1-5.989,0,6.947,6.947,0,0,1-2.442-1.556.7.7,0,1,1,1-.993,5.528,5.528,0,0,0,1.946,1.231,7.16,7.16,0,0,0,4.984,0,5.528,5.528,0,0,0,1.946-1.231" transform="translate(-100.907 -148.158)" fill="#070203"/>
            <path id="パス_4329" data-name="パス 4329" d="M114.452,146.128c1.168,0,2.115,1.25,2.115,2.792s-.947,2.792-2.115,2.792-2.115-1.25-2.115-2.792.947-2.792,2.115-2.792" transform="translate(-83.185 -108.207)" fill="#070203" fill-rule="evenodd"/>
            <path id="パス_4330" data-name="パス 4330" d="M189.92,146.128c1.169,0,2.115,1.25,2.115,2.792s-.947,2.792-2.115,2.792-2.115-1.25-2.115-2.792.947-2.792,2.115-2.792" transform="translate(-139.069 -108.207)" fill="#070203" fill-rule="evenodd"/>
            <path id="パス_4331" data-name="パス 4331" d="M106.313,137.264a.528.528,0,1,1-.654.828,6.36,6.36,0,0,0-2.107-1.051,9.682,9.682,0,0,0-5.4,0,6.361,6.361,0,0,0-2.107,1.051.527.527,0,1,1-.654-.828,7.413,7.413,0,0,1,2.454-1.237,10.738,10.738,0,0,1,6.009,0,7.416,7.416,0,0,1,2.454,1.237" transform="translate(-70.491 -100.41)" fill="#070203"/>
            <path id="パス_4332" data-name="パス 4332" d="M187.246,137.264a.527.527,0,1,1-.654.828,6.359,6.359,0,0,0-2.107-1.051,9.682,9.682,0,0,0-5.4,0,6.359,6.359,0,0,0-2.107,1.051.527.527,0,1,1-.654-.828,7.412,7.412,0,0,1,2.454-1.237,10.739,10.739,0,0,1,6.01,0,7.417,7.417,0,0,1,2.454,1.237" transform="translate(-130.422 -100.41)" fill="#070203"/>
            <path id="パス_4333" data-name="パス 4333" d="M102.032,147.936a.7.7,0,1,1,1.269-.607,5.006,5.006,0,0,1,.366,1.037,4.8,4.8,0,0,1,.125,1.081,5.427,5.427,0,0,1-2.3,4.289,9.158,9.158,0,0,1-10.6,0,5.427,5.427,0,0,1-2.3-4.289,4.8,4.8,0,0,1,.125-1.081,4.992,4.992,0,0,1,.366-1.037.7.7,0,1,1,1.269.607,3.6,3.6,0,0,0-.261.745,3.388,3.388,0,0,0-.086.767,4.044,4.044,0,0,0,1.74,3.169,7.768,7.768,0,0,0,8.892,0,4.044,4.044,0,0,0,1.74-3.169,3.4,3.4,0,0,0-.086-.767,3.6,3.6,0,0,0-.261-.745" transform="translate(-65.604 -108.8)" fill="#070203"/>
            <path id="パス_4334" data-name="パス 4334" d="M169.9,147.329a.7.7,0,0,1,1.269.607,3.6,3.6,0,0,0-.261.745,3.388,3.388,0,0,0-.086.767,4.043,4.043,0,0,0,1.74,3.169,7.768,7.768,0,0,0,8.892,0,4.043,4.043,0,0,0,1.74-3.169,3.388,3.388,0,0,0-.086-.767,3.584,3.584,0,0,0-.261-.745.7.7,0,0,1,1.27-.607,5.032,5.032,0,0,1,.366,1.038,4.806,4.806,0,0,1,.125,1.081,5.427,5.427,0,0,1-2.3,4.289,9.157,9.157,0,0,1-10.6,0,5.425,5.425,0,0,1-2.3-4.289,4.782,4.782,0,0,1,.125-1.081,5.009,5.009,0,0,1,.366-1.037" transform="translate(-125.443 -108.8)" fill="#070203"/>
            <path id="パス_4335" data-name="パス 4335" d="M142.423,155.327a.706.706,0,0,1,0-1.413h7.185a.706.706,0,1,1,0,1.413Z" transform="translate(-104.941 -113.973)" fill="#070203"/>
            <path id="パス_4336" data-name="パス 4336" d="M123.328,58.5c-6.147,6.841-10.348,9.2-22.437,10.583,4.376-3.291,6.162-4.325,8.411-13.72.249-.008,13.533,2.636,14.026,3.137" transform="translate(-74.709 -40.999)" fill="#070203" fill-rule="evenodd"/>
            <path id="パス_4337" data-name="パス 4337" d="M2.986,324.046c.092-.464.223-1.084.4-1.924.627-2.974,1.836-8.7,3.035-13.275s2.389-7.992,4.913-10.784a30.336,30.336,0,0,1,8.862-6.155c2.48-1.2,3.583-1.429,4.216-1.372s.8.4,1.58.816a23.9,23.9,0,0,0,4.273,1.463,61.959,61.959,0,0,0,7.4,1.591,37.016,37.016,0,0,0,7.292.247,62.336,62.336,0,0,0,7.557-.826,22.983,22.983,0,0,0,4.982-1.45,14.7,14.7,0,0,0,2.631-1.405c.466-.337.472-.471,1.445-.246a38.3,38.3,0,0,1,4.9,1.6,19.01,19.01,0,0,1,10.946,10.181,47.489,47.489,0,0,1,2.972,9.677c.8,3.56,1.554,7.365,1.994,9.631a17.271,17.271,0,0,1,.35,2.23Z" transform="translate(-2.211 -215.136)" fill="#ffcc10" fill-rule="evenodd"/>
            <path id="パス_4338" data-name="パス 4338" d="M128.644,295.022a.705.705,0,1,1,.469,1.33,42.92,42.92,0,0,1-7.229,1.862,46.5,46.5,0,0,1-15.22,0,42.913,42.913,0,0,1-7.229-1.862.705.705,0,1,1,.469-1.33,41.515,41.515,0,0,0,6.992,1.8,45.3,45.3,0,0,0,14.756,0,41.531,41.531,0,0,0,6.992-1.8" transform="translate(-73.283 -218.433)" fill="#070203"/>
            <path id="パス_4339" data-name="パス 4339" d="M22.465,286.765a.7.7,0,0,1,.425,1.341l-.017.005c-3.752,1.149-7.505,2.3-10.488,4.555a16.744,16.744,0,0,0-3.922,4.268,28.572,28.572,0,0,0-3.048,6.511c-1.641,4.843-2.829,11.257-3.983,17.791H0C1.176,314.57,2.383,308,4.081,302.993a29.95,29.95,0,0,1,3.2-6.831,18.141,18.141,0,0,1,4.253-4.621c3.172-2.4,7.051-3.588,10.929-4.776" transform="translate(0 -212.326)" fill="#070203"/>
            <path id="パス_4340" data-name="パス 4340" d="M223.787,288.107a.7.7,0,0,1,.425-1.341c3.878,1.187,7.757,2.375,10.929,4.775a18.153,18.153,0,0,1,4.253,4.621,29.976,29.976,0,0,1,3.2,6.831c1.7,5.011,2.905,11.577,4.081,18.244h-1.434c-1.154-6.534-2.342-12.948-3.983-17.791a28.61,28.61,0,0,0-3.048-6.511,16.769,16.769,0,0,0-3.922-4.268c-2.983-2.257-6.736-3.406-10.488-4.555Z" transform="translate(-165.356 -212.327)" fill="#070203"/>
            <path id="パス_4341" data-name="パス 4341" d="M50.661,342.784a.7.7,0,0,1,1.38-.276L52.3,343.8a.7.7,0,1,1-1.38.276Zm.785,3.881a.7.7,0,0,1,1.38-.276l.42,2.076a19.591,19.591,0,0,1,.478,4.591c.036,2.085,0,5.492-.041,9.062H52.275c.043-3.564.077-6.966.041-9.04a18.4,18.4,0,0,0-.438-4.274.7.7,0,0,1-.026-.126Z" transform="translate(-37.504 -253.208)" fill="#070203"/>
            <path id="パス_4342" data-name="パス 4342" d="M252.8,342.509a.7.7,0,1,1,1.38.276l-.262,1.293a.7.7,0,1,1-1.38-.276Zm-.785,3.881a.7.7,0,0,1,1.38.276l-.407,2.012a.755.755,0,0,1-.026.127,18.426,18.426,0,0,0-.438,4.273c-.036,2.073,0,5.476.041,9.04h-1.408c-.043-3.569-.077-6.976-.041-9.062a19.593,19.593,0,0,1,.479-4.591Z" transform="translate(-185.939 -253.208)" fill="#070203"/>
          </g>
        </g>
      </g>
    </g>
    <path id="パス_4315" data-name="パス 4315" d="M63.1,0A59.9,59.9,0,0,0,16,96.905a27.684,27.684,0,0,1-14.822,6.768,1.315,1.315,0,0,0-.431,2.487c7.513,3.163,15.379,4.46,25.243.755A59.9,59.9,0,1,0,63.1,0" transform="translate(-622.097 3301.937) rotate(-3)" fill="#ef9f00" stroke="#333" stroke-width="3"/>
    <g id="グループ_8040" data-name="グループ 8040" transform="translate(-594.228 3326.49)">
      <g id="グループ_8028" data-name="グループ 8028" transform="translate(0 14.695)">
        <g transform="matrix(1, 0, 0, 1, -271.92, -106.69)" filter="url(#パス_5082)">
          <path id="パス_5082-2" data-name="パス 5082" d="M2.624,0h14.24V-3.808H12.416v-19.9H8.928a14.773,14.773,0,0,1-5.5,2.016v2.912H7.712V-3.808H2.624ZM27.68.448a8,8,0,0,0,8.288-8.32c0-5.152-3.328-7.52-7.3-7.52a6.22,6.22,0,0,0-2.848.672l.448-5.024H34.88v-3.968H22.208l-.64,11.52,2.144,1.408a5.666,5.666,0,0,1,3.552-1.248c2.4,0,4,1.536,4,4.288a3.976,3.976,0,0,1-4.192,4.352,7.361,7.361,0,0,1-5.216-2.4L19.68-2.784A10.793,10.793,0,0,0,27.68.448Zm19.456,0c4.832,0,8-4.224,8-12.384s-3.168-12.192-8-12.192-8.032,4-8.032,12.192C39.1-3.776,42.3.448,47.136.448Zm0-3.68c-2.048,0-3.584-2.048-3.584-8.7,0-6.624,1.536-8.544,3.584-8.544s3.552,1.92,3.552,8.544C50.688-5.28,49.184-3.232,47.136-3.232ZM65.984.448c4.832,0,8-4.224,8-12.384s-3.168-12.192-8-12.192-8.032,4-8.032,12.192C57.952-3.776,61.152.448,65.984.448Zm0-3.68c-2.048,0-3.584-2.048-3.584-8.7,0-6.624,1.536-8.544,3.584-8.544s3.552,1.92,3.552,8.544C69.536-5.28,68.032-3.232,65.984-3.232Z" transform="translate(261.92 143.69)" fill="#fef36b" stroke="#333" stroke-linecap="round" stroke-width="2"/>
        </g>
        <g transform="matrix(1, 0, 0, 1, -271.92, -106.69)" filter="url(#パス_5083)">
          <path id="パス_5083-2" data-name="パス 5083" d="M10.564-7.866v-4.788h4.75v4.788ZM3.838-12.654H8.322v4.788H3.838ZM17.594-14.9H1.558V1.634h2.28V-5.624H15.314v4.6c0,.323-.133.437-.494.456-.38,0-1.615.019-2.7-.057a9.235,9.235,0,0,1,.817,2.261,8.778,8.778,0,0,0,3.591-.418c.8-.361,1.064-.988,1.064-2.223Z" transform="translate(341.11 142.05)" fill="#fff"/>
        </g>
      </g>
      <path id="パス_5084" data-name="パス 5084" d="M4.005-10.2v2.64H2.625V-10.2ZM2.625-3.18V-6h1.38v2.82ZM5.67-11.79H.975V-.27h1.65V-1.59H5.67Zm.885,8.94A10.553,10.553,0,0,1,8.265-.33L9.8-1.215A10.35,10.35,0,0,0,7.98-3.675ZM14.49-6.69V-8.25H11.07V-9.57h3v-1.56h-3v-1.575H9.315v1.575H6.435v1.56h2.88v1.32H5.925v1.56h5.3V-5.4H5.955v1.545H11.22V-.63c0,.21-.075.27-.315.27S9.84-.36,9.12-.39a6.016,6.016,0,0,1,.57,1.68A6.641,6.641,0,0,0,12.2.99c.585-.27.75-.72.75-1.575v-3.27h1.44V-5.4h-1.44V-6.69Zm3.375,2.76a10.906,10.906,0,0,1-.8,3.48A8.817,8.817,0,0,1,18.435.2a13.868,13.868,0,0,0,.9-3.87Zm3.255.27a17.749,17.749,0,0,1,.87,2.79l1.32-.48a16.538,16.538,0,0,0-.93-2.7Zm-.315-3.7c.18.33.36.7.525,1.08l-1.44.06c.945-1.215,1.98-2.73,2.805-4.035l-1.455-.675A27.2,27.2,0,0,1,19.9-8.505c-.15-.18-.315-.39-.51-.6.54-.84,1.14-1.995,1.68-3.015l-1.545-.57a19.015,19.015,0,0,1-1.095,2.61c-.12-.1-.24-.21-.345-.3l-.855,1.215A14.719,14.719,0,0,1,19-7.125c-.24.345-.48.675-.7.96l-1.08.045.15,1.545,2.175-.135V1.32H21.09V-4.815l.765-.06a7.191,7.191,0,0,1,.195.765l1.26-.57a12.716,12.716,0,0,0-1.32-3.18Zm7.815,3.96v2.34h-3.3v-2.34Zm-4.95,4.7h1.65V.5h3.3V1.23h1.71V-4.98H23.67Zm1.065-9.21A17.388,17.388,0,0,0,26.82-10.7a20.918,20.918,0,0,0,2.2,2.775ZM25.92-12.5a14.431,14.431,0,0,1-3.78,4.47,8.211,8.211,0,0,1,1.02,1.56,11.778,11.778,0,0,0,1.305-1.17V-6.3H29.4V-7.53a12.8,12.8,0,0,0,1.095.975,11.018,11.018,0,0,1,1.1-1.665A14.72,14.72,0,0,1,27.615-12.5Z" transform="translate(21.375 17)" fill="#333"/>
    </g>
  </g>
</svg>
