<svg xmlns="http://www.w3.org/2000/svg" xmlns:xlink="http://www.w3.org/1999/xlink" width="375.173" height="272" viewBox="0 0 375.173 272">
  <defs>
    <filter id="パス_5087" x="268.763" y="118.558" width="37.334" height="26.128" filterUnits="userSpaceOnUse">
      <feOffset input="SourceAlpha"/>
      <feGaussianBlur result="blur"/>
      <feFlood flood-opacity="0.161"/>
      <feComposite operator="in" in2="blur"/>
      <feComposite in="SourceGraphic"/>
    </filter>
    <filter id="パス_5088" x="311.606" y="127.149" width="36.176" height="16.53" filterUnits="userSpaceOnUse">
      <feOffset input="SourceAlpha"/>
      <feGaussianBlur result="blur-2"/>
      <feFlood flood-opacity="0.161"/>
      <feComposite operator="in" in2="blur-2"/>
      <feComposite in="SourceGraphic"/>
    </filter>
    <clipPath id="clip-path">
      <circle id="楕円形_50" data-name="楕円形 50" cx="56" cy="56" r="56" transform="translate(0 0)" fill="#fff" stroke="#ef9f00" stroke-width="5"/>
    </clipPath>
    <clipPath id="clip-path-2">
      <rect id="長方形_23947" data-name="長方形 23947" width="75.578" height="107.291" fill="none"/>
    </clipPath>
  </defs>
  <g id="グループ_8066" data-name="グループ 8066" transform="translate(-937 -2274)">
    <g id="長方形_23931" data-name="長方形 23931" transform="translate(937 2274)" fill="#fef36b" stroke="#ef9f00" stroke-width="5">
      <rect width="360" height="272" stroke="none"/>
      <rect x="2.5" y="2.5" width="355" height="267" fill="none"/>
    </g>
    <g id="グループ_8037" data-name="グループ 8037" transform="translate(190 -28)">
      <path id="パス_1732" data-name="パス 1732" d="M21.739,0H195.653c12.006,0,21.739,8.711,21.739,19.456s-9.733,19.456-21.739,19.456H21.739C9.733,38.912,0,30.2,0,19.456S9.733,0,21.739,0Z" transform="translate(818.728 2325.768)" fill="#ef9f00"/>
      <path id="パス_5085" data-name="パス 5085" d="M-67.36-.88v-1.5H-77.872V-4.016H-67.36V-5.392H-78.192v-1.76h5.44v-5.856h2.144v5.856h5.376v8.56H-67.36V.832H-78.272V-.88Zm-8.784-11.392a40.027,40.027,0,0,1,2.032,4.064l-1.9.656q-.944-2.1-2.032-4.048Zm10.832.512a29.293,29.293,0,0,1-2.032,4.224l-1.9-.688a28.966,28.966,0,0,0,1.968-4.144ZM-49.2-.848h2.912V1.008H-55.2V-.848h3.872V-8h-3.024V-9.808h3.024v-3.1H-49.2v3.1h2.688V-8H-49.2Zm-7.648-9.824h2.08V-8.8A14.047,14.047,0,0,1-56-6.464q1.536,1.536,2.544,2.688l-1.408,1.248q-.848-1.008-2.048-2.224v6.24h-2.08v-4.96A11.948,11.948,0,0,1-60.928-2.16l-.5-2.176a9.976,9.976,0,0,0,4.4-4.464H-60.96v-1.872h2.032v-2.336h2.08Zm26.256,5.344-1.648.784q-.624-1.264-1.36-2.544l1.648-.832Q-31.216-6.56-30.592-5.328ZM-28-5.84l-1.68.8q-.72-1.392-1.392-2.592l1.68-.848Q-28.816-7.44-28-5.84Zm-14.736-5.52q6.464,0,13.152-.32l.08,1.92a11.675,11.675,0,0,0-5.792,1.7,4.114,4.114,0,0,0-1.936,3.448,3.37,3.37,0,0,0,1.08,2.656,4.163,4.163,0,0,0,2.872.96,10.6,10.6,0,0,0,1.952-.192l.24,1.952a12.559,12.559,0,0,1-2.3.224A6.539,6.539,0,0,1-37.856-.464,4.964,4.964,0,0,1-39.52-4.4a5.084,5.084,0,0,1,.912-2.912,7.07,7.07,0,0,1,2.592-2.24v-.032q-3.5.144-6.72.144ZM-20.16-6.688h1.088V-7.7H-20.16Zm0,1.328V-4.3h1.088V-5.36Zm.048,2.56v.96h2.4v.928q.1-.016.288-.032t.288-.032q.688-3.088,1.12-5.632h-1.536V-2.8Zm-3.056-3.888h1.088V-7.7h-1.088Zm0,2.384h1.088V-5.36h-1.088Zm5.888-6.256v-1.808h6.128v1.808Zm3.44,5.776,1.808-.464a64.879,64.879,0,0,1,1.552,6.3l-1.856.448q-.048-.24-.152-.712t-.136-.664Q-15.68.72-18.1.96l-.048-1.152h-1.968V1.552h-2.016V-.192H-25.12V-1.84h2.992V-2.8H-24.8V-9.2h2.672v-.96H-25.12v-1.648h2.992v-1.2h2.016v1.2h2.4v1.648h-2.4v.96h2.56v.768h6.88v1.824H-14.08q-.528,3.12-1.024,5.36.688-.1,2.1-.32Q-13.488-3.52-13.84-4.784Zm8.368-1.024h.912V-7.6h-.912Zm.912,3.152V-4.288h-.912v1.856Q-5.168-2.5-4.56-2.656Zm2.7-5.952q-.24-.96-.464-1.744h-.592v1.744Zm2.24,0q.272-.88.464-1.744H-.512q.048.176.432,1.744Zm2.72,0q-.016-.272-.024-.864t-.008-.88H2.528q-.176.9-.416,1.744ZM-.528-2.272v.992H.96v-.992Zm0-1.5H.96V-4.72H-.528ZM-4.56-10.832h-.912V-9.12h.912ZM5.92-.848q.224,0,.448-2.416l1.392.7Q7.536,1.392,6.112,1.392,4.8,1.392,4.128-.464A15.15,15.15,0,0,1,1.92,1.328L1.088.24H-.528V.992H-2.352v-7.28h5.04v4.832q.592-.576.944-.992a38.294,38.294,0,0,1-.448-4.56h-6.1V1.52H-4.56V-.832q-1.488.368-2.976.624l-.176-1.76q.144-.016.64-.128v-8.736h-.5v-1.76H-2.4V-12H-.928v-1.232h2.08V-12H3.04v-1.152H4.912v1.2l1.152-.56A25.9,25.9,0,0,1,7.408-9.52l-1.424.64Q5.52-10.016,4.912-11.3q.032,1.808.064,2.688H7.52v1.6H5.04q.032.976.128,2.176Q5.68-5.856,6.016-6.7l1.536.8A20.474,20.474,0,0,1,5.5-2.064Q5.744-.848,5.92-.848Zm7.152-11.584,2.176.064Q15.04-8.624,15.04-5.28a9.416,9.416,0,0,0,.28,2.632,2.034,2.034,0,0,0,.808,1.216,3.021,3.021,0,0,0,1.52.312q3.04,0,4.864-4.608l1.9.736q-2.192,5.9-6.768,5.9-2.72,0-3.76-1.32T12.848-5.28Q12.848-8.7,13.072-12.432ZM42.048-6.208a54.114,54.114,0,0,0-6.464.368l-.128-1.792A56.591,56.591,0,0,1,42.048-8Zm.128,4.72L42.416.32A18.346,18.346,0,0,1,39.04.64a6.71,6.71,0,0,1-3.528-.808,2.383,2.383,0,0,1-1.32-2.072,3.362,3.362,0,0,1,1.6-2.48l1.456.928a5.777,5.777,0,0,0-.832.808.909.909,0,0,0-.208.536q0,.56.76.92a4.916,4.916,0,0,0,2.072.36A17.178,17.178,0,0,0,42.176-1.488ZM29.44-9.28v-1.808h2.544q.224-1.28.336-1.936l2.032.176q-.192,1.184-.3,1.76h5.584V-9.28H33.7A82.106,82.106,0,0,1,30.976.928L28.96.464A80.663,80.663,0,0,0,31.616-9.28Zm24.224.128V-8.4h4.56v-.752Zm0-1.2h4.56v-.72h-4.56Zm-2.016-2.336h8.7v5.552h-8.7ZM58.7,1.44q-.592,0-1.84-.08l-.1-1.68q.832.08,1.3.08a.513.513,0,0,0,.424-.168A1.729,1.729,0,0,0,58.7-1.16a14.054,14.054,0,0,0,.08-1.752V-3.12h-.208A12.545,12.545,0,0,1,56.688-.488a12.965,12.965,0,0,1-2.5,2.168L53.008.512a11.823,11.823,0,0,0,2.048-1.624,12.115,12.115,0,0,0,1.68-2.008H55.76a14.74,14.74,0,0,1-2.224,2.2A13.815,13.815,0,0,1,50.9.8L49.84-.416A13.47,13.47,0,0,0,53.7-3.12H52.528a10.8,10.8,0,0,1-1.1.656l.064.64a27.91,27.91,0,0,1-4.96,1.76l-.256-1.824q1.088-.224,1.456-.32V-7.36H46.336V-9.072h1.392v-3.68h2.048v3.68H51.2V-7.36H49.776v4.592q.112-.032.32-.1L50.472-3l.312-.1-.416-.528a10.183,10.183,0,0,0,2.3-1.488H50.9v-1.5h10.24v1.5h-6.3q-.176.192-.544.56h6.48v1.312A15.5,15.5,0,0,1,60.552-.24,2.386,2.386,0,0,1,59.928,1.1,1.893,1.893,0,0,1,58.7,1.44ZM68.048.688V1.44H65.92V-5.488H77.44V1.44H75.312V.688ZM76.16-8v1.072H67.2V-8q-.976.624-2.128,1.216L64.24-8.528a28.43,28.43,0,0,0,3.28-2.056,25.634,25.634,0,0,0,2.816-2.424h2.688a25.634,25.634,0,0,0,2.816,2.424,28.43,28.43,0,0,0,3.28,2.056l-.832,1.744Q77.136-7.376,76.16-8Zm-.944-.64a24.108,24.108,0,0,1-3.536-3.008A24.108,24.108,0,0,1,68.144-8.64Zm.1,7.68V-3.792H68.048V-.96Z" transform="translate(927 2351)" fill="#fff"/>
    </g>
    <rect id="長方形_23930" data-name="長方形 23930" width="235" height="31" transform="translate(1000 2490)" fill="#039e8e"/>
    <path id="パス_5089" data-name="パス 5089" d="M9-10.62a1.36,1.36,0,0,0,1.35-1.35A1.36,1.36,0,0,0,9-13.32a1.36,1.36,0,0,0-1.35,1.35A1.36,1.36,0,0,0,9-10.62ZM9-7.362,3.06-13.3l-.522.522,5.94,5.94L2.52-.882l.522.522L9-6.318l5.94,5.94L15.462-.9,9.522-6.84l5.94-5.94L14.94-13.3ZM5.22-6.84A1.36,1.36,0,0,0,3.87-8.19,1.36,1.36,0,0,0,2.52-6.84,1.36,1.36,0,0,0,3.87-5.49,1.36,1.36,0,0,0,5.22-6.84Zm7.56,0a1.36,1.36,0,0,0,1.35,1.35,1.36,1.36,0,0,0,1.35-1.35,1.36,1.36,0,0,0-1.35-1.35A1.36,1.36,0,0,0,12.78-6.84ZM9-3.06A1.36,1.36,0,0,0,7.65-1.71,1.36,1.36,0,0,0,9-.36a1.36,1.36,0,0,0,1.35-1.35A1.36,1.36,0,0,0,9-3.06ZM25.272-9.648a17.479,17.479,0,0,0,3.834-3.816,18.025,18.025,0,0,0,4.05,3.816ZM24.93-8.1h8.424V-9.5A22.586,22.586,0,0,0,36.54-7.632,8.148,8.148,0,0,1,37.6-9.144a18.1,18.1,0,0,1-7.7-5.94H28.17a18.2,18.2,0,0,1-7.362,6.192,6.1,6.1,0,0,1,.99,1.368A22.152,22.152,0,0,0,24.93-9.4Zm-3.1,3.438H26.3A30.651,30.651,0,0,1,24.624-.9L21.96-.81,22.176.828C25.236.7,29.808.5,34.092.288a12.284,12.284,0,0,1,.792,1.17L36.414.5a22.905,22.905,0,0,0-4.176-4.626l-1.44.774a26.24,26.24,0,0,1,2.088,2.142c-2.2.09-4.428.18-6.426.252.648-1.152,1.314-2.5,1.908-3.708h8.244V-6.228H21.834Zm26.892-.324c-.414-.378-1.908-1.674-2.754-2.358a16.633,16.633,0,0,0,2.232-3.87l-.936-.63-.288.054H45.738V-15.1H44.082v3.312H41.364v1.53H46.08a14.834,14.834,0,0,1-5.346,5.508A7.9,7.9,0,0,1,41.562-3.2a15.859,15.859,0,0,0,2.52-2.016V1.422h1.656V-5.742c.738.738,1.548,1.6,1.962,2.124Zm5,4.248V-7.794h3.636v-1.62H53.73v-5.544H52.02v5.544H48.384v1.62H52.02V-.738H47.664V.918h10.08V-.738Zm16.65-11.79a12.08,12.08,0,0,1-1.17,1.512H65.052a15.482,15.482,0,0,0,1.386-1.512Zm3.492,4.212h-8.55V-9.684h8.55Zm0,2.628h-8.55V-7.056h8.55Zm0,2.646h-8.55V-4.428h8.55ZM63.666-1.71H75.6v-9.306H71.19a13.157,13.157,0,0,0,1.53-2.142l-1.134-.756-.27.09H67.428c.2-.306.414-.612.594-.918l-1.836-.36a13.347,13.347,0,0,1-4.842,4.86,5.993,5.993,0,0,1,1.242,1.188c.378-.252.738-.5,1.08-.774Zm2.934.09A20.307,20.307,0,0,1,61.47.18a11.322,11.322,0,0,1,1.314,1.314A23.76,23.76,0,0,0,68.2-.882Zm4.32.936A34.824,34.824,0,0,1,75.636,1.44l1.836-.9c-1.26-.612-3.348-1.476-5.2-2.142Zm23.994-8.5H89.838v-3.15h5.076Zm0,4.734H89.838V-7.632h5.076Zm1.674-9.432h-8.37v11h8.37ZM87.66-5.9l-.2-1.53-1.926.522v-3.114h2.052v-1.548H85.536V-15.1h-1.62v3.528H81.522v1.548h2.394V-6.48c-.99.252-1.89.486-2.628.648l.45,1.6c.684-.18,1.4-.4,2.178-.612V-.576c0,.27-.108.342-.36.36-.216,0-.972,0-1.764-.018a6.156,6.156,0,0,1,.486,1.512A6.119,6.119,0,0,0,84.834.972c.522-.234.7-.666.7-1.53V-5.292ZM86.922-.81V.738H97.794V-.81ZM102.15-12.06l.18,1.962c2.016-.432,6.21-.864,8.028-1.044a7.22,7.22,0,0,0-3.06,5.85c0,3.96,3.69,5.85,7.218,6.03l.648-1.926c-2.97-.126-6.03-1.224-6.03-4.5a5.968,5.968,0,0,1,3.978-5.418,17.346,17.346,0,0,1,3.51-.252v-1.818c-1.242.036-3.042.144-4.968.306-3.312.288-6.516.594-7.83.72C103.464-12.114,102.834-12.078,102.15-12.06Zm11.88,2.7-1.08.468a17.022,17.022,0,0,1,1.44,2.52l1.116-.5A25.129,25.129,0,0,0,114.03-9.36Zm2-.774-1.08.486a16.893,16.893,0,0,1,1.512,2.484l1.1-.522A26,26,0,0,0,116.028-10.134Zm12.33,1.4c2.142-.5,3.33-1.26,4.014-2.358a5.33,5.33,0,0,0,3.294,2.358Zm5.922,2.07h-8.442V-7.668h8.442Zm0,2.034h-8.442V-5.652h8.442Zm0,2.07h-8.442V-3.6h8.442Zm-2.844-10.08c-.414,1.476-1.44,2.34-4.338,2.808a4.347,4.347,0,0,1,.738,1.1h-3.618v7.236h11.736V-8.64c.414.108.882.216,1.386.306a4.693,4.693,0,0,1,.846-1.368c-3.654-.486-4.662-1.638-5.058-2.934h2.484a8.63,8.63,0,0,1-.9,1.224l1.314.414a11.375,11.375,0,0,0,1.746-2.61l-1.116-.288-.252.054h-5.778a9.591,9.591,0,0,0,.558-1.026l-1.512-.234a7.5,7.5,0,0,1-2.664,3.15,4.865,4.865,0,0,1,1.26.81,8.614,8.614,0,0,0,1.53-1.494Zm-4.3-.792a22.2,22.2,0,0,0-3.762-1.332l-.738,1.134A24.875,24.875,0,0,1,126.4-12.15Zm-.27,1.98c-1.854.486-3.762.99-5.076,1.26l.666,1.476c1.332-.414,3.006-.9,4.572-1.422Zm.288,9.99A19.68,19.68,0,0,1,121.914.234a11.76,11.76,0,0,1,1.26,1.242,23.845,23.845,0,0,0,5.508-2.232Zm4.1.882a36.381,36.381,0,0,1,4.824,2.034l1.926-.792a56.861,56.861,0,0,0-5.382-2.088Zm19.44-4.59a15.008,15.008,0,0,0,2.574-1.8,13.546,13.546,0,0,0,2.664,1.8Zm.27,4.428V-3.744h4.446V-.738Zm-2.538-5.778c-.342-.414-1.746-2.142-2.232-2.664v-.612h1.548l-.126.108a8.77,8.77,0,0,1,1.3,1.116,15.809,15.809,0,0,0,1.584-1.674,13.787,13.787,0,0,0,1.638,2.178,14.157,14.157,0,0,1-4.428,2.538Zm6.66-5.238a11.4,11.4,0,0,1-1.854,2.664,10.772,10.772,0,0,1-1.8-2.412l.162-.252Zm1.062-1.512-.306.072h-3.42a15.917,15.917,0,0,0,.684-1.494l-1.6-.432a13.227,13.227,0,0,1-3.114,4.752v-.972h-2.2V-15.1H144.63v3.762h-2.538v1.548h2.376a19.01,19.01,0,0,1-2.79,6.462,7.009,7.009,0,0,1,.81,1.494,17.49,17.49,0,0,0,2.142-4.536V1.4H146.2V-7.29c.432.648.9,1.368,1.17,1.872l-.108.036a6.149,6.149,0,0,1,.954,1.35c.414-.144.81-.306,1.206-.486v5.94h1.548V.72h4.446v.648h1.62v-6.03c.2.09.4.162.594.234a7.3,7.3,0,0,1,1.044-1.4,12.383,12.383,0,0,1-4.284-2.214,12.983,12.983,0,0,0,2.808-4.734Zm13.626-1.062-1.872-.144a8.964,8.964,0,0,1-.414,2.142c-.36.018-.72.018-1.062.018a23.266,23.266,0,0,1-3.1-.2v1.692c1.008.072,2.25.108,3.006.108h.522a18.086,18.086,0,0,1-4.068,5.256L164.34-4.3a19.578,19.578,0,0,1,1.638-1.926,4.588,4.588,0,0,1,2.988-1.3,1.449,1.449,0,0,1,1.476.9c-2.088,1.062-4.248,2.466-4.248,4.68,0,2.232,2.088,2.862,4.77,2.862a45.837,45.837,0,0,0,5-.324l.054-1.818a30.651,30.651,0,0,1-5,.468c-1.818,0-2.988-.252-2.988-1.476,0-1.062.972-1.89,2.52-2.736-.018.882-.036,1.908-.072,2.538h1.71c-.018-.864-.036-2.3-.054-3.33,1.26-.576,2.43-1.044,3.348-1.4.54-.216,1.314-.5,1.836-.666l-.738-1.656c-.576.288-1.1.522-1.71.792-.846.4-1.764.774-2.88,1.3a2.369,2.369,0,0,0-2.412-1.53,5.286,5.286,0,0,0-2.3.54,14.445,14.445,0,0,0,1.386-2.376,55.616,55.616,0,0,0,5.922-.468v-1.674a41.5,41.5,0,0,1-5.292.522C169.524-13.158,169.668-13.824,169.776-14.328Zm20.2,1.854h.738v1.386h5.706a20,20,0,0,1-1.944,6.138,22.755,22.755,0,0,1-1.944-6.084l-1.62.324a25.354,25.354,0,0,0,2.556,7.4A10.255,10.255,0,0,1,189.972-.18Zm-4.7,9.666V-5.184h3.078V-3.24Zm3.078-9.666v2.088h-3.078v-2.088Zm-3.078,3.582h3.078v2.2h-3.078Zm11.9-3.888-.288.054h-5.706v-1.3h-8.82v1.548h1.314v9.882c-.63.072-1.188.162-1.692.216L182.286-.7c1.674-.27,3.888-.63,6.066-.99V1.386h1.62V-.09a6.469,6.469,0,0,1,1.044,1.3,12.329,12.329,0,0,0,3.438-2.988,11.317,11.317,0,0,0,3.384,3.024A6.373,6.373,0,0,1,198.99-.126a9.911,9.911,0,0,1-3.492-3.15,22.5,22.5,0,0,0,2.754-9.216Zm18.756.648h-5.364v-1.206h5.364Zm0,2.358h-5.364V-10.98h5.364Zm1.692-4.788h-8.676v6.03h8.676Zm-11.61-.486a13.233,13.233,0,0,1-3.744,3.582,9.335,9.335,0,0,1,.864,1.386,18.084,18.084,0,0,0,4.5-4.338Zm.4,3.906a16.531,16.531,0,0,1-4.392,4.734,12.351,12.351,0,0,1,.846,1.692,18.549,18.549,0,0,0,1.89-1.746V1.4h1.62v-9.72a20.333,20.333,0,0,0,1.512-2.232Zm2.484,8.676A15.892,15.892,0,0,1,211.032.072l1.26-.9a15.749,15.749,0,0,0-2.214-2.43Zm9.792-2.34h-2.574V-6.12h2.232V-7.506h-10.4V-6.12h6.5v1.314H207.5v1.44h6.93V-.36c0,.216-.072.27-.342.288-.252.018-1.116.018-2.016-.018a6.913,6.913,0,0,1,.54,1.512,7.734,7.734,0,0,0,2.736-.27c.594-.234.756-.648.756-1.476V-3.366h2.574Z" transform="translate(1007 2512)" fill="#fef36b"/>
    <g id="グループ_8044" data-name="グループ 8044" transform="translate(-4.158 -2.327)">
      <path id="パス_4315" data-name="パス 4315" d="M63.1,0A59.9,59.9,0,0,0,16,96.905a27.684,27.684,0,0,1-14.822,6.768,1.315,1.315,0,0,0-.431,2.487c7.513,3.163,15.379,4.46,25.243.755A59.9,59.9,0,1,0,63.1,0" transform="translate(1185.658 2343.764) rotate(-3)" fill="#ef9f00" stroke="#333" stroke-width="3"/>
      <g id="グループ_8040" data-name="グループ 8040" transform="translate(1213.078 2368.318)">
        <g id="グループ_8028" data-name="グループ 8028" transform="translate(7.08 14.695)">
          <g id="グループ_8076" data-name="グループ 8076">
            <g transform="matrix(1, 0, 0, 1, -279, -106.69)" filter="url(#パス_5087)">
              <path id="パス_5087-2" data-name="パス 5087" d="M1.376,0H17.248V-3.968h-5.12c-1.12,0-2.688.128-3.872.256,4.32-4.224,7.872-8.832,7.872-13.12,0-4.416-2.976-7.3-7.456-7.3-3.232,0-5.344,1.248-7.52,3.584l2.56,2.56c1.216-1.312,2.624-2.432,4.352-2.432,2.272,0,3.552,1.44,3.552,3.84,0,3.648-3.808,8.1-10.24,13.856ZM20.224,0H36.1V-3.968h-5.12c-1.12,0-2.688.128-3.872.256,4.32-4.224,7.872-8.832,7.872-13.12,0-4.416-2.976-7.3-7.456-7.3-3.232,0-5.344,1.248-7.52,3.584l2.56,2.56c1.216-1.312,2.624-2.432,4.352-2.432,2.272,0,3.552,1.44,3.552,3.84,0,3.648-3.808,8.1-10.24,13.856Z" transform="translate(269 143.69)" fill="#fef36b" stroke="#333" stroke-linecap="round" stroke-width="2"/>
            </g>
            <g transform="matrix(1, 0, 0, 1, -279, -106.69)" filter="url(#パス_5088)">
              <path id="パス_5088-2" data-name="パス 5088" d="M17.86-12.578V-14.8H1.159v2.223H5.586C5.453-8,5.3-2.945.418-.209A6.761,6.761,0,0,1,2.052,1.615C5.586-.513,6.954-3.8,7.543-7.315H13.87c-.209,4.066-.513,5.928-1.007,6.4a1.222,1.222,0,0,1-.893.247c-.57,0-1.862,0-3.173-.114a5.431,5.431,0,0,1,.8,2.223A23.226,23.226,0,0,0,12.9,1.425a2.754,2.754,0,0,0,2.033-.95C15.675-.361,16-2.66,16.283-8.493c.038-.285.057-1.007.057-1.007H7.809c.1-1.026.133-2.071.171-3.078Zm11.7,4.712v-4.788h4.75v4.788Zm-6.726-4.788h4.484v4.788H22.838ZM36.594-14.9H20.558V1.634h2.28V-5.624H34.314v4.6c0,.323-.133.437-.494.456-.38,0-1.615.019-2.7-.057a9.235,9.235,0,0,1,.817,2.261,8.778,8.778,0,0,0,3.591-.418c.8-.361,1.064-.988,1.064-2.223Z" transform="translate(311.19 142.05)" fill="#fff"/>
            </g>
          </g>
        </g>
        <path id="パス_5086" data-name="パス 5086" d="M4.575-4.905c.06-.63.09-1.26.105-1.83H10.7v1.83ZM10.7-10.26v1.83H4.68v-1.83ZM12.585-12H2.835v4.935c0,2.28-.21,5.145-2.475,7.08a7.045,7.045,0,0,1,1.38,1.29A8.069,8.069,0,0,0,4.275-3.18H10.7V-1c0,.315-.12.435-.48.435-.33,0-1.59.015-2.64-.045a7.657,7.657,0,0,1,.75,1.875A9.074,9.074,0,0,0,11.64.915c.69-.3.945-.81.945-1.89Zm17.13.24-.3.06H23.3v1.755H28.89A17.564,17.564,0,0,1,27.15-4.74a19.281,19.281,0,0,1-1.665-5.085l-1.71.3A22.846,22.846,0,0,0,26.01-3,9.6,9.6,0,0,1,22.77-.285v-12.33H21.03V-4.23l-1.14.27v-7.005H18.225V-3.57c-.375.075-.72.15-1.035.21l.405,1.83c1.02-.27,2.235-.585,3.435-.93V1.29h1.74V-.24a6.779,6.779,0,0,1,1.185,1.515,11.951,11.951,0,0,0,3.165-2.6,10.025,10.025,0,0,0,3.09,2.61A6.45,6.45,0,0,1,31.485-.27,8.708,8.708,0,0,1,28.29-2.925a20.613,20.613,0,0,0,2.64-8.49Z" transform="translate(21.08 17)" fill="#333"/>
      </g>
    </g>
    <g id="グループ_8075" data-name="グループ 8075" transform="translate(908 -1583.5)">
      <g id="楕円形_49" data-name="楕円形 49" transform="translate(153 3941)" fill="#ef9f00" stroke="#ef9f00" stroke-width="5">
        <circle cx="56" cy="56" r="56" stroke="none"/>
        <circle cx="56" cy="56" r="53.5" fill="none"/>
      </g>
      <g id="マスクグループ_32" data-name="マスクグループ 32" transform="translate(153 3941)" clip-path="url(#clip-path)">
        <g id="グループ_8071" data-name="グループ 8071" transform="translate(18.538 13.978)">
          <g id="グループ_8070" data-name="グループ 8070" clip-path="url(#clip-path-2)">
            <path id="パス_4343" data-name="パス 4343" d="M36.792,76.538a28.569,28.569,0,0,1-3.01-5.724,60.824,60.824,0,0,1-2.748-10.242A95.827,95.827,0,0,1,29.6,48.994a105.037,105.037,0,0,1-.12-11.555A38.856,38.856,0,0,1,31.1,27.163a46.8,46.8,0,0,1,4.484-9.473,53.551,53.551,0,0,1,4.887-6.875,22.244,22.244,0,0,1,5.982-5.339A25.034,25.034,0,0,1,55.583,2.43a26.26,26.26,0,0,1,8.4.452,17.541,17.541,0,0,1,5.46,1.878,24.3,24.3,0,0,1,4.789,3.914,56.72,56.72,0,0,1,6.449,7.274,36.314,36.314,0,0,1,4.537,8.678,48.167,48.167,0,0,1,2.13,8.216,64.109,64.109,0,0,1,.856,7.211,45.223,45.223,0,0,1-.183,8.692A112.909,112.909,0,0,1,85.63,60.96c-1.08,4.508-2.341,9.3-3.118,11.884s-1.069,2.975-2.551,4.13a18.076,18.076,0,0,1-9.606,3.779c-5.453.7-13.688.179-19.075-.273a83.436,83.436,0,0,1-9.659-1.188,11.762,11.762,0,0,1-3.255-1.007c-.592-.327-.846-.653-1.574-1.746" transform="translate(-21.613 -1.669)" fill="#ffcc10" fill-rule="evenodd"/>
            <path id="パス_4344" data-name="パス 4344" d="M3.491,294.7c.425-2.36,1.543-6.9,2.683-10.94a52.614,52.614,0,0,1,3.883-10.526,33.063,33.063,0,0,1,4.815-6.586,8.734,8.734,0,0,1,2.176-1.97c.437-.226.818-.286,1.05-.714s.314-1.223.613-2.066a5.842,5.842,0,0,1,1.841-2.6,15.343,15.343,0,0,1,4.172-2.316,38.518,38.518,0,0,1,4.612-1.339,23.278,23.278,0,0,1,5.01-.784c2.617-.171,6.81-.236,9.842-.1a28.091,28.091,0,0,1,7.158,1.128,55.983,55.983,0,0,1,6.713,2.411,7.685,7.685,0,0,1,3.438,2.365,12.081,12.081,0,0,1,1.029,2.6A2.755,2.755,0,0,0,63.6,264.52a13.066,13.066,0,0,1,1.558,1.362,27.833,27.833,0,0,1,3.124,3.643,46.375,46.375,0,0,1,3.444,5.878,43.878,43.878,0,0,1,3.011,7.366c.837,2.8,1.449,6.038,1.943,8.466.293,1.439.543,2.594.738,3.465Z" transform="translate(-2.569 -187.409)" fill="#fff" fill-rule="evenodd"/>
            <path id="パス_4345" data-name="パス 4345" d="M118.182,322.117a16.023,16.023,0,0,1-3.612-3.089,21.462,21.462,0,0,1-2.638-4,9.352,9.352,0,0,1-.9-2.021c-.083-.379,0-.563.324-.6a14.589,14.589,0,0,1,2.46.284,52.988,52.988,0,0,0,6.429.592,35.456,35.456,0,0,0,5.153-.411c1.057-.129,1.312-.085,1.145.414a18.612,18.612,0,0,1-1.506,2.655,36.906,36.906,0,0,1-2.573,3.765,14.11,14.11,0,0,1-2.445,2.333c-.615.458-.928.608-1.838.087" transform="translate(-81.68 -229.864)" fill="#070203" fill-rule="evenodd"/>
            <path id="パス_4346" data-name="パス 4346" d="M52.321,129.865c4.232.113,11.866.238,17.611.2s9.6-.25,12.451-.363,4.7-.131,6.118-.1a8.631,8.631,0,0,1,3.163.423,3.049,3.049,0,0,1,1.6,1.878,5.867,5.867,0,0,1,.31,3.568,7.524,7.524,0,0,1-2.144,3.161,11.936,11.936,0,0,1-1.969,1.518,3.351,3.351,0,0,0-.928.727,12.288,12.288,0,0,0-1.361,2.033c-.609,1.074-1.383,2.617-2.1,4.011a13.483,13.483,0,0,1-2.589,3.826,21.307,21.307,0,0,1-4.535,3.144,29.642,29.642,0,0,1-3.666,1.665c-.826.309-1.177.4-1.319,1.064a13.322,13.322,0,0,0,.1,3.475,32.968,32.968,0,0,0,.837,4.809,5.007,5.007,0,0,0,1.439,2.572,5.412,5.412,0,0,0,2.079,1.089,15.332,15.332,0,0,1,1.89.535c.35.2.267.471-.182,1.664s-1.264,3.3-1.9,4.785-1.1,2.332-1.9,2.72-1.924.316-3.747.281-4.34-.034-6.521-.165a32.231,32.231,0,0,1-5-.634c-.979-.237-1.092-.445-1.712-1.679s-1.749-3.494-2.281-4.854-.468-1.821-.064-2.093a5.372,5.372,0,0,1,2.031-.462,3.958,3.958,0,0,0,2.7-1.121,9.517,9.517,0,0,0,1.691-4.085,27.2,27.2,0,0,0,.523-4.373,7.028,7.028,0,0,0-.159-2.6c-.208-.493-.618-.6-1.884-1.089a24.719,24.719,0,0,1-5.123-2.6,17.8,17.8,0,0,1-4.21-4.4,29.834,29.834,0,0,1-2.59-4.437,21.7,21.7,0,0,0-1.028-2.329c-.307-.414-.746-.514-1.56-.989a12.3,12.3,0,0,1-2.891-2.338A7.8,7.8,0,0,1,41.782,135a6.675,6.675,0,0,1-.043-2.8,1.894,1.894,0,0,1,.79-1.342,6.609,6.609,0,0,1,1.775-.775,8.54,8.54,0,0,1,2.182-.4c.775-.03,1.6.071,5.835.184" transform="translate(-30.618 -95.351)" fill="#fff" fill-rule="evenodd"/>
            <path id="パス_4347" data-name="パス 4347" d="M129.822,194.053a.71.71,0,1,1,1.007,1,7,7,0,0,1-2.461,1.568,8.617,8.617,0,0,1-6.035,0,7,7,0,0,1-2.461-1.568.71.71,0,1,1,1.007-1,5.574,5.574,0,0,0,1.961,1.24,7.216,7.216,0,0,0,5.022,0,5.574,5.574,0,0,0,1.961-1.24" transform="translate(-88.053 -142.635)" fill="#070203"/>
            <path id="パス_4348" data-name="パス 4348" d="M107.222,193.417a.711.711,0,0,1,1.24.7,18.845,18.845,0,0,1-7.369,7.281,22.333,22.333,0,0,1-21,0,18.844,18.844,0,0,1-7.369-7.281.711.711,0,0,1,1.24-.7,17.42,17.42,0,0,0,6.813,6.731,20.935,20.935,0,0,0,19.634,0,17.42,17.42,0,0,0,6.813-6.731" transform="translate(-53.444 -142.054)" fill="#070203"/>
            <path id="パス_4349" data-name="パス 4349" d="M122.948,309.414a.71.71,0,1,1,.234,1.4q-1.891.319-3.818.479t-3.891.16a47.03,47.03,0,0,1-4.766-.242,45.013,45.013,0,0,1-4.653-.719.71.71,0,1,1,.289-1.39,43.638,43.638,0,0,0,4.5.7,45.665,45.665,0,0,0,4.627.231q1.914,0,3.774-.154,1.889-.157,3.7-.462" transform="translate(-77.62 -227.434)" fill="#070203"/>
            <path id="パス_4350" data-name="パス 4350" d="M42.1,128.4a.711.711,0,0,1,.142,1.414l-.055,0a3.134,3.134,0,0,0-2.105.608,2.8,2.8,0,0,0-.617,1.208,4.915,4.915,0,0,0-.131,1.745,6.482,6.482,0,0,0,.537,1.962A7.02,7.02,0,0,0,41,137.114a12.024,12.024,0,0,0,3.379,2.395.711.711,0,0,1-.684,1.246,13.124,13.124,0,0,1-3.763-2.7,8.481,8.481,0,0,1-1.354-2.138,7.912,7.912,0,0,1-.654-2.4,6.339,6.339,0,0,1,.17-2.251A3.6,3.6,0,0,1,42.1,128.4" transform="translate(-27.878 -94.48)" fill="#070203"/>
            <path id="パス_4351" data-name="パス 4351" d="M219.548,128.353a.71.71,0,0,1,.142-1.414,3.6,3.6,0,0,1,4.009,2.867,6.328,6.328,0,0,1,.17,2.252,7.912,7.912,0,0,1-.654,2.395,8.463,8.463,0,0,1-1.354,2.138,13.119,13.119,0,0,1-3.763,2.7.711.711,0,1,1-.684-1.246,12.035,12.035,0,0,0,3.38-2.4,7.02,7.02,0,0,0,1.126-1.771,6.493,6.493,0,0,0,.537-1.961,4.907,4.907,0,0,0-.131-1.745,2.8,2.8,0,0,0-.617-1.208,3.132,3.132,0,0,0-2.105-.608l-.055,0" transform="translate(-159.708 -93.403)" fill="#070203"/>
            <path id="パス_4352" data-name="パス 4352" d="M96.811,1.71a.71.71,0,1,1-.362,1.373c-1.479-.394-2.958-.788-4.433-1.089a26.436,26.436,0,0,0-4.5-.564,23.384,23.384,0,0,0-4.612.333,21.831,21.831,0,0,0-4.352,1.2,19.552,19.552,0,0,0-3.461,1.814,26.689,26.689,0,0,0-2.556,1.916,31.786,31.786,0,0,0-2.949,2.8l-.012.013h0A.712.712,0,0,1,68.567,8.5h0a32.962,32.962,0,0,1,3.054-2.9,28.009,28.009,0,0,1,2.69-2.016,20.979,20.979,0,0,1,3.716-1.942A23.263,23.263,0,0,1,82.665.361a24.79,24.79,0,0,1,4.89-.35A27.83,27.83,0,0,1,92.3.6c1.539.315,3.026.711,4.512,1.106" transform="translate(-50.3 0)" fill="#070203"/>
            <path id="パス_4353" data-name="パス 4353" d="M33.81,45.469a.71.71,0,0,1,1.257.662A98.816,98.816,0,0,0,29.99,56.694,43.379,43.379,0,0,0,28.328,62a41.659,41.659,0,0,0-.937,5.364,51.507,51.507,0,0,0-.275,5.5c0,1.88.072,3.847.178,5.944s.243,4.293.472,6.533a62.885,62.885,0,0,0,1.016,6.685,92.517,92.517,0,0,0,4.029,12.754.711.711,0,1,1-1.335.489,93.444,93.444,0,0,1-4.085-12.949,64.235,64.235,0,0,1-1.038-6.835c-.232-2.265-.371-4.5-.478-6.61S25.7,74.8,25.7,72.865a52.949,52.949,0,0,1,.28-5.65,43.036,43.036,0,0,1,.97-5.547,44.776,44.776,0,0,1,1.711-5.48A100,100,0,0,1,33.81,45.469" transform="translate(-18.91 -33.178)" fill="#070203"/>
            <path id="パス_4354" data-name="パス 4354" d="M185.226,14.727a.71.71,0,1,1,.89-1.107c1.52,1.228,3.039,2.456,4.553,3.89a33.334,33.334,0,0,1,4.363,4.986,42.88,42.88,0,0,1,3.8,6.651,52.551,52.551,0,0,1,2.858,7.659A48.3,48.3,0,0,1,203.2,44.4a53.426,53.426,0,0,1,.34,7.356,63.135,63.135,0,0,1-.573,7.21c-.325,2.406-.781,4.856-1.35,7.422-.572,2.583-1.248,5.241-1.974,7.937s-1.515,5.466-2.306,8.25a.71.71,0,1,1-1.368-.384c.781-2.748,1.562-5.5,2.3-8.234s1.409-5.375,1.963-7.876c.558-2.518,1.007-4.929,1.328-7.3a61.765,61.765,0,0,0,.562-7.049,52.1,52.1,0,0,0-.334-7.167,46.8,46.8,0,0,0-1.469-7.361,51.109,51.109,0,0,0-2.78-7.453,41.426,41.426,0,0,0-3.662-6.423,31.954,31.954,0,0,0-4.179-4.78c-1.44-1.363-2.955-2.588-4.47-3.812" transform="translate(-136.099 -9.907)" fill="#070203"/>
            <path id="パス_4355" data-name="パス 4355" d="M59.626,221.449a.709.709,0,0,1,1.418.011c-.009.808-.018,1.615.024,2.448a14.957,14.957,0,0,0,.315,2.474,34.566,34.566,0,0,0,1.944,5.5.708.708,0,0,1,0,.538.79.79,0,0,1-.076.141.71.71,0,0,1-.673.3.823.823,0,0,1-.176-.046.709.709,0,0,1-.39-.386,35.573,35.573,0,0,1-2.022-5.749,16.376,16.376,0,0,1-.343-2.707c-.042-.848-.033-1.687-.024-2.526" transform="translate(-43.869 -162.431)" fill="#070203"/>
            <path id="パス_4356" data-name="パス 4356" d="M208.818,223.9a.709.709,0,1,1,1.418-.011,24.279,24.279,0,0,1-.3,5.064,26.966,26.966,0,0,1-1.7,4.969.711.711,0,1,1-1.312-.545,25.857,25.857,0,0,0,1.615-4.7,23.074,23.074,0,0,0,.276-4.775" transform="translate(-152.222 -164.226)" fill="#070203"/>
            <path id="パス_4357" data-name="パス 4357" d="M86.666,235.619a.709.709,0,1,1,1.418.011c-.006.515-.011,1.029.015,1.564a9.414,9.414,0,0,0,.2,1.552,11.079,11.079,0,0,0,.329,1.167c.139.416.3.832.463,1.248a.709.709,0,0,1-1.318.523c-.179-.449-.347-.892-.491-1.321a12.649,12.649,0,0,1-.373-1.317,10.788,10.788,0,0,1-.226-1.786c-.027-.549-.021-1.1-.015-1.642" transform="translate(-63.767 -172.857)" fill="#070203"/>
            <path id="パス_4358" data-name="パス 4358" d="M185.2,238.057a.712.712,0,0,1,1.424,0h0c0,.019,0,.037,0,.055a14.426,14.426,0,0,1-.242,3.365c-.063.29-.14.578-.227.866-.076.252-.175.544-.291.865a.709.709,0,1,1-1.335-.478c.086-.239.174-.5.264-.8.079-.26.146-.513.2-.755a13.184,13.184,0,0,0,.214-3.05c0-.023,0-.047,0-.071Z" transform="translate(-135.752 -174.645)" fill="#070203"/>
            <path id="パス_4359" data-name="パス 4359" d="M139.166,167.043a.534.534,0,0,1,1.068,0V169.3a.534.534,0,1,1-1.068,0Z" transform="translate(-102.402 -122.522)" fill="#070203"/>
            <path id="パス_4360" data-name="パス 4360" d="M174.6,133.441a.534.534,0,1,1-.676.826,3.021,3.021,0,0,0-.81-.486,2.235,2.235,0,0,0-1.631,0,3.013,3.013,0,0,0-.81.486.534.534,0,0,1-.676-.826,4.062,4.062,0,0,1,1.1-.653,3.253,3.253,0,0,1,2.4,0,4.059,4.059,0,0,1,1.1.653" transform="translate(-124.942 -97.54)" fill="#070203"/>
            <path id="パス_4361" data-name="パス 4361" d="M94.426,134.267a.534.534,0,0,1-.676-.826,4.066,4.066,0,0,1,1.1-.653,3.253,3.253,0,0,1,2.4,0,4.063,4.063,0,0,1,1.1.653.534.534,0,0,1-.676.826,3.017,3.017,0,0,0-.81-.486,2.235,2.235,0,0,0-1.631,0,3.013,3.013,0,0,0-.81.486" transform="translate(-68.84 -97.54)" fill="#070203"/>
            <path id="パス_4362" data-name="パス 4362" d="M96.7,141.963c1.28,0,2.317,1.37,2.317,3.059s-1.037,3.059-2.317,3.059-2.318-1.37-2.318-3.059,1.038-3.059,2.318-3.059" transform="translate(-69.448 -104.46)" fill="#070203" fill-rule="evenodd"/>
            <path id="パス_4363" data-name="パス 4363" d="M172.645,141.963c1.28,0,2.317,1.37,2.317,3.059s-1.037,3.059-2.317,3.059-2.318-1.37-2.318-3.059,1.038-3.059,2.318-3.059" transform="translate(-125.331 -104.46)" fill="#070203" fill-rule="evenodd"/>
            <path id="パス_4364" data-name="パス 4364" d="M105.679,237.93a.71.71,0,0,1,1.418.061c-.05,1.137-.1,2.274-.2,3.351a15.733,15.733,0,0,1-.527,3c-.006.021-.014.041-.021.061a7.625,7.625,0,0,1-.968,2.038,5.579,5.579,0,0,1-1.513,1.529,3.7,3.7,0,0,1-1.407.564,6.321,6.321,0,0,1-1.192.08.712.712,0,1,1,0-1.424,5.51,5.51,0,0,0,.942-.052,2.315,2.315,0,0,0,.879-.358,4.145,4.145,0,0,0,1.118-1.14,6.2,6.2,0,0,0,.786-1.654c0-.019.009-.038.014-.057a14.3,14.3,0,0,0,.477-2.724c.1-1.032.148-2.155.2-3.279" transform="translate(-73.989 -174.575)" fill="#070203"/>
            <path id="パス_4365" data-name="パス 4365" d="M157.411,237.991a.71.71,0,0,1,1.418-.061c.05,1.123.1,2.247.2,3.279a14.348,14.348,0,0,0,.474,2.724,6.223,6.223,0,0,0,.8,1.711,4.148,4.148,0,0,0,1.118,1.14,2.314,2.314,0,0,0,.878.359,5.514,5.514,0,0,0,.942.052.712.712,0,1,1,0,1.424,6.324,6.324,0,0,1-1.192-.08,3.7,3.7,0,0,1-1.407-.565,5.583,5.583,0,0,1-1.513-1.529,7.637,7.637,0,0,1-.986-2.1,15.7,15.7,0,0,1-.53-3c-.1-1.078-.153-2.215-.2-3.351" transform="translate(-115.827 -174.575)" fill="#070203"/>
            <path id="パス_4366" data-name="パス 4366" d="M14.117,289.312a.71.71,0,1,1,.84,1.146c-.48.353-.952.725-1.415,1.123s-.915.821-1.359,1.278a23.33,23.33,0,0,0-3.363,4.485,38.64,38.64,0,0,0-2.958,6.46c-.921,2.552-1.769,5.513-2.58,8.678-.614,2.4-1.22,4.974-1.824,7.591H0c.618-2.68,1.244-5.346,1.909-7.941.821-3.207,1.681-6.21,2.618-8.806a40.067,40.067,0,0,1,3.069-6.7,24.734,24.734,0,0,1,3.569-4.757c.474-.489.959-.943,1.453-1.367s.993-.819,1.5-1.19" transform="translate(0 -212.782)" fill="#070203"/>
            <path id="パス_4367" data-name="パス 4367" d="M228.663,290.458a.71.71,0,1,1,.84-1.146c.505.371,1.006.766,1.5,1.19s.979.878,1.453,1.367a24.739,24.739,0,0,1,3.569,4.757,40.086,40.086,0,0,1,3.069,6.7c.937,2.6,1.8,5.6,2.619,8.807.665,2.595,1.29,5.26,1.909,7.941h-1.458c-.6-2.616-1.21-5.191-1.825-7.59-.81-3.165-1.658-6.126-2.58-8.679a38.65,38.65,0,0,0-2.958-6.46,23.329,23.329,0,0,0-3.363-4.485c-.443-.457-.9-.881-1.359-1.278s-.935-.771-1.415-1.123" transform="translate(-168.043 -212.782)" fill="#070203"/>
            <path id="パス_4368" data-name="パス 4368" d="M44.1,332.793a.71.71,0,0,1,1.318-.528l2.427,6a10.758,10.758,0,0,1,.987,4.742c.068,1.97.012,5.1-.066,8.444H47.347c.077-3.33.133-6.452.067-8.4a9.664,9.664,0,0,0-.886-4.257Z" transform="translate(-32.412 -244.161)" fill="#070203"/>
            <path id="パス_4369" data-name="パス 4369" d="M227.265,332.265a.71.71,0,0,1,1.318.529l-2.427,6a9.664,9.664,0,0,0-.886,4.257c-.067,1.947-.011,5.069.067,8.4h-1.419c-.078-3.342-.133-6.474-.066-8.444a10.764,10.764,0,0,1,.987-4.742Z" transform="translate(-164.693 -244.161)" fill="#070203"/>
            <path id="パス_4370" data-name="パス 4370" d="M136.123,78.942a.711.711,0,0,1,1.418.095v.006c-.135,1.991-.271,3.983-.562,6.161s-.729,4.467-1.166,6.762v.009a.711.711,0,1,1-1.4-.267V91.7c.437-2.287.874-4.575,1.155-6.681s.416-4.087.551-6.073Z" transform="translate(-98.897 -57.6)" fill="#070203"/>
            <path id="パス_4371" data-name="パス 4371" d="M103.347,71.915a.709.709,0,1,1,1.413.134c-.224,2.287-.448,4.574-.8,7.012s-.852,5.093-1.346,7.736V86.8a.711.711,0,0,1-1.4-.267v-.006c.49-2.615.979-5.23,1.335-7.672.359-2.459.578-4.7.8-6.946" transform="translate(-74.466 -52.444)" fill="#070203"/>
            <path id="パス_4372" data-name="パス 4372" d="M170.594,79.645a.711.711,0,0,1,1.418.111l0,.024c-.142,1.938-.285,3.877-.561,6.029-.279,2.175-.677,4.431-1.074,6.686l0,.011a.711.711,0,1,1-1.4-.245l0-.011c.4-2.287.805-4.574,1.068-6.619s.408-4.007.551-5.956Z" transform="translate(-124.326 -58.123)" fill="#070203"/>
            <path id="パス_4373" data-name="パス 4373" d="M75.336,90.72a.711.711,0,0,1,1.407.206l0,.01c-.229,1.5-.459,3.008-.8,4.655-.337,1.61-.782,3.33-1.227,5.05a.685.685,0,0,1-.022.071.709.709,0,0,1-1.366-.352c0-.024.009-.049.015-.074.438-1.691.875-3.382,1.21-4.983.327-1.563.557-3.07.788-4.577Z" transform="translate(-53.946 -66.307)" fill="#070203"/>
            <path id="パス_4374" data-name="パス 4374" d="M198.331,99.354a.712.712,0,0,1,1.418.116v0c0,.021,0,.041-.008.061-.115,1.162-.231,2.325-.441,3.559-.216,1.265-.528,2.6-.839,3.943v0a.711.711,0,0,1-1.385-.323v0c.307-1.319.615-2.639.823-3.86s.319-2.339.43-3.459Z" transform="translate(-144.999 -72.627)" fill="#070203"/>
            <path id="パス_4375" data-name="パス 4375" d="M91.291,273.831a.71.71,0,0,1,1.363-.4h0a39.735,39.735,0,0,0,5.271,12.05,44.88,44.88,0,0,0,2.762,3.89,19.707,19.707,0,0,0,3.963,3.787.71.71,0,0,1-.761,1.2h0a.666.666,0,0,1-.064-.044,21.02,21.02,0,0,1-4.244-4.05,46.283,46.283,0,0,1-2.85-4.018,40.978,40.978,0,0,1-5.438-12.411Z" transform="translate(-67.153 -200.822)" fill="#070203"/>
            <path id="パス_4376" data-name="パス 4376" d="M150.053,273.431a.71.71,0,0,1,1.363.4h0a40.981,40.981,0,0,1-5.438,12.411,46.313,46.313,0,0,1-2.85,4.018,20.9,20.9,0,0,1-4.192,4.01.712.712,0,0,1-.985-1.027l0,0a.727.727,0,0,1,.073-.063,19.783,19.783,0,0,0,3.994-3.811,44.868,44.868,0,0,0,2.762-3.89,39.716,39.716,0,0,0,5.271-12.05Z" transform="translate(-101.354 -200.822)" fill="#070203"/>
            <path id="パス_4377" data-name="パス 4377" d="M70.287,254.671a.71.71,0,0,1,.15,1.413c-.812.087-1.623.175-2.4.283a22.056,22.056,0,0,0-2.2.4,12.614,12.614,0,0,0-1.918.631,13.117,13.117,0,0,0-1.784.928,16.567,16.567,0,0,0-1.782,1.27,11.693,11.693,0,0,0-1.394,1.331,4.594,4.594,0,0,0-.824,1.271,3.514,3.514,0,0,0-.247,1.425,7.509,7.509,0,0,0,.35,1.978,12.861,12.861,0,0,0,.95,2.276,15.426,15.426,0,0,0,1.573,2.388,18.941,18.941,0,0,0,2.312,2.407,36.66,36.66,0,0,0,3.141,2.423c1.143.8,2.389,1.62,3.635,2.438a.711.711,0,1,1-.779,1.19c-1.24-.814-2.481-1.629-3.673-2.466a38.075,38.075,0,0,1-3.263-2.518,20.366,20.366,0,0,1-2.485-2.591,16.856,16.856,0,0,1-1.717-2.61,14.256,14.256,0,0,1-1.056-2.526,8.885,8.885,0,0,1-.406-2.361,4.9,4.9,0,0,1,.347-1.987A5.966,5.966,0,0,1,57.884,260,13.172,13.172,0,0,1,59.45,258.5a17.938,17.938,0,0,1,1.938-1.382,14.6,14.6,0,0,1,1.979-1.028,13.955,13.955,0,0,1,2.129-.7,23.317,23.317,0,0,1,2.345-.431c.8-.112,1.624-.2,2.445-.288" transform="translate(-41.55 -187.39)" fill="#070203"/>
            <path id="パス_4378" data-name="パス 4378" d="M174.542,256.082a.71.71,0,1,1,.15-1.413c.821.088,1.642.177,2.445.288a23.389,23.389,0,0,1,2.345.431,14.01,14.01,0,0,1,2.129.7,14.531,14.531,0,0,1,1.979,1.028,17.975,17.975,0,0,1,1.938,1.381,13.18,13.18,0,0,1,1.566,1.493,5.964,5.964,0,0,1,1.069,1.671,4.9,4.9,0,0,1,.347,1.987,8.889,8.889,0,0,1-.406,2.361,14.234,14.234,0,0,1-1.056,2.526,16.816,16.816,0,0,1-1.717,2.61,20.359,20.359,0,0,1-2.485,2.591,38.137,38.137,0,0,1-3.263,2.518c-1.131.794-2.4,1.628-3.673,2.463a.709.709,0,1,1-.779-1.185c1.215-.8,2.43-1.6,3.635-2.44a36.754,36.754,0,0,0,3.141-2.423,18.919,18.919,0,0,0,2.312-2.407,15.394,15.394,0,0,0,1.573-2.388,12.812,12.812,0,0,0,.95-2.276,7.5,7.5,0,0,0,.35-1.978,3.524,3.524,0,0,0-.246-1.425,4.6,4.6,0,0,0-.824-1.271,11.7,11.7,0,0,0-1.394-1.331,16.575,16.575,0,0,0-1.782-1.27,13.136,13.136,0,0,0-1.785-.928,12.526,12.526,0,0,0-1.917-.631,22.066,22.066,0,0,0-2.2-.4c-.778-.108-1.59-.2-2.4-.283" transform="translate(-127.965 -187.39)" fill="#070203"/>
            <path id="パス_4379" data-name="パス 4379" d="M110.926,341.213a.712.712,0,0,1,1.424,0v12.929a.712.712,0,1,1-1.424,0Z" transform="translate(-81.622 -250.549)" fill="#070203"/>
            <path id="パス_4380" data-name="パス 4380" d="M168.862,341.213a.712.712,0,0,1,1.424,0v12.929a.712.712,0,0,1-1.424,0Z" transform="translate(-124.253 -250.549)" fill="#070203"/>
            <path id="パス_4381" data-name="パス 4381" d="M109.551,386.607a1.461,1.461,0,1,1-1.461,1.461,1.461,1.461,0,0,1,1.461-1.461" transform="translate(-79.535 -284.475)" fill="#070203" fill-rule="evenodd"/>
            <path id="パス_4382" data-name="パス 4382" d="M167.488,386.607a1.461,1.461,0,1,1-1.461,1.461,1.461,1.461,0,0,1,1.461-1.461" transform="translate(-122.167 -284.475)" fill="#070203" fill-rule="evenodd"/>
          </g>
        </g>
      </g>
    </g>
  </g>
</svg>
